<svg width="37" height="48" viewBox="0 0 37 48" fill="none" xmlns="http://www.w3.org/2000/svg">
<path d="M24.5455 21.2627L27.1262 9.37515C27.2085 8.99555 26.9792 8.61123 26.6141 8.51669C26.2489 8.42212 25.8861 8.65322 25.8036 9.03285L23.223 20.9203C23.1555 21.2314 23.2972 21.5455 23.5515 21.7009C23.6075 21.7352 23.6691 21.7618 23.735 21.7788C24.1003 21.8733 24.4631 21.6422 24.5455 21.2627Z" fill="#343A40"/>
<path d="M23.9479 23.7484C24.0271 23.3692 23.7961 22.9878 23.4315 22.8964C23.0671 22.8051 22.7074 23.0387 22.6282 23.4179L22.4015 24.5031C22.337 24.8119 22.4784 25.1222 22.7299 25.2761C22.7872 25.3111 22.8503 25.3381 22.9178 25.3551C23.2822 25.4464 23.6419 25.2129 23.7211 24.8336L23.9479 23.7484Z" fill="#343A40"/>
<path d="M25.2823 28.8724L29.8062 7.24109C30.0292 6.17505 29.5825 5.12523 28.668 4.56643C27.7536 4.00762 26.6713 4.12305 25.9105 4.86046L10.4733 19.8228C10.0936 20.1909 9.89531 20.7155 9.92925 21.2622C9.96319 21.8089 10.2252 22.3129 10.6484 22.645L14.7543 25.8682C14.9265 26.0035 14.9715 26.2542 14.8567 26.4393L6.7351 39.532C6.37067 40.1233 6.25178 40.8606 6.40891 41.5548C6.56364 42.2383 6.96118 42.8166 7.52826 43.1835C7.54673 43.1955 7.56534 43.2072 7.584 43.2186C8.17988 43.5827 8.86807 43.6756 9.5215 43.48C10.1749 43.2845 10.7019 42.8279 11.0061 42.1929L17.6769 28.1626C17.7708 27.9649 17.9986 27.8808 18.1954 27.971L22.8856 30.123C23.3689 30.3448 23.9123 30.333 24.3766 30.0907C24.8409 29.8485 25.171 29.4044 25.2823 28.8724ZM9.12191 42.118C8.82745 42.2062 8.51737 42.1643 8.2488 42.0002L8.22307 41.9841C7.97283 41.8221 7.79674 41.5643 7.72746 41.2579C7.6544 40.9353 7.70977 40.5926 7.8782 40.3193L15.9988 27.2282C16.0379 27.1652 16.0705 27.0997 16.1006 27.0335L16.5766 27.3039C16.5316 27.3721 16.4967 27.434 16.4605 27.5103L9.79052 41.5388C9.65389 41.8241 9.41643 42.0298 9.12191 42.118ZM23.7499 28.821C23.6872 28.8536 23.5594 28.8981 23.4073 28.8284L17.039 25.9438C17.0094 25.9091 11.447 21.5196 11.447 21.5196C11.3139 21.4151 11.2864 21.2757 11.2818 21.2019C11.2772 21.1281 11.2873 20.9869 11.4068 20.8712L26.844 5.9088C27.2322 5.53228 27.6975 5.59804 28.0034 5.78497C28.3093 5.9719 28.5957 6.36553 28.4819 6.9096L23.958 28.541C23.923 28.7083 23.8126 28.7882 23.7499 28.821Z" fill="#343A40"/>
</svg>
