<svg width="32" height="32" viewBox="0 0 32 32" fill="none" xmlns="http://www.w3.org/2000/svg">
<path d="M7.99906 21.3645C8.08142 17.2394 7.74402 13.1177 8.01776 8.99654C8.13486 5.21367 9.42489 4.17304 13.1346 4.0207C20.8549 3.78314 24.1235 3.08777 23.6915 12.3142C23.656 15.0439 23.6875 17.7708 23.8549 20.4959C23.9224 22.825 24.0938 25.2119 23.4912 27.4902C22.9603 29.7629 20.5399 29.9133 18.6045 29.8561C16.739 29.8308 14.8736 29.7782 13.0091 29.7115C6.97152 29.8006 8.06442 25.8029 8.00806 21.3644C8.00506 21.3644 8.00206 21.3644 7.99906 21.3645ZM9.55666 21.0459C9.57539 21.046 9.59409 21.046 9.61282 21.0461C9.58316 22.1672 9.53719 23.2882 9.53019 24.4095C9.55539 25.7435 9.39459 27.5906 11.0528 27.9493C14.1213 28.4125 17.2709 28.2746 20.3701 28.2486C22.614 28.2535 22.288 25.3281 22.398 23.7583C22.3731 21.031 22.2131 18.3049 22.1222 15.5789C21.9632 12.8723 22.1567 10.1178 21.684 7.44174C21.2271 4.8763 17.9154 5.50634 15.9759 5.341C14.2716 5.32477 12.5303 5.39277 10.8768 5.8542C10.1785 6.03554 9.86192 6.813 9.75762 7.4653C9.22962 11.9783 9.65329 16.5162 9.55666 21.0459Z" fill="#343A40"/>
<path d="M25.3757 12.1061C24.4628 12.1707 24.2121 11.206 24.9184 10.8294C26.4341 10.3005 28.0356 10.0014 29.5902 9.59554C30.587 9.3218 31.1109 10.6461 30.117 11.037C29.8355 11.129 29.54 11.179 29.2497 11.243C28.0036 11.5213 26.5902 11.8117 25.3757 12.1061Z" fill="#343A40"/>
<path d="M6.32481 15.9084C6.32047 16.2203 6.13037 16.4179 5.88607 16.5577C4.73837 17.2141 3.51581 17.7306 2.3064 18.2597C1.4348 18.5545 0.952638 17.4587 1.76974 17.0209C2.81674 16.5305 3.88197 16.0737 4.93741 15.6001C5.44651 15.331 6.26864 15.0651 6.32481 15.9084Z" fill="#343A40"/>
<path d="M7.34423 5.51414C7.19173 5.44277 7.01413 5.4007 6.89087 5.29517C6.13017 4.56724 5.1876 3.97314 4.5632 3.12648C4.2487 2.52525 4.9653 1.86435 5.54363 2.20922C6.26727 2.77648 6.88973 3.47577 7.56747 4.09907C8.1487 4.5271 8.1987 5.4154 7.34423 5.51414Z" fill="#343A40"/>
<path d="M27.6401 16.1139C27.6747 16.7054 26.9635 17.0735 26.5059 16.7412C25.9741 16.3331 25.4908 15.8547 25.0009 15.3968C24.0661 14.5632 25.1386 13.4856 26.0049 14.3845C26.4395 14.7434 26.8667 15.1112 27.2992 15.4726C27.5078 15.647 27.6455 15.854 27.6401 16.1139Z" fill="#343A40"/>
<path d="M5.96694 11.8715C5.34434 11.7388 4.69921 11.455 4.08808 11.2523C3.31163 11.0144 3.34951 9.90878 4.21651 9.89648C4.32431 9.89915 4.43858 9.91472 4.53758 9.95485C5.16138 10.2376 5.84051 10.4308 6.42341 10.7901C6.88988 11.1714 6.62158 11.9139 5.96694 11.8715Z" fill="#343A40"/>
<path d="M25.0712 6.44813C24.4766 6.4191 24.2798 5.75806 24.6191 5.33583C25.0049 4.89373 25.3022 4.05383 26.0074 4.156C26.4491 4.22696 26.7156 4.75396 26.4491 5.13843C26.1617 5.55293 25.7979 5.91663 25.448 6.28396C25.3609 6.3754 25.1988 6.39533 25.0712 6.44813Z" fill="#343A40"/>
<path d="M9.55675 21.0458C9.65335 16.5161 9.22972 11.9782 9.75772 7.46521C9.86155 6.81211 10.179 6.03637 10.8769 5.85414C12.5303 5.39254 14.2718 5.32484 15.9759 5.34097C17.9153 5.50144 21.2276 4.87931 21.684 7.44161C22.1569 10.1177 21.9632 12.8723 22.1224 15.5789C22.2133 18.3049 22.3732 21.0309 22.3981 23.7582C22.2924 25.3331 22.6108 28.2492 20.3703 28.2485C17.2711 28.2748 14.1213 28.4123 11.0528 27.9494C9.39522 27.5887 9.55535 25.7445 9.53035 24.4094C9.53732 23.2882 9.58329 22.1671 9.61295 21.046C9.59422 21.0459 9.57549 21.0459 9.55675 21.0458ZM14.5141 6.63034C14.5128 6.64197 14.5115 6.65357 14.5102 6.66521C9.09682 6.55477 10.6902 8.36824 10.5147 12.5532C10.5219 15.4886 10.5661 18.424 10.5945 21.3592C10.558 22.2543 10.5392 23.144 10.6391 24.0359C10.6536 24.5705 10.8601 24.8896 11.3842 24.9956C11.8115 25.082 12.2536 25.137 12.6887 25.1345C15.21 25.0567 17.76 25.1593 20.2427 24.6307C21.854 24.321 21.7816 22.3533 21.7115 21.0618C21.5441 19.3681 21.5229 17.6637 21.4767 15.9633C21.3151 13.2121 21.6003 10.4027 21.0858 7.68857C20.9802 7.24577 20.6696 6.97997 20.1925 6.95187C18.2997 6.84461 16.4069 6.73761 14.5141 6.63034ZM15.064 26.5071C15.3085 28.5041 17.8403 27.6606 17.7622 25.9363C17.7615 25.8175 17.6919 25.6606 17.6009 25.5883C16.7426 24.6667 15.0668 25.2642 15.064 26.5071Z" fill="white"/>
<path d="M14.5141 6.63086C16.4069 6.73809 18.2997 6.84513 20.1925 6.95233C20.6696 6.98043 20.9802 7.24626 21.0856 7.68906C21.6004 10.403 21.315 13.2127 21.4768 15.9638C21.5229 17.6641 21.5441 19.3686 21.7114 21.0623C21.7835 22.3552 21.8528 24.3206 20.2427 24.6311C17.7601 25.1599 15.21 25.0571 12.6887 25.1351C12.2536 25.1375 11.8115 25.0824 11.3842 24.9961C10.8601 24.8901 10.6536 24.571 10.639 24.0364C10.5394 23.1449 10.5578 22.2545 10.5945 21.3597C10.5661 18.4244 10.5219 15.4891 10.5148 12.5536C10.6922 8.36579 9.09284 6.55793 14.5102 6.66569C14.5115 6.65409 14.5128 6.64249 14.5141 6.63086ZM11.6982 11.8411C11.7467 12.2351 11.8022 12.7714 11.8818 13.3042C11.9867 14.1359 13.1371 14.0561 13.0968 13.1875C13.0935 12.0198 13.1762 10.8562 13.2672 9.69276C13.2988 9.26216 13.0363 8.89193 12.6598 8.84713C12.2111 8.78456 11.8705 9.13243 11.8337 9.60743C11.7912 10.3028 11.7492 10.9982 11.6982 11.8411Z" fill="#343A40"/>
<path d="M15.0638 26.5071C15.067 25.264 16.7424 24.6666 17.6007 25.5884C17.6917 25.6606 17.7614 25.8175 17.7622 25.9363C17.8401 27.661 15.3079 28.5037 15.0638 26.5071ZM16.22 26.7528C16.5005 26.7504 16.754 26.5054 16.7432 26.3036C16.7377 26.2019 16.7418 26.0622 16.5554 26.074C16.1096 26.1319 15.8269 26.4773 16.22 26.7528Z" fill="#343A40"/>
<path d="M11.6981 11.8401C11.7492 10.9973 11.7911 10.3019 11.8337 9.60649C11.8706 9.13196 12.2109 8.78326 12.6598 8.84622C13.0363 8.89099 13.2987 9.26126 13.2672 9.69182C13.1762 10.8553 13.0935 12.0189 13.0968 13.1866C13.137 14.0543 11.9866 14.1358 11.8817 13.3032C11.8022 12.7705 11.7466 12.2341 11.6981 11.8401Z" fill="white"/>
<path d="M16.2201 26.7527C15.8269 26.4771 16.11 26.1317 16.5556 26.0739C16.7419 26.0622 16.7379 26.2018 16.7433 26.3036C16.7541 26.5053 16.5006 26.7503 16.2201 26.7527Z" fill="white"/>
</svg>
