<svg width="121" height="110" viewBox="0 0 121 110" fill="none" xmlns="http://www.w3.org/2000/svg">
<path d="M14.0301 48.2434H106.897C109.823 48.2434 112.628 49.4055 114.697 51.474C116.765 53.5426 117.927 56.3481 117.927 59.2735V104.312C117.927 104.984 117.66 105.629 117.185 106.104C116.709 106.579 116.065 106.847 115.392 106.847H5.53507C4.86273 106.847 4.21792 106.579 3.7425 106.104C3.26709 105.629 3 104.984 3 104.312V59.2735C3 56.3481 4.16209 53.5426 6.23064 51.474C8.29918 49.4055 11.1047 48.2434 14.0301 48.2434Z" stroke="#FBF3F3" stroke-width="6" stroke-linecap="round" stroke-linejoin="round"/>
<path d="M117.94 63.469C117.94 64.7267 117.692 65.9721 117.211 67.1341C116.73 68.2961 116.024 69.3519 115.135 70.2413C114.245 71.1306 113.19 71.8361 112.028 72.3174C110.866 72.7988 109.62 73.0465 108.363 73.0465C105.823 73.0458 103.387 72.0366 101.591 70.2406C99.795 68.4446 98.7857 66.0089 98.785 63.469C98.785 64.7267 98.5373 65.9721 98.056 67.1341C97.5747 68.2961 96.8692 69.3519 95.9798 70.2413C95.0905 71.1306 94.0347 71.8361 92.8727 72.3174C91.7107 72.7988 90.4653 73.0465 89.2075 73.0465C86.6676 73.0458 84.2319 72.0366 82.436 70.2406C80.64 68.4446 79.6307 66.0089 79.63 63.469C79.63 64.7267 79.3823 65.9721 78.901 67.1341C78.4197 68.2961 77.7142 69.3519 76.8249 70.2413C75.9355 71.1306 74.8797 71.8361 73.7177 72.3174C72.5557 72.7988 71.3103 73.0465 70.0526 73.0465C67.5126 73.0458 65.077 72.0366 63.281 70.2406C61.485 68.4446 60.4757 66.0089 60.4751 63.469C60.4751 64.7267 60.2273 65.9721 59.746 67.1341C59.2647 68.2961 58.5592 69.3519 57.6699 70.2413C56.7805 71.1306 55.7247 71.8361 54.5627 72.3174C53.4007 72.7988 52.1553 73.0465 50.8976 73.0465C48.3577 73.0458 45.922 72.0366 44.126 70.2406C42.33 68.4446 41.3208 66.0089 41.3201 63.469C41.3201 64.7267 41.0724 65.9721 40.591 67.1341C40.1097 68.2961 39.4043 69.3519 38.5149 70.2413C37.6256 71.1306 36.5697 71.8361 35.4077 72.3174C34.2458 72.7988 33.0003 73.0465 31.7426 73.0465C29.2029 73.0458 26.7675 72.0365 24.9719 70.2404C23.1763 68.4444 22.1676 66.0087 22.1676 63.469C22.167 66.0089 21.1577 68.4446 19.3617 70.2406C17.5657 72.0366 15.1301 73.0458 12.5902 73.0465C11.3324 73.0465 10.087 72.7988 8.92501 72.3174C7.76302 71.8361 6.70721 71.1306 5.81786 70.2413C4.9285 69.3519 4.22303 68.2961 3.74171 67.1341C3.2604 65.9721 3.01267 64.7267 3.01267 63.469" stroke="#FBF3F3" stroke-width="6" stroke-linecap="round" stroke-linejoin="round"/>
<path d="M65.3728 23.5771H54.3884V48.2434H65.3728V23.5771Z" stroke="#FBF3F3" stroke-width="6" stroke-linecap="round" stroke-linejoin="round"/>
<path d="M66.795 15.5157C66.795 17.3495 66.0665 19.1081 64.7698 20.4048C63.4731 21.7015 61.7144 22.43 59.8806 22.43C58.0468 22.43 56.2881 21.7015 54.9914 20.4048C53.6947 19.1081 52.9662 17.3495 52.9662 15.5157C52.9662 11.6978 59.8793 3 59.8793 3C59.8793 3 66.795 11.6978 66.795 15.5157Z" stroke="#FBF3F3" stroke-width="6" stroke-linecap="round" stroke-linejoin="round"/>
</svg>
