<svg width="72" height="72" viewBox="0 0 72 72" fill="none" xmlns="http://www.w3.org/2000/svg">
<g clip-path="url(#clip0_361_24)">
<path d="M57.4468 47.1064L52.8511 58.9788L57.4468 70.8511H63.5745V53.2341C63.5745 49.85 60.8311 47.1064 57.4468 47.1064Z" fill="#E9F1DF"/>
<path d="M49.7872 47.1065L45.1915 42.5107H26.8085C24.2809 42.5107 22.2128 44.5788 22.2128 47.1065H14.5532C11.1689 47.1065 8.42554 49.85 8.42554 53.2341V70.8512H45.1915L47.4894 64.2226L49.7872 70.8512H57.4468V47.1065H49.7872Z" fill="white"/>
<path d="M45.1915 42.5107V70.8512H49.7873V47.1065C49.7873 44.5788 47.7192 42.5107 45.1915 42.5107Z" fill="#E9F1DF"/>
<path d="M20.6656 26.4255C18.1273 26.4255 16.0698 28.4832 16.0698 31.0213C16.0698 33.5595 18.1273 35.617 20.6656 35.617H36V26.4255H20.6656Z" fill="#FEC8BB"/>
<path d="M51.3345 26.4255H36V35.617H51.3345C53.8727 35.617 55.9302 33.5595 55.9302 31.0213C55.9302 28.4832 53.8727 26.4255 51.3345 26.4255Z" fill="#FE9F88"/>
<path d="M36 14.9363V47.1065C43.6145 47.1065 49.7872 40.9338 49.7872 33.3193V28.7235C49.7872 21.109 43.6145 14.9363 36 14.9363Z" fill="#FE9F88"/>
<path d="M45.1915 33.3193V28.7235C45.1915 21.109 41.0763 14.9363 36 14.9363C28.3855 14.9363 22.2128 21.109 22.2128 28.7235V33.3193C22.2128 40.9338 28.3855 47.1065 36 47.1065C41.0763 47.1065 45.1915 40.9338 45.1915 33.3193Z" fill="#FEC8BB"/>
<path d="M27.5745 35.617C28.8436 35.617 29.8724 34.5882 29.8724 33.3191C29.8724 32.05 28.8436 31.0212 27.5745 31.0212C26.3054 31.0212 25.2766 32.05 25.2766 33.3191C25.2766 34.5882 26.3054 35.617 27.5745 35.617Z" fill="#FE9F88"/>
<path d="M45.1915 31.1548L43.6016 33.3179L45.0742 35.5226C46.0272 35.2424 46.7235 34.3628 46.7235 33.3191C46.7235 32.319 46.0834 31.4705 45.1915 31.1548Z" fill="#FD7555"/>
<path d="M45.1915 31.1548C44.9516 31.0698 44.6946 31.0212 44.4256 31.0212C43.1565 31.0212 42.1277 32.0501 42.1277 33.3191C42.1277 34.5882 43.1565 35.617 44.4256 35.617C44.6511 35.617 44.8683 35.5831 45.0742 35.5226C45.1511 34.8051 45.1915 34.0691 45.1915 33.3191V31.1548Z" fill="#FE9F88"/>
<path d="M22.2128 12.6382L22.9985 24.1275H49.0017L49.7872 12.6382H22.2128Z" fill="#B7BFAD"/>
<path d="M47.4894 4.21265V19.5318C51.7196 19.5318 55.149 16.1024 55.149 11.8722C55.149 7.64199 51.7196 4.21265 47.4894 4.21265Z" fill="#D4DBCA"/>
<path d="M50.5532 11.8723C50.5532 7.6421 49.1815 4.21276 47.4894 4.21276C46.0898 4.21276 44.7791 4.58991 43.6501 5.24557C42.0022 2.77613 39.1914 1.14893 36 1.14893C32.8086 1.14893 29.9978 2.77613 28.3499 5.24557C27.2209 4.58991 25.9102 4.21276 24.5106 4.21276C20.2804 4.21276 16.8511 7.6421 16.8511 11.8723C16.8511 16.1026 20.2804 19.5319 24.5106 19.5319C26.6399 19.5319 28.5656 18.6625 29.9538 17.2601C31.5702 18.6736 33.6842 19.5319 36 19.5319C38.3158 19.5319 40.4298 18.6736 42.0462 17.2601C43.4344 18.6625 45.3602 19.5319 47.4894 19.5319C49.1815 19.5319 50.5532 16.1026 50.5532 11.8723Z" fill="white"/>
<path d="M57.4468 45.9574H50.8181C50.4837 44.3486 49.4614 42.9521 48.0504 42.1332C49.2108 40.551 50.0676 38.7332 50.5341 36.766H51.3345C54.5022 36.766 57.0792 34.189 57.0792 31.0213C57.0792 27.8536 54.502 25.2766 51.3345 25.2766H50.5322C50.429 24.8403 50.306 24.4086 50.1632 23.9821L50.4235 20.1765C53.8421 18.9651 56.2979 15.7009 56.2979 11.8723C56.2979 7.01525 52.3465 3.06383 47.4894 3.06383C46.2856 3.06383 45.0956 3.31154 43.9972 3.78613C42.0414 1.39848 39.1205 0 36 0C32.8795 0 29.9586 1.39848 28.0028 3.78613C26.9044 3.31154 25.7144 3.06383 24.5107 3.06383C19.6536 3.06383 15.7021 7.01525 15.7021 11.8723C15.7021 15.7009 18.158 18.9651 21.5766 20.1765L21.8369 23.9821C21.6941 24.4086 21.5712 24.8405 21.4678 25.2766H20.6655C17.4979 25.2766 14.9209 27.8536 14.9209 31.0213C14.9209 34.189 17.4979 36.766 20.6655 36.766H21.466C21.9324 38.7334 22.7894 40.5512 23.9498 42.1333C22.5388 42.9523 21.5165 44.3488 21.1821 45.9574H14.5532C10.541 45.9574 7.27661 49.2218 7.27661 53.234V70.8511C7.27661 71.4857 7.79088 72 8.42555 72H63.5745C64.2092 72 64.7234 71.4857 64.7234 70.8511V53.234C64.7234 49.2218 61.4591 45.9574 57.4468 45.9574ZM40.7969 18.2621C40.5374 17.6832 39.8577 17.4235 39.2786 17.6837C38.2429 18.1477 37.1398 18.383 36 18.383C34.0546 18.383 32.1761 17.6771 30.7103 16.3952C30.2533 15.9958 29.5646 16.0203 29.1373 16.4517C27.9046 17.6971 26.2615 18.383 24.5107 18.383C20.9206 18.383 18 15.4624 18 11.8723C18 8.2823 20.9206 5.3617 24.5107 5.3617C25.6564 5.3617 26.7846 5.66502 27.7732 6.23918C28.298 6.54388 28.969 6.38824 29.3057 5.88332C30.8039 3.63814 33.3065 2.29787 36 2.29787C38.6936 2.29787 41.1961 3.63814 42.6943 5.88317C43.031 6.38793 43.7025 6.54373 44.2269 6.23903C45.2154 5.66502 46.3437 5.3617 47.4894 5.3617C51.0794 5.3617 54 8.2823 54 11.8723C54 15.4624 51.0794 18.383 47.4894 18.383C46.5607 18.383 45.6616 18.1895 44.817 17.8082C44.2379 17.5469 43.5579 17.8045 43.297 18.3827C43.0359 18.961 43.2932 19.6416 43.8715 19.9026C45.0155 20.419 46.2326 20.6808 47.4894 20.6808C47.6905 20.6808 47.8895 20.6717 48.0873 20.6583L47.9286 22.9787H24.0716L23.9129 20.6583C24.1107 20.6717 24.3097 20.6808 24.5108 20.6808C26.532 20.6808 28.4472 20.0054 30.0018 18.7607C31.7463 20.005 33.8411 20.6808 36 20.6808C37.4658 20.6808 38.8851 20.3778 40.2183 19.7804C40.7972 19.521 41.0564 18.8412 40.7969 18.2621ZM20.6655 34.4681C18.7651 34.4681 17.2187 32.9218 17.2187 31.0213C17.2187 29.1208 18.7651 27.5745 20.6655 27.5745H21.1095C21.0804 27.9556 21.0637 28.3386 21.0637 28.7234C21.0637 29.3581 21.578 29.8723 22.2126 29.8723C22.8473 29.8723 23.3616 29.3581 23.3616 28.7234C23.3616 27.5498 23.5244 26.3941 23.8409 25.2766H48.1588C48.4753 26.394 48.6382 27.5495 48.6382 28.7234C48.6382 29.3581 49.1524 29.8723 49.7871 29.8723C50.4218 29.8723 50.936 29.3581 50.936 28.7234C50.936 28.3386 50.9193 27.9556 50.8902 27.5745H51.3342C53.2347 27.5745 54.781 29.1208 54.781 31.0213C54.781 32.9218 53.235 34.4681 51.3345 34.4681H50.8925C50.9215 34.0888 50.9363 33.7056 50.9363 33.3191C50.9363 32.6845 50.4221 32.1702 49.7874 32.1702C49.1527 32.1702 48.6385 32.6845 48.6385 33.3191C48.6385 40.2878 42.9689 45.9574 36.0002 45.9574C29.0315 45.9574 23.3619 40.2878 23.3619 33.3191C23.3619 32.6845 22.8476 32.1702 22.2129 32.1702C21.5783 32.1702 21.064 32.6845 21.064 33.3191C21.064 33.7056 21.0787 34.0888 21.1078 34.4681H20.6655ZM9.57448 53.234C9.57448 50.4887 11.8079 48.2553 14.5532 48.2553H22.2128C22.8475 48.2553 23.3617 47.7411 23.3617 47.1064C23.3617 45.7074 24.2292 44.4519 25.4931 43.9241C28.1937 46.5999 31.907 48.2553 36 48.2553C38.9589 48.2553 41.7196 47.3904 44.0426 45.9003V69.7021H18.766V61.6596C18.766 61.0249 18.2517 60.5106 17.617 60.5106C16.9824 60.5106 16.4681 61.0249 16.4681 61.6596V69.7021H9.57448V53.234ZM62.4255 69.7021H54V61.6596C54 61.0249 53.4858 60.5106 52.8511 60.5106C52.2164 60.5106 51.7021 61.0249 51.7021 61.6596V69.7021H46.3404V44.0867C46.3964 44.0329 46.4518 43.9787 46.507 43.924C47.7706 44.4517 48.6383 45.7071 48.6383 47.1062C48.6383 47.7409 49.1526 48.2552 49.7873 48.2552H57.4468C60.1922 48.2552 62.4255 50.4885 62.4255 53.2339V69.7021Z" fill="black"/>
<path d="M29.3362 29.8723H30.8569C31.0146 30.3186 31.4403 30.6383 31.9404 30.6383C32.5751 30.6383 33.0894 30.124 33.0894 29.4894V28.7234C33.0894 28.0887 32.5751 27.5745 31.9404 27.5745H29.3362C28.7015 27.5745 28.1873 28.0887 28.1873 28.7234C28.1873 29.3581 28.7015 29.8723 29.3362 29.8723Z" fill="black"/>
<path d="M40.0596 30.6383C40.5599 30.6383 40.9855 30.3186 41.1431 29.8723H42.6638C43.2985 29.8723 43.8128 29.3581 43.8128 28.7234C43.8128 28.0887 43.2985 27.5745 42.6638 27.5745H40.0596C39.4249 27.5745 38.9106 28.0887 38.9106 28.7234V29.4894C38.9106 30.124 39.4249 30.6383 40.0596 30.6383Z" fill="black"/>
<path d="M32.3899 36.0021C32.9315 37.5261 34.3824 38.55 36 38.55C37.6175 38.55 39.0684 37.5261 39.6101 36.0021C39.8227 35.4042 39.5103 34.7472 38.9123 34.5347C38.3148 34.3216 37.6575 34.6344 37.445 35.2323C37.2281 35.8423 36.6473 36.2521 35.9998 36.2521C35.3523 36.2521 34.7715 35.8423 34.5546 35.2323C34.3421 34.6344 33.6846 34.3217 33.0873 34.5347C32.4896 34.747 32.1772 35.404 32.3899 36.0021Z" fill="black"/>
<path d="M40.5 58C40.5 58.8284 39.8284 59.5 39 59.5C38.1716 59.5 37.5 58.8284 37.5 58C37.5 57.1716 38.1716 56.5 39 56.5C39.8284 56.5 40.5 57.1716 40.5 58Z" fill="#009175" stroke="black"/>
<path d="M40.5 65C40.5 65.8284 39.8284 66.5 39 66.5C38.1716 66.5 37.5 65.8284 37.5 65C37.5 64.1716 38.1716 63.5 39 63.5C39.8284 63.5 40.5 64.1716 40.5 65Z" fill="#009175" stroke="black"/>
</g>
<defs>
<clipPath id="clip0_361_24">
<rect width="72" height="72" fill="white"/>
</clipPath>
</defs>
</svg>
