<svg width="72" height="72" viewBox="0 0 72 72" fill="none" xmlns="http://www.w3.org/2000/svg">
<g clip-path="url(#clip0_366_148)">
<path d="M23.8554 70.6989H3.03618L1.30115 37.7351H25.5903L23.8554 70.6989Z" fill="#F8F8F9"/>
<path d="M20.3855 37.7349L18.6506 70.6986H23.8554L25.5903 37.7349H20.3855Z" fill="#EDEDED"/>
<path d="M1.75793 46.4094L3.03622 70.6986H23.8555L25.1337 46.4094H1.75793Z" fill="#EDEDED"/>
<path d="M65.4939 8.24097H37.735C37.735 18.6506 32.5302 18.6506 32.5302 27.3253V70.6989H70.6989V27.3252C70.6987 18.6506 65.4939 18.6506 65.4939 8.24097Z" fill="#EDEDED"/>
<path d="M65.494 8.24097H58.5543C58.5543 18.6506 63.7591 18.6506 63.7591 27.3253V70.6989H70.6988V27.3252C70.6988 18.6506 65.494 18.6506 65.494 8.24097Z" fill="#D8D8DA"/>
<path d="M65.494 1.30127H37.735C36.7768 1.30127 36.0001 2.07794 36.0001 3.03616V6.50608C36.0001 7.4643 36.7768 8.24097 37.735 8.24097H65.4941C66.4523 8.24097 67.229 7.4643 67.229 6.50608V3.0363C67.229 2.07808 66.4522 1.30127 65.494 1.30127Z" fill="#F4C063"/>
<path d="M65.494 1.30127H58.5543C59.5125 1.30127 60.2892 1.92269 60.2892 2.68924V6.85315C60.2892 7.61969 59.5125 8.24111 58.5543 8.24111H65.494C66.4522 8.24111 67.2289 7.61969 67.2289 6.85315V2.68924C67.2291 1.92269 66.4522 1.30127 65.494 1.30127Z" fill="#D5A03C"/>
<path d="M63.7591 30.7952H39.47V55.0843H63.7591V30.7952Z" fill="#EAA0E3"/>
<path d="M56.4723 38.1687H49.5509L48.9593 37.5771C48.2221 36.8398 47.2417 36.4338 46.199 36.4338H46.0626C45.5362 36.4338 45.0619 36.7508 44.8604 37.2371C44.659 37.7234 44.7704 38.2829 45.1424 38.655L45.8698 39.3825L43.8414 41.0726C43.5606 41.3066 43.391 41.6481 43.3745 42.0133C43.3579 42.3785 43.4957 42.7338 43.7543 42.9923L44.6219 43.8598C44.8658 44.1039 45.1969 44.2411 45.542 44.2411H46.4962V48.1447C46.4962 48.7828 46.9589 49.3269 47.589 49.429C48.2183 49.5308 48.8301 49.1617 49.0319 48.556L49.5323 47.0544L50.0328 48.556C50.2346 49.1615 50.8451 49.5304 51.4756 49.429C52.1056 49.3268 52.5684 48.7827 52.5684 48.1447V45.9759H53.436V48.1447C53.436 48.7828 53.8986 49.3269 54.5287 49.429C55.1582 49.5308 55.7698 49.1617 55.9716 48.556L56.472 47.0544L56.9725 48.556C57.152 49.094 57.6544 49.4459 58.2061 49.4459C58.2751 49.4459 58.3452 49.4404 58.4153 49.429C59.0453 49.3268 59.5081 48.7827 59.5081 48.1447V41.205C59.5086 39.5308 58.1463 38.1687 56.4723 38.1687Z" fill="#E9F1DF"/>
<path d="M19.9289 46.4097L18.6506 70.6988H23.8554L25.1337 46.4097H19.9289Z" fill="#D8D8DA"/>
<path d="M69.4153 18.1335C68.6524 16.741 67.9321 15.4257 67.4321 13.6018C67.2421 12.9087 66.5265 12.5011 65.8332 12.6908C65.14 12.8808 64.7324 13.5966 64.9224 14.2897C65.503 16.4077 66.3314 17.9207 67.1328 19.3835C68.3481 21.6022 69.3976 23.5185 69.3976 27.3253V69.3976H33.8314V27.3253C33.8314 23.5184 34.8809 21.6024 36.0962 19.3836C37.3667 17.0641 38.7934 14.4593 39.0084 9.54211H65.494H67.2289C67.9475 9.54211 68.5301 8.9595 68.5301 8.24091V1.3012C68.5301 0.582609 67.9475 0 67.2289 0H36C35.2814 0 34.6988 0.582609 34.6988 1.3012V8.24091C34.6988 8.9595 35.2814 9.54211 36 9.54211H36.4037C36.2057 13.7642 35.0409 15.8927 33.8134 18.1333C32.5429 20.4535 31.2289 22.8524 31.2289 27.3253V70.6988C31.2289 71.4174 31.8115 72 32.5301 72H70.6988C71.4174 72 72 71.4174 72 70.6988V27.3253C72 22.8525 70.686 20.4536 69.4153 18.1335ZM37.3012 2.60241H65.9278V6.93984H37.3012V2.60241Z" fill="#2E2D31"/>
<path d="M63.7591 51.2663C64.4777 51.2663 65.0603 50.6837 65.0603 49.9651V30.7951C65.0603 30.0765 64.4777 29.4939 63.7591 29.4939H39.4699C38.7513 29.4939 38.1687 30.0765 38.1687 30.7951V55.0843C38.1687 55.8029 38.7513 56.3855 39.4699 56.3855H63.7591C64.4777 56.3855 65.0603 55.8029 65.0603 55.0843C65.0603 54.3657 64.4777 53.7831 63.7591 53.7831H40.7711V32.0963H62.4579V49.9651C62.4579 50.6838 63.0405 51.2663 63.7591 51.2663Z" fill="#2E2D31"/>
<path d="M25.5904 36.4338H1.30118C0.944136 36.4338 0.602839 36.5805 0.357168 36.8394C0.111496 37.0983 -0.0170355 37.4468 0.0016676 37.8034L1.73656 70.7673C1.77298 71.4583 2.34392 72.0001 3.03607 72.0001H23.8553C24.5473 72.0001 25.1184 71.4583 25.1548 70.7673L26.8897 37.8034C26.9084 37.4469 26.7799 37.0984 26.5342 36.8394C26.2887 36.5804 25.9474 36.4338 25.5904 36.4338ZM22.6209 69.3976H4.27076L3.12931 47.7108H18.6507C19.3692 47.7108 19.9519 47.1282 19.9519 46.4096C19.9519 45.691 19.3692 45.1084 18.6507 45.1084H3.03621C3.02145 45.1084 3.00711 45.1101 2.99248 45.1107L2.6727 39.0361H24.2187L22.6209 69.3976Z" fill="#2E2D31"/>
</g>
<defs>
<clipPath id="clip0_366_148">
<rect width="72" height="72" fill="white"/>
</clipPath>
</defs>
</svg>
