<svg width="72" height="72" viewBox="0 0 72 72" fill="none" xmlns="http://www.w3.org/2000/svg">
<g clip-path="url(#clip0_361_46)">
<path d="M51.0312 56.4427H10.1461C8.81771 56.4427 7.74109 55.3661 7.74109 54.0377V3.53241C7.74109 2.20407 8.81771 1.12744 10.1461 1.12744H51.0312C52.3596 1.12744 53.4362 2.20407 53.4362 3.53241V54.0376C53.4363 55.3659 52.3596 56.4427 51.0312 56.4427Z" fill="#F1F4FB"/>
<path d="M53.4364 54.0376V42.2652C53.4126 42.2718 53.3874 42.2741 53.3638 42.2809C52.4007 41.4923 51.2117 40.975 49.8971 40.8435C49.8745 40.8412 49.8516 40.8391 49.8291 40.837V29.3862C49.8291 25.7395 46.8623 22.7726 43.2156 22.7725H43.2155C42.9947 22.7725 42.7714 22.7834 42.546 22.8059C39.1572 23.1451 36.6015 26.0478 36.6015 29.5578V42.9233L34.0138 45.511C31.6412 47.8836 30.6834 51.2504 31.4519 54.5167L31.9051 56.4427H51.0314C52.3595 56.4427 53.4364 55.3658 53.4364 54.0376Z" fill="#D5DCED"/>
<path d="M18.5636 19.1649C20.556 19.1649 22.1711 17.5497 22.1711 15.5574C22.1711 13.5651 20.556 11.95 18.5636 11.95C16.5713 11.95 14.9562 13.5651 14.9562 15.5574C14.9562 17.5497 16.5713 19.1649 18.5636 19.1649Z" fill="#009175"/>
<path d="M18.5636 32.3924C20.556 32.3924 22.1711 30.7773 22.1711 28.7849C22.1711 26.7926 20.556 25.1775 18.5636 25.1775C16.5713 25.1775 14.9562 26.7926 14.9562 28.7849C14.9562 30.7773 16.5713 32.3924 18.5636 32.3924Z" fill="#D28A4D"/>
<path d="M18.5636 45.6199C20.556 45.6199 22.1711 44.0048 22.1711 42.0125C22.1711 40.0201 20.556 38.405 18.5636 38.405C16.5713 38.405 14.9562 40.0201 14.9562 42.0125C14.9562 44.0048 16.5713 45.6199 18.5636 45.6199Z" fill="#F2385A"/>
<path d="M61.5626 46.8383C59.763 46.6582 58.2462 48.0664 58.2462 49.829V48.7979C58.2462 47.2253 57.1147 45.7925 55.5499 45.6359C53.7503 45.4557 52.2335 46.8639 52.2335 48.6265V47.5955C52.2335 46.0229 51.102 44.5899 49.5372 44.4334C47.7376 44.2532 46.2208 45.6614 46.2208 47.424V29.3864C46.2208 27.6238 44.704 26.2155 42.9044 26.3957C41.3397 26.5523 40.2081 27.9853 40.2081 29.5578V44.4176L36.5639 48.0618C35.0916 49.5341 34.4859 51.6635 34.9628 53.6904L37.4787 64.3831C38.3734 68.1855 41.7662 70.8727 45.6726 70.8727H55.8414C60.4903 70.8727 64.2589 67.1041 64.2589 62.4552V50.0004C64.2589 48.4278 63.1274 46.9949 61.5626 46.8383Z" fill="#FEC8BB"/>
<path d="M47.4239 50.3545C48.088 50.3545 48.6264 49.8161 48.6264 49.1521V44.4941C47.257 44.775 46.2214 45.9713 46.2214 47.4238V49.1521C46.2214 49.8161 46.7599 50.3545 47.4239 50.3545Z" fill="#E6AF78"/>
<path d="M53.4364 51.5569C54.1004 51.5569 54.6389 51.0185 54.6389 50.3545V45.6965C53.2694 45.9774 52.2339 47.1737 52.2339 48.6262V50.3545C52.2339 51.0186 52.7722 51.5569 53.4364 51.5569Z" fill="#E6AF78"/>
<path d="M59.4488 52.7596C60.1129 52.7596 60.6513 52.2211 60.6513 51.5571V46.8992C59.2819 47.18 58.2463 48.3763 58.2463 49.8288V51.5571C58.2463 52.2213 58.7848 52.7596 59.4488 52.7596Z" fill="#E6AF78"/>
<path d="M40.4797 64.383L37.6916 52.5338C37.3839 51.226 37.7747 49.8519 38.7249 48.9017L40.209 47.4177V50.4301C40.209 51.0941 40.7474 51.6325 41.4114 51.6325C42.0755 51.6325 42.6139 51.0941 42.6139 50.4301V26.4553C41.2049 26.7513 40.209 28.0863 40.209 29.5575V44.4175L36.5648 48.0617C35.0925 49.534 34.4868 51.6633 34.9636 53.6903L37.4796 64.383C38.3742 68.1854 41.7671 70.8726 45.6732 70.8726H48.6736C44.7672 70.8726 41.3743 68.1854 40.4797 64.383Z" fill="#FE9F88"/>
<path d="M22.1712 14.4301C21.5486 14.4301 21.0438 14.9348 21.0438 15.5575C21.0438 16.9251 19.9312 18.0377 18.5636 18.0377C17.196 18.0377 16.0834 16.9251 16.0834 15.5575C16.0834 14.1899 17.196 13.0773 18.5636 13.0773C19.1861 13.0773 19.691 12.5726 19.691 11.9499C19.691 11.3274 19.1863 10.8225 18.5636 10.8225C15.9527 10.8225 13.8287 12.9467 13.8287 15.5574C13.8287 18.1681 15.9529 20.2922 18.5636 20.2922C21.1744 20.2922 23.2984 18.1681 23.2984 15.5574C23.2984 14.9348 22.7937 14.4301 22.1712 14.4301Z" fill="black"/>
<path d="M22.1712 27.6576C21.5486 27.6576 21.0438 28.1623 21.0438 28.785C21.0438 30.1526 19.9312 31.2652 18.5636 31.2652C17.196 31.2652 16.0834 30.1526 16.0834 28.785C16.0834 27.4175 17.196 26.3048 18.5636 26.3048C19.1861 26.3048 19.691 25.8001 19.691 25.1774C19.691 24.5548 19.1863 24.05 18.5636 24.05C15.9527 24.05 13.8287 26.1742 13.8287 28.7849C13.8287 31.3956 15.9529 33.5197 18.5636 33.5197C21.1744 33.5197 23.2984 31.3956 23.2984 28.7849C23.2984 28.1625 22.7937 27.6576 22.1712 27.6576Z" fill="black"/>
<path d="M35.3987 30.0627H26.9812C26.3586 30.0627 25.8538 30.5674 25.8538 31.1901C25.8538 31.8128 26.3585 32.3175 26.9812 32.3175H35.3987C36.0212 32.3175 36.5261 31.8128 36.5261 31.1901C36.5261 30.5674 36.0214 30.0627 35.3987 30.0627Z" fill="black"/>
<path d="M35.3987 25.2527H26.9812C26.3586 25.2527 25.8538 25.7574 25.8538 26.3801C25.8538 27.0028 26.3585 27.5075 26.9812 27.5075H35.3987C36.0212 27.5075 36.5261 27.0028 36.5261 26.3801C36.5261 25.7574 36.0214 25.2527 35.3987 25.2527Z" fill="black"/>
<path d="M34.1211 44.4174C34.1211 43.7949 33.6164 43.29 32.9937 43.29H26.9812C26.3586 43.29 25.8538 43.7947 25.8538 44.4174C25.8538 45.04 26.3585 45.5448 26.9812 45.5448H32.9937C33.6163 45.5448 34.1211 45.04 34.1211 44.4174Z" fill="black"/>
<path d="M35.3987 38.4802H26.9812C26.3586 38.4802 25.8538 38.9849 25.8538 39.6076C25.8538 40.2302 26.3585 40.735 26.9812 40.735H35.3987C36.0212 40.735 36.5261 40.2303 36.5261 39.6076C36.5261 38.9849 36.0214 38.4802 35.3987 38.4802Z" fill="black"/>
<path d="M47.3486 17.9624C47.3486 17.3398 46.8439 16.835 46.2212 16.835H26.9812C26.3586 16.835 25.8538 17.3397 25.8538 17.9624C25.8538 18.5849 26.3585 19.0897 26.9812 19.0897H46.2212C46.8439 19.0896 47.3486 18.5849 47.3486 17.9624Z" fill="black"/>
<path d="M26.9812 14.2797H41.4112C42.0338 14.2797 42.5386 13.775 42.5386 13.1523C42.5386 12.5297 42.0339 12.0249 41.4112 12.0249H26.9812C26.3586 12.0249 25.8538 12.5296 25.8538 13.1523C25.8539 13.775 26.3586 14.2797 26.9812 14.2797Z" fill="black"/>
<path d="M18.5636 39.5324C19.1861 39.5324 19.691 39.0277 19.691 38.405C19.691 37.7824 19.1863 37.2776 18.5636 37.2776C15.9527 37.2776 13.8287 39.4017 13.8287 42.0124C13.8287 44.6233 15.9529 46.7473 18.5636 46.7473C21.1744 46.7473 23.2984 44.6231 23.2984 42.0124C23.2984 41.3899 22.7937 40.885 22.171 40.885C21.5485 40.885 21.0436 41.3897 21.0436 42.0124C21.0436 43.38 19.931 44.4926 18.5634 44.4926C17.1959 44.4926 16.0832 43.38 16.0832 42.0124C16.0835 40.645 17.1961 39.5324 18.5636 39.5324Z" fill="black"/>
<path d="M30.5888 55.3153H10.1461C9.4416 55.3153 8.86841 54.7421 8.86841 54.0375V3.53236C8.86841 2.82783 9.4416 2.25464 10.1461 2.25464H51.0313C51.7358 2.25464 52.309 2.82783 52.309 3.53236V40.8102C52.309 41.4328 52.8137 41.9376 53.4364 41.9376C54.059 41.9376 54.5638 41.4329 54.5638 40.8102V3.53236C54.5637 1.58456 52.9791 0 51.0313 0H10.1461C8.19847 0 6.61377 1.58456 6.61377 3.53236V54.0375C6.61377 55.9853 8.19833 57.5699 10.1461 57.5699H30.5888C31.2113 57.5699 31.7162 57.0652 31.7162 56.4425C31.7162 55.82 31.2113 55.3153 30.5888 55.3153Z" fill="black"/>
<path d="M61.675 45.7164C60.6272 45.6119 59.58 45.9089 58.7511 46.5382C58.0909 45.4303 56.9651 44.6444 55.6624 44.5139C54.6144 44.4095 53.5673 44.7065 52.7386 45.3357C52.0783 44.2278 50.9525 43.4419 49.6499 43.3114C48.8497 43.2315 48.0507 43.3856 47.3486 43.743V29.3863C47.3486 28.2206 46.8527 27.1032 45.9877 26.3206C45.1236 25.5388 43.9591 25.1571 42.7926 25.2738C40.7115 25.4821 39.0814 27.3639 39.0814 29.5577V43.9507L35.7674 47.2646C34.0063 49.0257 33.2955 51.5243 33.866 53.9485L36.3819 64.6412C37.4013 68.974 41.2219 72 45.673 72H55.8412C61.1042 72 65.3861 67.7183 65.3861 62.4551V50.0004C65.3862 47.8065 63.7561 45.9248 61.675 45.7164ZM63.1315 62.4551C63.1315 66.4749 59.8611 69.7452 55.8413 69.7452H45.6731C42.2735 69.7452 39.3553 67.4341 38.5766 64.1247L36.0607 53.432C35.6704 51.7734 36.1568 50.0636 37.3617 48.8588L39.0814 47.1391V51.0313C39.0814 51.6538 39.5861 52.1587 40.2087 52.1587C40.8313 52.1587 41.3361 51.654 41.3361 51.0313V29.5577C41.3361 28.5079 42.0746 27.6116 43.0174 27.5174C43.559 27.4629 44.0769 27.6318 44.4752 27.9925C44.8685 28.3485 45.0941 28.8565 45.0941 29.3864V49.2278C45.0941 49.8503 45.5988 50.3551 46.2214 50.3551C46.844 50.3551 47.3488 49.8504 47.3488 49.2278V47.424C47.3488 46.8941 47.5743 46.386 47.9677 46.0301C48.3663 45.6695 48.8839 45.5004 49.4254 45.5549C50.3682 45.6493 51.1068 46.5456 51.1068 47.5954V50.43C51.1068 51.0525 51.6115 51.5574 52.2341 51.5574C52.8567 51.5574 53.3615 51.0527 53.3615 50.43V48.6262C53.3615 48.0963 53.587 47.5882 53.9804 47.2323C54.379 46.8717 54.8967 46.7027 55.4381 46.7571C56.3809 46.8515 57.1195 47.7478 57.1195 48.7976V51.6323C57.1195 52.2549 57.6242 52.7597 58.2469 52.7597C58.8694 52.7597 59.3742 52.255 59.3742 51.6323V49.8285C59.3742 49.2986 59.5997 48.7906 59.9931 48.4346C60.3917 48.0742 60.909 47.9049 61.4509 47.9596C62.3936 48.0538 63.1322 48.9502 63.1322 49.9999V62.4551H63.1315Z" fill="black"/>
</g>
<defs>
<clipPath id="clip0_361_46">
<rect width="72" height="72" fill="white"/>
</clipPath>
</defs>
</svg>
