<svg width="28" height="28" viewBox="0 0 28 28" fill="none" xmlns="http://www.w3.org/2000/svg">
<g clip-path="url(#clip0_39_1884)">
<path d="M7.91829 28.009V9.06228H12.1634V23.2505H20.9043C22.0208 23.2505 22.7758 22.864 23.1693 22.091C23.5566 21.317 23.7549 20.2207 23.7549 18.8173V0H28V20.8231C28 23.0317 27.5192 24.7825 26.5576 26.0755C25.5915 27.3615 24.1969 28.009 22.3604 28.009H7.91829ZM20.0817 7.22814V18.9347H15.8366V9.18877C15.8366 7.61665 15.6087 6.47822 15.1712 5.79155C14.7337 5.10487 13.9932 4.74648 12.9655 4.74648H4.24512V28.009H0V0H14.4421C16.265 0 17.6595 0.647521 18.6257 1.94256C19.5918 3.2376 20.0771 4.99344 20.0817 7.21007V7.22814Z" fill="#FF8E8E"/>
</g>
<defs>
<clipPath id="clip0_39_1884">
<rect width="28" height="28" fill="white"/>
</clipPath>
</defs>
</svg>
