<svg width="40" height="64" viewBox="0 0 40 64" fill="none" xmlns="http://www.w3.org/2000/svg">
<g opacity="0.64">
<path d="M1.6543 11.2461C1.6543 10.0755 2.39095 9.49023 3.86426 9.49023C7.7998 9.49023 10.5951 10.459 12.25 12.3965L31.7461 39.0068V16.3623C31.7461 14.5257 31.5846 13.335 31.2617 12.79C30.9388 12.2451 30.3031 11.8717 29.3545 11.6699L27.5986 11.3066V9.97461H37.8613V11.3672L35.8027 11.791C35.0964 11.9323 34.6725 12.1543 34.5312 12.457C34.39 12.7598 34.3193 13.5166 34.3193 14.7275V46.8779H33.0781L11.7051 18.0576L11.6748 41.3984C11.6748 42.7305 11.7858 43.5277 12.0078 43.79C12.25 44.0322 12.6839 44.2139 13.3096 44.335L15.3682 44.7588V46H5.16602V44.8193L6.92188 44.4561C7.99154 44.234 8.62728 43.8203 8.8291 43.2148C9.05111 42.6094 9.16211 41.4489 9.16211 39.7334V18.6025C9.14193 14.4046 8.56673 12.2855 7.43652 12.2451C6.91178 12.2451 6.2054 12.457 5.31738 12.8809C4.42936 13.3047 3.91471 13.5166 3.77344 13.5166C2.80469 13.5166 2.14876 13.0726 1.80566 12.1846C1.70475 11.8818 1.6543 11.569 1.6543 11.2461Z" fill="#FF8E8E"/>
<path d="M12.25 12.3965L13.8633 11.2145L13.8192 11.1543L13.7707 11.0975L12.25 12.3965ZM31.7461 39.0068L30.1328 40.1888L33.7461 45.1207V39.0068H31.7461ZM31.2617 12.79L29.5411 13.8096L31.2617 12.79ZM29.3545 11.6699L29.7707 9.71368L29.7597 9.7114L29.3545 11.6699ZM27.5986 11.3066H25.5986V12.9352L27.1934 13.2652L27.5986 11.3066ZM27.5986 9.97461V7.97461H25.5986V9.97461H27.5986ZM37.8613 9.97461H39.8613V7.97461H37.8613V9.97461ZM37.8613 11.3672L38.2646 13.3261L39.8613 12.9974V11.3672H37.8613ZM35.8027 11.791L36.195 13.7522L36.206 13.7499L35.8027 11.791ZM34.3193 46.8779V48.8779H36.3193V46.8779H34.3193ZM33.0781 46.8779L31.4717 48.0693L32.0714 48.8779H33.0781V46.8779ZM11.7051 18.0576L13.3115 16.8663L9.71292 12.0137L9.70508 18.055L11.7051 18.0576ZM11.6748 41.3984L9.6748 41.3958V41.3984H11.6748ZM12.0078 43.79L10.481 45.0819L10.5348 45.1454L10.5936 45.2043L12.0078 43.79ZM13.3096 44.335L13.7129 42.376L13.7013 42.3737L13.6896 42.3714L13.3096 44.335ZM15.3682 44.7588H17.3682V43.1286L15.7715 42.7999L15.3682 44.7588ZM15.3682 46V48H17.3682V46H15.3682ZM5.16602 46H3.16602V48H5.16602V46ZM5.16602 44.8193L4.7608 42.8608L3.16602 43.1908V44.8193H5.16602ZM6.92188 44.4561L7.32709 46.4146L7.32831 46.4143L6.92188 44.4561ZM8.8291 43.2148L6.95135 42.5263L6.94113 42.5542L6.93173 42.5824L8.8291 43.2148ZM9.16211 18.6025L11.1621 18.6025L11.1621 18.5929L9.16211 18.6025ZM7.43652 12.2451L7.50791 10.2464L7.47223 10.2451H7.43652V12.2451ZM1.80566 12.1846L-0.0917025 12.817L-0.0768544 12.8616L-0.0599322 12.9054L1.80566 12.1846ZM3.6543 11.2461C3.6543 11.1599 3.66807 11.1768 3.63669 11.2516C3.62076 11.2896 3.59623 11.3349 3.5611 11.3814C3.52589 11.428 3.4874 11.4661 3.45094 11.4951C3.37783 11.5532 3.34391 11.5507 3.40943 11.5333C3.47858 11.515 3.6218 11.4902 3.86426 11.4902V7.49023C2.91631 7.49023 1.83572 7.6696 0.962636 8.36328C0.0017992 9.12669 -0.345703 10.2146 -0.345703 11.2461H3.6543ZM3.86426 11.4902C7.53378 11.4902 9.62152 12.3986 10.7293 13.6955L13.7707 11.0975C11.5686 8.51937 8.06583 7.49023 3.86426 7.49023V11.4902ZM10.6367 13.5785L30.1328 40.1888L33.3594 37.8248L13.8633 11.2145L10.6367 13.5785ZM33.7461 39.0068V16.3623H29.7461V39.0068H33.7461ZM33.7461 16.3623C33.7461 15.3958 33.7042 14.541 33.6069 13.8231C33.5166 13.1576 33.3537 12.3972 32.9823 11.7704L29.5411 13.8096C29.4926 13.7278 29.5719 13.8353 29.6431 14.3605C29.7073 14.8334 29.7461 15.4923 29.7461 16.3623H33.7461ZM32.9823 11.7704C32.2528 10.5394 30.9777 9.97052 29.7707 9.71371L28.9383 13.6261C29.2648 13.6956 29.4451 13.7761 29.5299 13.8259C29.6042 13.8695 29.5786 13.8728 29.5411 13.8096L32.9823 11.7704ZM29.7597 9.7114L28.0038 9.34812L27.1934 13.2652L28.9493 13.6284L29.7597 9.7114ZM29.5986 11.3066V9.97461H25.5986V11.3066H29.5986ZM27.5986 11.9746H37.8613V7.97461H27.5986V11.9746ZM35.8613 9.97461V11.3672H39.8613V9.97461H35.8613ZM37.458 9.40827L35.3994 9.8321L36.206 13.7499L38.2646 13.3261L37.458 9.40827ZM35.4105 9.82985C34.9548 9.92099 34.4698 10.0599 34.0271 10.2918C33.5896 10.521 33.0399 10.9234 32.7189 11.6113L36.3436 13.3028C36.1639 13.6879 35.8968 13.828 35.8831 13.8351C35.867 13.8436 35.8808 13.8345 35.9379 13.8162C35.9938 13.7982 36.0776 13.7757 36.195 13.7522L35.4105 9.82985ZM32.7189 11.6113C32.489 12.1038 32.4174 12.6758 32.381 13.0659C32.3375 13.5311 32.3193 14.0917 32.3193 14.7275H36.3193C36.3193 14.1524 36.3364 13.7291 36.3637 13.4376C36.3772 13.2922 36.3911 13.2045 36.3997 13.1615C36.4116 13.1022 36.4042 13.173 36.3436 13.3028L32.7189 11.6113ZM32.3193 14.7275V46.8779H36.3193V14.7275H32.3193ZM34.3193 44.8779H33.0781V48.8779H34.3193V44.8779ZM34.6846 45.6866L13.3115 16.8663L10.0986 19.249L31.4717 48.0693L34.6846 45.6866ZM9.70508 18.055L9.67481 41.3958L13.6748 41.401L13.7051 18.0602L9.70508 18.055ZM9.6748 41.3984C9.6748 42.1054 9.70342 42.7415 9.77717 43.2712C9.81405 43.5361 9.86814 43.819 9.95413 44.0926C10.0323 44.3414 10.1802 44.7264 10.481 45.0819L13.5346 42.4982C13.638 42.6204 13.6966 42.7272 13.7254 42.7859C13.7553 42.8468 13.768 42.8866 13.7701 42.8933C13.7728 42.902 13.7576 42.8533 13.7389 42.7195C13.7017 42.452 13.6748 42.0235 13.6748 41.3984H9.6748ZM10.5936 45.2043C11.2717 45.8824 12.2009 46.1575 12.9295 46.2985L13.6896 42.3714C13.4673 42.3284 13.3423 42.2861 13.2872 42.263C13.262 42.2525 13.2652 42.2516 13.2877 42.2658C13.3103 42.2799 13.3604 42.3142 13.422 42.3758L10.5936 45.2043ZM12.9063 46.2939L14.9649 46.7177L15.7715 42.7999L13.7129 42.376L12.9063 46.2939ZM13.3682 44.7588V46H17.3682V44.7588H13.3682ZM15.3682 44H5.16602V48H15.3682V44ZM7.16602 46V44.8193H3.16602V46H7.16602ZM5.57123 46.7779L7.32709 46.4146L6.51666 42.4975L4.7608 42.8608L5.57123 46.7779ZM7.32831 46.4143C8.58701 46.1531 10.173 45.5078 10.7265 43.8473L6.93173 42.5824C6.96128 42.4938 7.00577 42.4185 7.05119 42.3632C7.09404 42.311 7.12282 42.2946 7.11002 42.303C7.09573 42.3123 7.04607 42.3416 6.94416 42.3796C6.84271 42.4174 6.70249 42.459 6.51544 42.4978L7.32831 46.4143ZM10.7069 43.9034C11.0676 42.9194 11.1621 41.4172 11.1621 39.7334H7.16211C7.16211 41.4806 7.03459 42.2993 6.95135 42.5263L10.7069 43.9034ZM11.1621 39.7334V18.6025H7.16211V39.7334H11.1621ZM11.1621 18.5929C11.1518 16.4476 11.0032 14.6577 10.6457 13.3408C10.4685 12.6879 10.2001 11.996 9.74969 11.4256C9.25897 10.8042 8.50319 10.2819 7.50791 10.2464L7.36514 14.2438C6.93496 14.2285 6.67491 13.9862 6.61054 13.9047C6.58644 13.8742 6.67503 13.982 6.78541 14.3886C7.00317 15.1909 7.15226 16.5596 7.16213 18.6122L11.1621 18.5929ZM7.43652 10.2451C6.45428 10.2451 5.41754 10.6169 4.45592 11.0759L6.17884 14.6858C6.55879 14.5045 6.85922 14.3883 7.08788 14.3197C7.20056 14.2859 7.28648 14.2665 7.34818 14.2559C7.41044 14.2451 7.43805 14.2451 7.43652 14.2451V10.2451ZM4.45592 11.0759C4.02402 11.282 3.71136 11.4229 3.50388 11.5083C3.39804 11.5519 3.34638 11.5699 3.33454 11.5737C3.32865 11.5756 3.35483 11.5668 3.4034 11.5558C3.43295 11.5491 3.57525 11.5166 3.77344 11.5166V15.5166C4.15798 15.5166 4.48796 15.4047 4.56426 15.38C4.7164 15.3309 4.8754 15.2694 5.02688 15.207C5.33405 15.0805 5.72273 14.9035 6.17884 14.6858L4.45592 11.0759ZM3.77344 11.5166C3.68324 11.5166 3.64055 11.5062 3.63278 11.5041C3.62786 11.5028 3.64721 11.5078 3.67606 11.5274C3.68921 11.5363 3.70045 11.5456 3.70921 11.554C3.71787 11.5623 3.7218 11.5675 3.72164 11.5673C3.72131 11.5669 3.70019 11.5386 3.67126 11.4638L-0.0599322 12.9054C0.228361 13.6515 0.704731 14.3463 1.4338 14.8398C2.1602 15.3315 2.97947 15.5166 3.77344 15.5166V11.5166ZM3.70303 11.5521C3.67092 11.4558 3.6543 11.3567 3.6543 11.2461H-0.345703C-0.345703 11.7814 -0.261411 12.3079 -0.0917025 12.817L3.70303 11.5521Z" fill="#FF8E8E"/>
</g>
</svg>
