<svg width="72" height="72" viewBox="0 0 72 72" fill="none" xmlns="http://www.w3.org/2000/svg">
<g id="birthday-cake-cake-svgrepo-com 3" clip-path="url(#clip0_345_792)">
<path id="Vector" d="M62.3421 42.6313H9.65686V65.6214H62.3421V42.6313Z" fill="#EC589B"/>
<path id="Vector_2" d="M16.5089 42.6313V65.6214H9.65723V42.6313" fill="#D3468D"/>
<path id="Vector_3" d="M62.3424 49.8708V61.2111H9.65723V49.8708" fill="#F4C063"/>
<path id="Vector_4" d="M16.5089 49.8708V61.2111H9.65723V49.8708" fill="#D5A03C"/>
<path id="Vector_5" d="M62.3424 58.1396V65.6214H9.65723V58.1396" fill="#B7744F"/>
<path id="Vector_6" d="M16.5089 58.1396V65.6214H9.65723V58.1396" fill="#A46141"/>
<path id="Vector_7" d="M62.3424 42.6313V46.273C61.0871 47.5189 59.5025 48.4435 57.6959 48.8891C57.1053 49.0357 56.4248 49.1223 55.6073 49.1223C50.7057 49.1223 50.7057 45.9722 45.8024 45.9722C40.9008 45.9722 40.9008 49.1223 35.9991 49.1223C31.0957 49.1223 31.0957 45.9722 26.1941 45.9722C21.2925 45.9722 21.2925 49.1223 16.3908 49.1223C13.8501 49.1223 12.6262 48.2764 11.3536 47.4621C10.7346 47.0651 10.1676 46.6099 9.65723 46.1013V42.6313H62.3424Z" fill="#D3468D"/>
<path id="Vector_8" d="M65.413 34.9707C65.413 39.6752 62.2632 43.8626 57.6962 44.9912C57.106 45.1371 56.4253 45.2245 55.6081 45.2245C50.7056 45.2245 50.7056 42.0744 45.8032 42.0744C40.9008 42.0744 40.9008 45.2245 35.9987 45.2245C31.0965 45.2245 31.0965 42.0744 26.1943 42.0744C21.2924 42.0744 21.2924 45.2245 16.3905 45.2245C13.85 45.2245 12.6263 44.3785 11.3543 43.5633C8.38222 41.6586 6.5863 38.3698 6.5863 34.8397C6.5863 33.7072 6.5863 32.5825 6.5863 31.5842C6.5863 29.636 8.16566 28.0566 10.1139 28.0566H61.8853C63.8335 28.0566 65.4129 29.636 65.4129 31.5842V34.9707H65.413Z" fill="#F9DCA4"/>
<path id="Vector_9" d="M18.4419 43.5633C15.4698 41.6584 13.6739 38.3698 13.6739 34.8397C13.6739 33.7072 13.6739 32.5825 13.6739 31.5842C13.6739 29.636 15.2533 28.0566 17.2015 28.0566H10.114C8.16578 28.0566 6.58643 29.6359 6.58643 31.5842C6.58643 32.5825 6.58643 33.7071 6.58643 34.8397C6.58643 38.3698 8.38234 41.6584 11.3544 43.5633C12.6264 44.3784 13.8501 45.2245 16.3906 45.2245C17.9725 45.2245 19.043 44.8958 19.9334 44.4514C19.3942 44.1822 18.9213 43.8707 18.4419 43.5633Z" fill="#E7C080"/>
<path id="Vector_10" d="M57.8201 70.8184H14.1799C11.2489 70.8184 8.4721 69.5047 6.61346 67.2383L5.28723 65.6211H66.713L65.3867 67.2383C63.5279 69.5047 60.7512 70.8184 57.8201 70.8184Z" fill="#E9F1DF"/>
<path id="Vector_11" d="M16.0635 67.2383L14.7372 65.6211H5.28711L6.61334 67.2383C8.47212 69.5047 11.2489 70.8184 14.1798 70.8184H23.6299C20.6989 70.8184 17.9222 69.5047 16.0635 67.2383Z" fill="#C9BBBB"/>
<path id="Vector_12" d="M25.4864 12.9377H21.2338V28.0586H25.4864V12.9377Z" fill="#EAA0E3"/>
<path id="Vector_13" d="M25.7825 3.60341L23.3603 1.18115L20.938 3.60341C19.6003 4.94118 19.6003 7.11017 20.938 8.44808C22.2758 9.78584 24.4448 9.78584 25.7827 8.44808C27.1203 7.11031 27.1203 4.94118 25.7825 3.60341Z" fill="#F4C063"/>
<path id="Vector_14" d="M39.426 12.9377H35.1733V28.0586H39.426V12.9377Z" fill="#EAA0E3"/>
<path id="Vector_15" d="M39.7214 3.60341L37.299 1.18115L34.8766 3.60341C33.5389 4.94118 33.5389 7.11017 34.8766 8.44808C36.2144 9.78584 38.3834 9.78584 39.7213 8.44808C41.0592 7.11031 41.0592 4.94118 39.7214 3.60341Z" fill="#F4C063"/>
<path id="Vector_16" d="M53.3638 12.9377H49.1112V28.0586H53.3638V12.9377Z" fill="#EAA0E3"/>
<path id="Vector_17" d="M53.6603 3.60341L51.2381 1.18115L48.8158 3.60341C47.4781 4.94118 47.4781 7.11017 48.8158 8.44808C50.1536 9.78584 52.3226 9.78584 53.6605 8.44808C54.9981 7.11031 54.9981 4.94118 53.6603 3.60341Z" fill="#F4C063"/>
<path id="Vector_18" d="M67.7807 65.1161C67.5854 64.7032 67.1696 64.4401 66.713 64.4401H63.5239V42.8639C65.4466 40.7888 66.5944 37.9984 66.5944 34.9708V31.5847C66.5944 28.9882 64.4821 26.8758 61.8856 26.8758H54.5455V12.9371C54.5455 12.2847 54.0167 11.7559 53.3642 11.7559H49.1115C48.4592 11.7559 47.9301 12.2847 47.9301 12.9371V26.8758H40.6064V12.9371C40.6064 12.2847 40.0775 11.7559 39.4252 11.7559H35.1725C34.5202 11.7559 33.9913 12.2847 33.9913 12.9371V26.8758H26.6677V12.9371C26.6677 12.2847 26.1388 11.7559 25.4864 11.7559H21.2338C20.5814 11.7559 20.0525 12.2847 20.0525 12.9371V17.9772C20.0525 18.6296 20.5814 19.1585 21.2338 19.1585C21.8862 19.1585 22.415 18.6296 22.415 17.9772V14.1185H24.305V26.876H22.415V21.9149C22.415 21.2625 21.8862 20.7336 21.2338 20.7336C20.5814 20.7336 20.0525 21.2625 20.0525 21.9149V26.876H10.114C7.51754 26.876 5.40522 28.9883 5.40522 31.5848V34.84C5.40522 37.8011 6.51939 40.5824 8.47618 42.6878V64.4401H5.28709C4.83048 64.4401 4.41466 64.7033 4.21933 65.1161C4.024 65.5289 4.08419 66.0173 4.37373 66.3704L5.69997 67.9876C7.7912 70.5376 10.882 72.0001 14.1799 72.0001H57.8201C61.1179 72.0001 64.2087 70.5376 66.2999 67.9876L67.6262 66.3704C67.9159 66.0173 67.9761 65.5289 67.7807 65.1161ZM50.2931 14.1184H52.183V26.8758H50.2931V14.1184ZM36.3542 14.1184H38.2442V26.8758H36.3542V14.1184ZM7.76771 31.5847C7.76771 30.2909 8.82015 29.2385 10.114 29.2385H61.8855C63.1792 29.2385 64.2316 30.291 64.2316 31.5847V34.9708C64.2316 39.2033 61.4274 42.8523 57.4127 43.8445C56.8712 43.9782 56.2809 44.0433 55.608 44.0433C53.5037 44.0433 52.5028 43.4002 51.3441 42.6556C50.0584 41.8294 48.6011 40.893 45.8029 40.893C43.0049 40.893 41.5476 41.8294 40.262 42.6556C39.1034 43.4002 38.1027 44.0433 35.9984 44.0433C33.8942 44.0433 32.8936 43.4002 31.7349 42.6556C30.4492 41.8294 28.9921 40.893 26.1942 40.893C25.5418 40.893 25.0129 41.4219 25.0129 42.0743C25.0129 42.7266 25.5418 43.2557 26.1942 43.2557C28.2984 43.2557 29.299 43.8987 30.4577 44.6433C31.7434 45.4695 33.2005 46.4059 35.9986 46.4059C38.7966 46.4059 40.2539 45.4695 41.5394 44.6433C42.6981 43.8987 43.6987 43.2557 45.803 43.2557C47.9075 43.2557 48.9082 43.8987 50.0669 44.6433C51.3527 45.4697 52.81 46.4059 55.608 46.4059C56.4742 46.4059 57.25 46.3183 57.9795 46.138C59.1263 45.8547 60.1939 45.3991 61.1611 44.8044V48.6893H10.8387V44.636L10.8495 44.6429C12.1352 45.4692 13.5925 46.4057 16.3905 46.4057C19.1884 46.4057 20.6454 45.4692 21.931 44.6429L21.9611 44.6235C22.51 44.2708 22.6692 43.54 22.3163 42.9911C21.9636 42.4423 21.2328 42.2831 20.684 42.6359L20.6537 42.6555C19.4951 43.4001 18.4946 44.0432 16.3904 44.0432C14.2861 44.0432 13.2854 43.4001 12.1268 42.6553L11.9917 42.5686C9.34679 40.8735 7.76771 37.9841 7.76771 34.8395V31.5847ZM10.8387 59.3211H47.9304C48.5828 59.3211 49.1118 58.7922 49.1118 58.1398C49.1118 57.4874 48.5829 56.9584 47.9304 56.9584H10.8387V51.0522H61.1612V56.9584H51.8682C51.2158 56.9584 50.6869 57.4873 50.6869 58.1398C50.6869 58.7923 51.2158 59.3211 51.8682 59.3211H61.1612V64.4401H10.8387V59.3211ZM57.8201 69.6373H14.1799C11.7309 69.6373 9.42722 68.6092 7.79654 66.8026H64.2037C62.5728 68.6092 60.2693 69.6373 57.8201 69.6373Z" fill="black"/>
<path id="Vector_19" d="M23.3603 10.6307C24.54 10.6307 25.7198 10.1817 26.6179 9.28355C28.4141 7.48735 28.4141 4.56461 26.6179 2.76841L24.1956 0.346286C23.7342 -0.115103 22.9862 -0.115103 22.5251 0.346286L20.1029 2.76855C19.2328 3.63859 18.7534 4.79551 18.7534 6.02612C18.7534 7.25673 19.2325 8.41365 20.1029 9.28369C21.0007 10.1817 22.1806 10.6307 23.3603 10.6307ZM21.7732 4.43903L23.3603 2.85194L24.9474 4.43903C25.8223 5.31414 25.8223 6.73782 24.9474 7.61293C24.0723 8.48804 22.6484 8.48804 21.7735 7.61293C21.3496 7.18909 21.1162 6.62532 21.1162 6.02584C21.1159 5.4265 21.3494 4.86301 21.7732 4.43903Z" fill="black"/>
<path id="Vector_20" d="M37.2991 10.6307C38.4788 10.6307 39.6587 10.1817 40.5567 9.28355C42.3529 7.48735 42.3529 4.56461 40.5567 2.76841L38.1344 0.346286C37.673 -0.115103 36.9251 -0.115103 36.464 0.346286L34.0417 2.76855C33.1716 3.63859 32.6923 4.79551 32.6923 6.02612C32.6923 7.25673 33.1714 8.41365 34.0417 9.28369C34.9397 10.1817 36.1193 10.6307 37.2991 10.6307ZM35.7122 4.43903L37.2993 2.85194L38.8864 4.43903C39.7613 5.31414 39.7613 6.73782 38.8864 7.61293C38.0113 8.48804 36.5874 8.48804 35.7125 7.61293C35.2886 7.18909 35.0552 6.62532 35.0552 6.02584C35.0546 5.4265 35.2881 4.86301 35.7122 4.43903Z" fill="black"/>
<path id="Vector_21" d="M51.238 10.6307C52.4177 10.6307 53.5975 10.1817 54.4956 9.28355C56.2918 7.48735 56.2918 4.56461 54.4956 2.76841L52.0732 0.346286C51.6118 -0.115103 50.8638 -0.115103 50.4027 0.346286L47.9803 2.76841C47.1103 3.63845 46.6309 4.79537 46.6309 6.02598C46.6309 7.25659 47.11 8.41351 47.9803 9.28355C48.8785 10.1817 50.0582 10.6307 51.238 10.6307ZM49.6509 4.43903L51.238 2.85208L52.8251 4.43917C53.7001 5.31428 53.7001 6.73796 52.8251 7.61307C52.4013 8.03691 51.8375 8.27035 51.2381 8.27035C50.6387 8.27035 50.075 8.03691 49.6511 7.61307C49.2271 7.18923 48.9938 6.62546 48.9938 6.02598C48.9936 5.4265 49.2271 4.86301 49.6509 4.43903Z" fill="black"/>
</g>
<defs>
<clipPath id="clip0_345_792">
<rect width="72" height="72" fill="white"/>
</clipPath>
</defs>
</svg>
