<svg width="72" height="72" viewBox="0 0 72 72" fill="none" xmlns="http://www.w3.org/2000/svg">
<g id="cake-svgrepo-com (7) 3">
<path id="Vector" d="M13.2632 6.44214H23.8738C30.571 6.44214 36.0001 11.8712 36.0001 18.5685V29.1791H25.3896C18.6923 29.1791 13.2632 23.75 13.2632 17.0527V6.44214Z" fill="#78B918"/>
<path id="Vector_2" d="M36 28.421V31.4526H25.3894V29.1789C18.6922 29.1789 13.2631 23.7498 13.2631 17.0526V6.44214L35.242 28.4211H36V28.421Z" fill="#009175"/>
<path id="Vector_3" d="M70.8632 38.2737C70.8632 43.2966 66.7913 47.3685 61.7684 47.3685H10.2316C5.20878 47.3685 1.13684 43.2966 1.13684 38.2737C1.13684 33.2509 5.20864 29.179 10.2316 29.179H61.7684C66.7913 29.1791 70.8632 33.2509 70.8632 38.2737Z" fill="#F2385A"/>
<path id="Vector_4" d="M10.2316 47.3685C5.20878 47.3685 1.13684 43.2966 1.13684 38.2737C1.13684 33.2509 5.20864 29.179 10.2316 29.179V47.3685Z" fill="#A51356"/>
<path id="Vector_5" d="M64.0421 31.4526C64.0421 32.7082 63.0241 33.7262 61.7684 33.7262H10.2316C8.97599 33.7262 7.95801 32.7082 7.95801 31.4526C7.95801 30.1969 8.97599 29.179 10.2316 29.179H61.7684C63.0241 29.179 64.0421 30.1969 64.0421 31.4526Z" fill="#FF7C6E"/>
<path id="Vector_6" d="M66.3158 47.3684L63.2842 59.4947V64.0421H8.7158V59.4947L5.6842 47.3684C5.6842 44.0198 8.39883 41.3052 11.7474 41.3052C15.096 41.3052 17.8106 44.0198 17.8106 47.3684C17.8106 44.0198 20.5252 41.3052 23.8738 41.3052C27.2223 41.3052 29.937 44.0198 29.937 47.3684C29.937 44.0198 32.6516 41.3052 36.0001 41.3052C39.3487 41.3052 42.0633 44.0198 42.0633 47.3684C42.0633 44.0198 44.778 41.3052 48.1265 41.3052C51.4751 41.3052 54.1897 44.0198 54.1897 47.3684C54.1897 44.0198 56.9043 41.3052 60.2529 41.3052C63.6012 41.3052 66.3158 44.0198 66.3158 47.3684Z" fill="#D28A4D"/>
<path id="Vector_7" d="M29.9368 47.3684V62.5262H17.8104V47.3684C17.8104 44.0198 20.5251 41.3052 23.8736 41.3052C27.2222 41.3052 29.9368 44.0198 29.9368 47.3684ZM48.1264 41.3052C44.7778 41.3052 42.0632 44.0198 42.0632 47.3684V62.5262H54.1895V47.3684C54.1894 44.0198 51.4748 41.3052 48.1264 41.3052Z" fill="#E0A379"/>
<path id="Vector_8" d="M10.2316 47.3683L13.2632 59.4947V64.0421H8.7158V59.4947L5.6842 47.3683C5.6842 44.5432 7.61653 42.1693 10.2316 41.4961V47.3683Z" fill="#B45330"/>
<path id="Vector_9" d="M36 32.2107C33.07 32.2107 30.6948 29.8354 30.6948 26.9055C30.6948 23.9755 33.07 21.6001 36 21.6001C38.9301 21.6001 41.3053 23.9754 41.3053 26.9053C41.3053 29.8352 38.9301 32.2107 36 32.2107Z" fill="#A51356"/>
<path id="Vector_10" d="M41.3052 26.9053C41.3052 28.8687 40.2377 30.5817 38.6526 31.4991C37.0675 30.5818 36 28.8687 36 26.9053C36 24.9419 37.0675 23.229 38.6526 22.3115C40.2379 23.229 41.3052 24.9419 41.3052 26.9053Z" fill="#F2385A"/>
<path id="Vector_11" d="M1.13684 59.4949H70.8632C70.8632 63.6806 67.4699 67.0739 63.2842 67.0739H8.71583C4.53012 67.0737 1.13684 63.6806 1.13684 59.4949Z" fill="#E9F1DF"/>
<path id="Vector_12" d="M7.20003 59.4949C7.20003 63.6806 10.5933 67.0739 14.779 67.0739H8.71583C4.53012 67.0739 1.13684 63.6806 1.13684 59.4949H7.20003Z" fill="#D4DBCA"/>
<path id="Vector_13" d="M70.8632 57.6001H64.7401L67.0695 48.2827C67.247 47.5726 67.3142 46.8512 67.2754 46.1402C70.2011 44.2677 72 41.0045 72 37.5159C72 31.8742 67.4101 27.2843 61.7684 27.2843C61.1404 27.2843 60.6316 27.7931 60.6316 28.4211C60.6316 29.0492 61.1404 29.5579 61.7684 29.5579C66.1563 29.5579 69.7262 33.128 69.7262 37.5158C69.7262 39.9515 68.5987 42.2461 66.7215 43.7442C66.4955 43.2095 66.203 42.6979 65.8461 42.2215C64.5753 40.524 62.6444 39.5015 60.5492 39.4166C60.451 39.4127 60.3522 39.4107 60.2527 39.4107C57.7101 39.4107 55.4711 40.7357 54.1896 42.7311C52.908 40.7357 50.669 39.4107 48.1264 39.4107C45.5837 39.4107 43.3447 40.7357 42.0632 42.7311C40.7817 40.7357 38.5426 39.4107 36 39.4107C33.4574 39.4107 31.2183 40.7357 29.9368 42.7311C28.6553 40.7357 26.4163 39.4107 23.8736 39.4107C21.331 39.4107 19.092 40.7357 17.8104 42.7311C16.5288 40.7357 14.2898 39.4107 11.7471 39.4107C11.6478 39.4107 11.5488 39.4127 11.4511 39.4166C9.35522 39.5017 7.42444 40.524 6.15361 42.2215C5.79684 42.6981 5.5042 43.2097 5.27822 43.7442C3.40116 42.2461 2.27348 39.9514 2.27348 37.5158C2.27348 33.1279 5.84325 29.5579 10.2313 29.5579H26.9049C27.5328 29.5579 28.0418 29.0492 28.0418 28.4211C28.0418 27.7931 27.5327 27.2843 26.9049 27.2843H25.3891C19.3295 27.2843 14.3997 22.3546 14.3997 16.2949V6.82113H23.8733C29.933 6.82113 34.8628 11.7509 34.8628 17.8106V19.8057C33.0927 20.1223 31.5707 21.164 30.6167 22.6116L20.1572 11.4049C19.7287 10.9458 19.0094 10.9212 18.5503 11.3497C18.0913 11.778 18.0665 12.4973 18.495 12.9565L29.6724 24.9322C29.5969 25.3258 29.5575 25.7321 29.5575 26.1474C29.5575 29.6996 32.4474 32.5895 35.9997 32.5895C38.3003 32.5895 40.3232 31.3772 41.4631 29.5579H57.2209C57.8489 29.5579 58.3577 29.0492 58.3577 28.4211C58.3577 27.7931 57.8489 27.2843 57.2209 27.2843H42.3416C42.4077 26.915 42.4422 26.5353 42.4422 26.1475C42.4422 22.9832 40.1487 20.3445 37.137 19.8059V9.47374C37.137 8.0111 38.3271 6.82113 39.7896 6.82113C41.2521 6.82113 42.4422 8.01124 42.4422 9.47374C42.4422 10.1018 42.951 10.6106 43.579 10.6106C44.207 10.6106 44.7158 10.1018 44.7158 9.47374C44.7158 6.75728 42.5059 4.54736 39.7894 4.54736C37.073 4.54736 34.863 6.75728 34.863 9.47374V10.3922C32.4765 6.86824 28.4408 4.54736 23.8736 4.54736H13.2632C12.6353 4.54736 12.1264 5.05614 12.1264 5.68418V16.2948C12.1264 20.862 14.4472 24.8976 17.9712 27.2842H10.2316C4.58986 27.2843 0 31.8742 0 37.5159C0 41.0045 1.79888 44.2677 4.7243 46.1402C4.68563 46.8512 4.75284 47.5726 4.93031 48.2827L7.25977 57.6001H1.13681C0.509062 57.6001 0 58.1089 0 58.7369C0 63.5429 3.9098 67.4527 8.7158 67.4527H63.2842C68.0902 67.4527 72 63.5429 72 58.7369C72 58.1089 71.4912 57.6001 70.8632 57.6001ZM36 21.9791C38.2984 21.9791 40.1684 23.8491 40.1684 26.1475C40.1684 28.4459 38.2984 30.3159 36 30.3159C33.7015 30.3159 31.8316 28.4459 31.8316 26.1475C31.8316 23.8491 33.7015 21.9791 36 21.9791ZM63.2842 65.1791H8.7158C5.55145 65.1791 2.91262 62.8856 2.37417 59.8739H8.69034C8.70638 59.874 8.72297 59.874 8.73956 59.8739H17.8104C18.4383 59.8739 18.9472 59.3651 18.9472 58.7371C18.9472 58.109 18.4382 57.6003 17.8104 57.6003H9.60342L7.13616 47.7315C6.77559 46.2888 7.08089 44.7774 7.974 43.5846C8.83322 42.4369 10.1343 41.7459 11.5442 41.6888C11.6117 41.686 11.6793 41.6846 11.7474 41.6846C14.4637 41.6846 16.6738 43.8945 16.6738 46.611V54.19C16.6738 54.818 17.1828 55.3268 17.8106 55.3268C18.4383 55.3268 18.9474 54.818 18.9474 54.19V46.611C18.9474 43.8945 21.1575 41.6846 23.8738 41.6846C26.5901 41.6846 28.8001 43.8945 28.8001 46.611V54.19C28.8001 54.818 29.3092 55.3268 29.937 55.3268C30.5648 55.3268 31.0738 54.818 31.0738 54.19V46.611C31.0738 43.8945 33.2838 41.6846 36.0001 41.6846C38.7166 41.6846 40.9265 43.8945 40.9265 46.611V54.19C40.9265 54.818 41.4353 55.3268 42.0633 55.3268C42.6914 55.3268 43.2001 54.818 43.2001 54.19V46.611C43.2001 43.8945 45.4101 41.6846 48.1265 41.6846C50.843 41.6846 53.0529 43.8945 53.0529 46.611V54.19C53.0529 54.818 53.5617 55.3268 54.1897 55.3268C54.8177 55.3268 55.3265 54.818 55.3265 54.19V46.611C55.3265 43.8945 57.5364 41.6846 60.2529 41.6846C60.321 41.6846 60.3887 41.686 60.4568 41.6887C61.8661 41.7458 63.1672 42.4367 64.0263 43.5843C64.9195 44.7772 65.2248 46.2888 64.8641 47.7313L62.3967 57.6001H22.358C21.7301 57.6001 21.2212 58.1089 21.2212 58.7369C21.2212 59.365 21.7302 59.8737 22.358 59.8737H63.2604C63.2767 59.874 63.2933 59.874 63.3097 59.8737H69.6258C69.0872 62.8856 66.4485 65.1791 63.2842 65.1791Z" fill="black"/>
</g>
</svg>
