<svg width="72" height="72" viewBox="0 0 72 72" fill="none" xmlns="http://www.w3.org/2000/svg">
<g clip-path="url(#clip0_345_882)">
<path d="M39.1462 25.7347H33.0294V12.7372C33.0294 12.2365 33.4354 11.8306 33.936 11.8306H38.2394C38.74 11.8306 39.146 12.2365 39.146 12.7372L39.1462 25.7347Z" fill="#EAA0E3"/>
<path d="M38.6535 5.51331C38.6535 6.93038 37.5048 8.07915 36.0877 8.07915C34.6706 8.07915 33.5219 6.93038 33.5219 5.51331C33.5219 4.09623 36.0877 1.31299 36.0877 1.31299C36.0877 1.31299 38.6535 4.09609 38.6535 5.51331Z" fill="#F4C063"/>
<path d="M55.7556 51.0982C57.7896 51.0982 59.4383 49.4494 59.4383 47.4155C59.4383 34.4709 48.9446 23.9773 36.0001 23.9773C23.0556 23.9773 12.5619 34.4709 12.5619 47.4154C12.5619 49.4494 14.2107 51.098 16.2446 51.098L55.7556 51.0982Z" fill="#EDA156"/>
<path d="M56.6549 36.3291C52.6999 28.9761 44.9342 23.9771 36 23.9771C26.0958 23.9771 17.6264 30.1204 14.1942 38.8045C15.3029 39.9135 16.1651 40.2951 17.4438 40.2269C20.8151 40.0472 21.7609 34.5557 25.2338 34.3625C29.0682 34.1491 30.522 40.6976 34.4243 40.5771C38.3017 40.4571 39.6263 33.907 43.0022 34.1875C45.9069 34.4287 46.3465 39.3964 49.5668 40.1395C51.8878 40.6747 54.4445 38.7377 56.6549 36.3291Z" fill="#F9DE8F"/>
<path d="M36.0001 23.9771C34.5351 23.9771 33.1018 24.1128 31.7112 24.3698C42.6073 26.385 50.8606 35.9358 50.8606 47.4151C50.8606 49.4491 49.2118 51.0978 47.1778 51.0978H55.7556C57.7896 51.0978 59.4384 49.449 59.4384 47.4151C59.4384 34.4707 48.9446 23.9771 36.0001 23.9771Z" fill="#DD8E40"/>
<path d="M36.0001 23.9771C34.5355 23.9771 33.1034 24.1146 31.7131 24.3716C38.1317 25.5596 43.6332 29.361 47.0701 34.6327C47.7129 35.6187 47.5504 36.9349 46.6825 37.7299L46.6682 37.7429C47.4101 38.8387 48.2593 39.8374 49.5673 40.1392C51.888 40.6747 54.4447 38.7379 56.655 36.3291C52.7 28.9761 44.9342 23.9771 36.0001 23.9771Z" fill="#F7CF6D"/>
<path d="M20.5476 70.6867L16.6932 51.0981H55.4469L51.5924 70.6867H20.5476Z" fill="#E9F1DF"/>
<path d="M26.5199 70.6867L24.144 51.0981H48.0314L45.6555 70.6867H26.5199Z" fill="#D4DBCA"/>
<path d="M32.722 70.6867L31.8862 51.0981H40.2893L39.4532 70.6867H32.722Z" fill="#E9F1DF"/>
<path d="M54.7753 54.5118L55.4469 51.0981H16.6932L17.365 54.5118H54.7753Z" fill="#D4DBCA"/>
<path d="M17.6847 38.2972C18.2327 38.2972 18.6768 37.853 18.6768 37.3051C18.6768 36.7572 18.2327 36.313 17.6847 36.313C17.1368 36.313 16.6926 36.7572 16.6926 37.3051C16.6926 37.853 17.1368 38.2972 17.6847 38.2972Z" fill="#F7CF6D"/>
<path d="M33.7253 38.2972C34.2732 38.2972 34.7174 37.853 34.7174 37.3051C34.7174 36.7572 34.2732 36.313 33.7253 36.313C33.1773 36.313 32.7332 36.7572 32.7332 37.3051C32.7332 37.853 33.1773 38.2972 33.7253 38.2972Z" fill="#F7CF6D"/>
<path d="M39.1469 33.0943C39.6948 33.0943 40.139 32.6501 40.139 32.1022C40.139 31.5543 39.6948 31.1101 39.1469 31.1101C38.599 31.1101 38.1548 31.5543 38.1548 32.1022C38.1548 32.6501 38.599 33.0943 39.1469 33.0943Z" fill="#F7CF6D"/>
<path d="M33.4767 28.9823C34.0247 28.9823 34.4688 28.5381 34.4688 27.9902C34.4688 27.4422 34.0247 26.998 33.4767 26.998C32.9288 26.998 32.4846 27.4422 32.4846 27.9902C32.4846 28.5381 32.9288 28.9823 33.4767 28.9823Z" fill="#F7CF6D"/>
<path d="M31.4915 33.7105C32.0394 33.7105 32.4836 33.2664 32.4836 32.7184C32.4836 32.1705 32.0394 31.7263 31.4915 31.7263C30.9436 31.7263 30.4994 32.1705 30.4994 32.7184C30.4994 33.2664 30.9436 33.7105 31.4915 33.7105Z" fill="#F7CF6D"/>
<path d="M27.0607 29.973C27.6086 29.973 28.0528 29.5288 28.0528 28.9809C28.0528 28.433 27.6086 27.9888 27.0607 27.9888C26.5128 27.9888 26.0686 28.433 26.0686 28.9809C26.0686 29.5288 26.5128 29.973 27.0607 29.973Z" fill="#F7CF6D"/>
<path d="M21.9071 33.7105C22.4551 33.7105 22.8993 33.2664 22.8993 32.7184C22.8993 32.1705 22.4551 31.7263 21.9071 31.7263C21.3592 31.7263 20.915 32.1705 20.915 32.7184C20.915 33.2664 21.3592 33.7105 21.9071 33.7105Z" fill="#F7CF6D"/>
<path d="M60.7514 47.4153C60.7514 35.2894 51.9861 25.1731 40.4589 23.0674V11.8308C40.4589 11.1057 39.8713 10.5179 39.1461 10.5179H37.4005V9.8405V9.16311C38.8949 8.62381 39.9663 7.19155 39.9663 5.51347C39.9663 3.7717 37.9288 1.37348 37.0529 0.42314C36.8044 0.153281 36.4544 0 36.0876 0C35.7209 0 35.3707 0.153281 35.1222 0.42314C34.2463 1.37334 32.2088 3.77141 32.2088 5.51347C32.2088 7.19155 33.2802 8.62395 34.7746 9.16311V9.8405V10.5179H33.029C32.3038 10.5179 31.7162 11.1057 31.7162 11.8308V23.0367C28.4832 23.6016 25.3906 24.8032 22.6093 26.5958C21.9997 26.9886 21.8242 27.8011 22.2168 28.4106C22.6099 29.0202 23.4227 29.1957 24.0316 28.8029C27.5978 26.5047 31.7366 25.2898 36 25.2898C48.2001 25.2898 58.1255 35.2152 58.1255 47.415C58.1255 48.7218 57.0624 49.7849 55.7555 49.7849C55.7035 49.7849 55.6526 49.7887 55.6021 49.7945C55.5511 49.7883 16.6932 49.7849 16.6932 49.7849C16.6181 49.7849 16.3221 49.7849 16.2445 49.7849C14.9377 49.7849 13.8745 48.7218 13.8745 47.415C13.8745 43.8249 14.7534 40.2609 16.4166 37.1083C16.755 36.4669 16.5093 35.6728 15.8678 35.3345C15.5065 35.144 15.0968 35.1388 14.7474 35.2851C14.4764 35.3986 14.2417 35.6033 14.0939 35.8834C12.2325 39.4122 11.2487 43.3999 11.2487 47.4153C11.2487 49.9531 13.1513 52.0535 15.6049 52.3688L19.2592 70.9405C19.3803 71.556 19.92 72 20.5475 72H51.5921C52.2195 72 52.7591 71.556 52.8802 70.9405L56.5385 52.3494C58.9228 51.9719 60.7514 49.9035 60.7514 47.4153ZM36.088 3.35488C36.7943 4.2771 37.3219 5.16205 37.3404 5.51586C37.339 6.20563 36.7777 6.76644 36.0876 6.76644C35.3969 6.76644 34.8348 6.20436 34.8348 5.51699C34.852 5.16543 35.3807 4.27935 36.088 3.35488ZM34.3422 22.6641V13.1438H37.8331V22.6643L34.3422 22.6641ZM18.2896 52.411H22.9631L25.0206 69.3738H21.6276L18.2896 52.411ZM25.6083 52.411H30.6106L31.3344 69.3738H27.6656L25.6083 52.411ZM33.9625 69.374L33.2388 52.4111H38.9015L38.1779 69.374H33.9625ZM40.8059 69.374L41.5297 52.4111H46.532L44.4745 69.374H40.8059ZM50.5128 69.374H47.1198L49.1773 52.4111H53.8506L50.5128 69.374Z" fill="black"/>
<path d="M17.2473 41.697C19.5238 41.5755 20.8669 39.8295 22.0518 38.289C23.1971 36.8003 23.9695 35.892 25.0403 35.8324C26.2156 35.7676 27.1429 36.7732 28.531 38.4376C29.9451 40.1334 31.5441 42.0508 34.0454 42.0507C34.0961 42.0507 34.147 42.05 34.1983 42.0484C36.7861 41.9683 38.3484 39.9264 39.7267 38.1247C40.9047 36.5853 41.747 35.5818 42.6269 35.6548C43.3797 35.7172 43.9487 36.5241 44.7961 37.8454C45.7221 39.2894 46.8746 41.0861 49.0051 41.5776C49.7116 41.7405 50.4165 41.3 50.5795 40.5934C50.7427 39.8869 50.3021 39.1819 49.5956 39.0187C48.5074 38.7677 47.7783 37.6308 47.0063 36.4272C46.0396 34.9202 44.9439 33.212 42.8445 33.0376C40.463 32.8391 38.9641 34.7996 37.6412 36.5286C36.5187 37.9959 35.4583 39.3818 34.1173 39.4232C32.8882 39.4647 31.9531 38.4404 30.5475 36.7553C29.1057 35.0265 27.4739 33.067 24.8941 33.21C22.5447 33.3408 21.1772 35.1187 19.9703 36.6874C18.8553 38.1368 18.1063 39.0209 17.1072 39.0744C16.383 39.113 15.8274 39.7312 15.866 40.4554C15.9047 41.1801 16.5254 41.7351 17.2473 41.697Z" fill="black"/>
</g>
<defs>
<clipPath id="clip0_345_882">
<rect width="72" height="72" fill="white"/>
</clipPath>
</defs>
</svg>
