<svg width="72" height="72" viewBox="0 0 72 72" fill="none" xmlns="http://www.w3.org/2000/svg">
<g clip-path="url(#clip0_345_1051)">
<path d="M45.5 64C44.1043 64.0766 43.5669 64.1555 44 64.5L47.5 67.5L50.5 69.5C52.3119 70.4207 53.4165 70.5289 55.5 70C57.1614 69.3065 58.0311 68.85 59.5 68C61.1027 66.0507 61.3643 65.074 61 63.5L60 59C59.2533 56.7516 58.3247 56.164 56 56H52.5C51.9262 56.1076 51.8731 56.3681 52 57C52.2568 58.2497 52.6645 59.2305 52 59.5C51.3162 59.8794 50.8746 59.982 50 60H48.5C48.0186 60.0514 47.8972 60.2579 48 61C48.3734 62.3974 48.7551 63.3754 48 63.5C47.131 63.8951 46.589 64.0193 45.5 64Z" fill="#B7744F"/>
<path d="M18.5 57.5C17.7629 55.3693 17.4616 55.169 17 55.5L14 57C13.2 57.4 12.3334 58.8333 12 59.5C10.64 62.3918 10.3856 63.862 11.5 66C12.3137 67.7189 13.0113 68.5276 15 69.5C17.5949 70.3091 19.1219 70.3626 22 69.5L26.5 65.5C26.1369 64.9055 25.9985 64.5732 26 64C25.876 62.433 25.6889 61.8956 25 62H23C22.2482 61.9902 22.0081 61.8985 22 61.5V60L22 59.9556C22.0001 58.9743 22.0002 58.1247 21.5 58C19.3178 58.0317 18.4163 57.9786 18.5 57.5Z" fill="#B7744F"/>
<path d="M47 11C46.672 6.03703 44.7761 3.79274 36 1.5C28.5529 2.84863 26.5698 5.24742 25 11C23.8906 15.9683 24.7444 18.3155 28 22V24.5H21L20 25L18.5 26L18 27L18.5 29L17.5 30.5L16 31L15.5 32L16.5 33.5V35L15.5 36C15.1 36.4 14.3333 36.8333 14 37L18 38C20.3037 38.5415 21.6722 39.2463 24.5 42.5C24.8922 44.6495 24.9306 45.8492 24.5 48C23.822 49.2675 23.2239 50.0722 21 52C19.1616 53.1464 18.3728 53.8672 17.5 55.5V57L18.5 58H20.5L21.5 59L22 61L23 62H25.5L26 64.5L27 65L35.5 57H36.5L43.5 64H46.5L48 63V61L49 60H51.5L52 59L52.5 56.5L54.5 56V54.5L52 53L48 45.5L49.5 40L56.5 36.5L57 34.5L56 33.5L54 32C54.3333 31.3333 55 29.9 55 29.5C55 29.1 54.6667 28.6667 54.5 28.5L52.5 27L53 25.5L51.5 24.5C49.1667 24.6667 44.4 24.9 44 24.5C43.6 24.1 44.1667 22.3333 44.5 21.5C46.8292 18.3868 47.396 16.1118 47 11Z" fill="#DD8E40"/>
<path d="M15 23C11.8855 23.2871 10.4668 24.0691 8.50002 26.5C7.69897 30.8377 8.24222 32.8103 11 35.5C12.5984 36.3694 13.4733 36.5762 15 36.5L15.0117 36.4903C16.1306 35.5639 16.7572 35.045 16.5 34.5C15.5979 32.1925 16.0766 31.6781 16.5 31.5C17.7167 30.9155 18.2533 30.4626 19 29.5C18.9443 28.4371 18.3512 27.7952 18 26.5C18.2039 25.6947 18.5598 25.3331 19.5 24.5L15 23Z" fill="#009175"/>
<path d="M63 34.5L57.5 37.5C56.6294 36.7016 56.5874 36.0076 57 34.5C56.9237 33.2863 56.1194 32.9704 54.5 32.5C54.1787 31.4427 55.5 29.5 55 29C54.5 28.5 53.1682 27.7844 52.5 26.5C52.6065 25.1945 52.7389 24.7322 53 24L57 23C60.7151 23.4611 62.1765 24.3213 63.5 27C64.8242 30.2932 64.6514 31.9263 63 34.5Z" fill="#F2385A"/>
<path d="M32.6069 14.4264C33.37 14.4264 33.9893 13.8072 33.9893 13.0442C33.9893 12.281 33.3701 11.6619 32.6069 11.6619C31.8428 11.6619 31.2238 12.281 31.2238 13.0442C31.2238 13.8072 31.8428 14.4264 32.6069 14.4264Z" fill="black"/>
<path d="M39.3939 14.4264C40.157 14.4264 40.7761 13.8072 40.7761 13.0442C40.7761 12.281 40.157 11.6619 39.3939 11.6619C38.6298 11.6619 38.0106 12.281 38.0106 13.0442C38.0106 13.8072 38.6298 14.4264 39.3939 14.4264Z" fill="black"/>
<path d="M32.8807 20.4468C33.7374 21.0095 34.771 21.3354 35.8808 21.3345C36.9905 21.3354 38.0242 21.0095 38.8809 20.4468C39.7386 19.8843 40.4224 19.0892 40.8575 18.1513C41.0724 17.6906 40.8718 17.1413 40.41 16.9274C39.9493 16.7124 39.4012 16.9129 39.1862 17.3738C38.892 18.0053 38.4354 18.535 37.8708 18.9052C37.3041 19.2754 36.6314 19.4904 35.8806 19.4914C35.1289 19.4903 34.4572 19.2754 33.8916 18.9052C33.3261 18.535 32.8693 18.0053 32.5753 17.3738C32.3612 16.9131 31.8131 16.7125 31.3514 16.9274C30.8896 17.1413 30.69 17.6904 30.9039 18.1513C31.34 19.0892 32.0229 19.8843 32.8807 20.4468Z" fill="black"/>
<path d="M36 36.2505C34.3021 36.2505 32.9261 37.6271 32.9261 39.3256C32.9261 41.0232 34.3024 42.3995 36 42.3995C37.6971 42.3995 39.075 41.0237 39.075 39.3256C39.075 37.6268 37.6974 36.2505 36 36.2505Z" fill="#F4C063" stroke="black" stroke-width="1.6"/>
<path d="M36 45.0984C34.3024 45.0984 32.9261 46.4747 32.9261 48.1723C32.9261 49.8707 34.3021 51.2472 36 51.2472C37.6973 51.2472 39.075 49.8712 39.075 48.1723C39.075 46.4744 37.6971 45.0984 36 45.0984Z" fill="#F2385A" stroke="black" stroke-width="1.6"/>
<path d="M66.0899 29.806C66.0899 28.8413 65.9305 27.8612 65.5963 26.9069C64.971 25.1163 63.8108 23.6498 62.3628 22.6408C60.9148 21.6308 59.1767 21.0693 57.3737 21.0693C56.4183 21.0693 55.4455 21.2276 54.4971 21.5589L54.4868 21.563L54.4725 21.5681L54.457 21.5731C52.5091 22.3117 50.843 22.8156 49.4617 23.1324C48.0846 23.4481 46.9842 23.5747 46.1922 23.5747H46.186C45.7797 23.5747 45.4517 23.5417 45.2182 23.4955L45.207 23.4935L45.2153 23.4944C45.2019 23.4913 45.1905 23.4893 45.1783 23.4862C45.1957 23.4668 45.2112 23.4461 45.2298 23.4245L45.241 23.4132L45.2492 23.4039L45.2666 23.3823C46.0133 22.4845 47.0469 21.2555 47.8985 19.6571C48.7521 18.061 49.4186 16.0678 49.4176 13.7115V13.7042V13.7022C49.4176 9.94824 47.9727 6.51938 45.566 4.03355C43.1654 1.54575 39.7838 -0.00112439 36.0072 6.1322e-07C36.0072 6.1322e-07 36.0021 6.1322e-07 35.9907 6.1322e-07C32.2152 6.1322e-07 28.8346 1.54575 26.4331 4.03355L26.3807 4.08923L26.4343 4.03355C24.0276 6.51938 22.5827 9.94824 22.5827 13.7022V13.7115C22.5815 16.0678 23.2491 18.0609 24.1017 19.6571C24.9533 21.2555 25.9879 22.4844 26.7335 23.3823L26.7459 23.3978L26.7531 23.4059L26.7716 23.4264L26.7757 23.4305C26.7921 23.4491 26.8066 23.4665 26.821 23.4851C26.5864 23.5354 26.249 23.5745 25.8192 23.5734V23.5745L25.8089 23.5734C25.0159 23.5745 23.9154 23.448 22.5384 23.1322C21.1572 22.8156 19.492 22.3116 17.5431 21.573L17.5307 21.5689L17.5133 21.5618L17.4887 21.5546C16.5465 21.2264 15.5798 21.068 14.6295 21.068C14.6295 21.068 14.614 21.0691 14.5925 21.0701C12.8019 21.0774 11.075 21.638 9.6373 22.6406C8.18928 23.6495 7.02913 25.1172 6.40377 26.9077C6.07049 27.8601 5.91003 28.8402 5.91003 29.8059C5.91116 31.6098 6.4655 33.3584 7.47632 34.8105C8.48741 36.2647 9.96833 37.4268 11.7868 38.0182C13.637 38.6198 15.3226 39.0333 16.7718 39.4076L16.8047 39.4158C17.8774 39.6914 18.8204 39.9486 19.5917 40.2262C20.1759 40.435 20.6634 40.6582 21.044 40.8916C21.3339 41.0716 21.5603 41.2484 21.7464 41.4398C21.9337 41.6332 22.0828 41.8399 22.2163 42.095C22.4724 42.5948 22.6586 43.3177 22.6596 44.444C22.6596 45.1526 22.5837 46.0102 22.4138 47.0275V47.0295C22.3336 47.5365 22.0414 48.2164 21.5416 48.9353L21.5345 48.9445L21.5406 48.9364C20.796 50.0224 19.5979 51.202 18.2711 52.2418C16.9454 53.2846 15.4839 54.2052 14.225 54.8542L14.2189 54.8573C12.6619 55.6616 11.4276 56.8628 10.5893 58.2688C9.75121 59.6746 9.30374 61.2873 9.30374 62.9329C9.30374 64.3378 9.63182 65.7653 10.3178 67.092C11.121 68.6513 12.3223 69.8854 13.7291 70.7205C15.1355 71.5556 16.747 72 18.3916 72C18.3988 72 18.4019 72 18.4081 72C19.7533 71.9979 21.1202 71.6924 22.4027 71.0682H22.412L22.5374 71.0045C22.5395 71.0035 22.5415 71.0024 22.5436 71.0014C23.2533 70.6395 23.9432 70.1653 24.6375 69.6223V69.6212C25.85 68.6678 27.0841 67.4809 28.31 66.2324C30.1345 64.3719 31.9394 62.3675 33.4503 60.867L33.4782 60.8392C34.2309 60.0905 34.918 59.4672 35.4323 59.0846L35.4343 59.0836C35.6719 58.9057 35.8786 58.7782 36.001 58.7185C36.0749 58.7557 36.1829 58.8184 36.3105 58.9036C36.4659 59.0065 36.65 59.1422 36.8485 59.3027L36.8505 59.3048C37.557 59.8746 38.4765 60.7715 39.4741 61.8071C40.9778 63.3641 42.68 65.238 44.379 66.9257C45.2295 67.77 46.08 68.5692 46.9223 69.2665C46.9254 69.2685 46.9275 69.2708 46.9295 69.2727L46.9748 69.3098L46.9388 69.28C47.7761 69.9691 48.6029 70.5656 49.4555 71.0016C50.7473 71.6587 52.1336 71.9807 53.4974 71.9972L53.5067 72.0003H53.6095C53.6126 72.0003 53.6168 72.0003 53.6209 72.0003C53.6342 71.9992 53.6445 71.9982 53.6466 71.9992C55.2777 71.992 56.8749 71.5497 58.2705 70.7207L58.3765 70.657L58.2747 70.7176C59.6795 69.8815 60.8798 68.6493 61.683 67.0923C62.368 65.7667 62.6971 64.3382 62.6961 62.9332C62.6961 61.2876 62.2488 59.6749 61.4105 58.2681C60.5724 56.8621 59.3371 55.6609 57.779 54.8577V54.8565C56.0995 53.9927 54.061 52.6403 52.4577 51.1644L52.4566 51.1635C51.6534 50.4291 50.9571 49.6599 50.4593 48.9368L50.4582 48.9357C49.9584 48.2168 49.6663 47.5369 49.586 47.0299V47.028C49.4165 46.0107 49.3402 45.153 49.3402 44.4433C49.3402 43.779 49.4072 43.2473 49.514 42.8266C49.6077 42.4574 49.7289 42.1746 49.874 41.9318C50.1332 41.5091 50.4551 41.1975 50.99 40.8714L50.9889 40.8725C51.383 40.634 51.8879 40.4087 52.4946 40.1958C53.4037 39.8751 54.5413 39.5828 55.8433 39.2497H55.8444C57.1486 38.9154 58.6202 38.537 60.2134 38.0187C62.0318 37.4272 63.5137 36.2651 64.5238 34.8109L64.5505 34.7718L64.5248 34.8088C65.5346 33.3562 66.0888 31.6088 66.0899 29.806ZM15.1951 33.1085C15.3648 33.4921 15.5694 33.778 15.6991 34.0145C15.7649 34.1308 15.8133 34.2325 15.8421 34.3169C15.8708 34.4012 15.8822 34.467 15.8822 34.5308C15.8822 34.5925 15.8729 34.6573 15.8369 34.7529C15.802 34.8424 15.767 34.8958 15.7289 34.9411C15.6641 35.0162 15.5715 35.0799 15.4039 35.1498C15.2793 35.2012 15.119 35.2506 14.9328 35.3062C14.6561 35.3925 14.3177 35.4881 13.966 35.7031C13.9362 35.7217 13.9064 35.7484 13.8756 35.769C13.4714 35.6497 13.0611 35.5253 12.6425 35.3884C11.4175 34.9893 10.4353 34.2201 9.74628 33.2317C9.05835 32.2443 8.67458 31.0411 8.67571 29.8059C8.67571 29.1457 8.78371 28.4761 9.01307 27.82C9.44394 26.5909 10.2298 25.5995 11.219 24.9083C12.2096 24.2173 13.4004 23.8337 14.6275 23.8337C15.2765 23.8337 15.9358 23.9407 16.5856 24.168C17.2285 24.4107 17.8414 24.6288 18.4307 24.8262C18.3103 24.8777 18.187 24.9373 18.0605 25.0144C17.8857 25.1224 17.7109 25.2623 17.5586 25.4412C17.4053 25.62 17.2779 25.8351 17.1863 26.0757C17.0865 26.3329 17.0381 26.5971 17.0392 26.8481C17.0383 27.1977 17.1308 27.5085 17.2419 27.7635C17.4116 28.1471 17.6162 28.433 17.7459 28.6695C17.8117 28.7858 17.8601 28.8875 17.8888 28.9718C17.9176 29.0572 17.9288 29.122 17.9288 29.1857C17.9288 29.2475 17.9195 29.3133 17.8837 29.409C17.8488 29.4985 17.8138 29.5519 17.7757 29.5962C17.711 29.6723 17.6183 29.736 17.4507 29.806C17.3253 29.8575 17.1647 29.9069 16.9798 29.9624C16.702 30.0489 16.3637 30.1455 16.013 30.3594C15.8391 30.4674 15.6642 30.6083 15.5111 30.7873C15.3589 30.9662 15.2314 31.1812 15.1387 31.4208C15.04 31.678 14.9917 31.9423 14.9917 32.1922C14.9915 32.5427 15.083 32.8534 15.1951 33.1085ZM23.3498 67.1065C22.5908 67.7391 21.8801 68.2379 21.2898 68.5361H21.2909C20.357 69.0113 19.3676 69.2345 18.3916 69.2356C17.246 69.2356 16.1197 68.925 15.1426 68.3439C14.1646 67.7618 13.3377 66.9143 12.7741 65.8252C12.2948 64.8944 12.0695 63.9082 12.0686 62.9331C12.0686 61.7895 12.3812 60.6632 12.9643 59.6852C13.5485 58.706 14.399 57.8772 15.4891 57.3135C15.9252 57.0883 16.3777 56.8363 16.8365 56.5637V56.573C16.8365 56.8221 16.8632 57.1049 16.9671 57.3979C17.0689 57.6901 17.253 57.9821 17.5091 58.2259C17.7415 58.4491 18.0088 58.6115 18.2794 58.7042C18.55 58.7987 18.8143 58.8285 19.0509 58.8277C19.3459 58.8277 19.6033 58.7865 19.8242 58.7535C20.0464 58.7206 20.2325 58.696 20.3735 58.697C20.4876 58.697 20.5689 58.7104 20.6357 58.7341C20.7036 58.7588 20.7665 58.7918 20.8528 58.8739C20.9465 58.9655 20.9804 59.0282 21.0091 59.1033C21.0358 59.1784 21.0513 59.2771 21.0513 59.4149C21.0513 59.5455 21.0369 59.707 21.0164 59.8951C20.9978 60.0823 20.9742 60.2942 20.9732 60.5327C20.9732 60.7816 21.0009 61.0644 21.1048 61.3576C21.2067 61.6487 21.3898 61.9407 21.6457 62.1835L21.6468 62.1847C21.8781 62.4067 22.1456 62.5683 22.415 62.6618C22.6845 62.7563 22.9489 62.7853 23.1844 62.7853C23.4806 62.7843 23.7378 62.7431 23.9609 62.7113C24.182 62.6773 24.3693 62.6527 24.5102 62.6536C24.6233 62.6536 24.7046 62.667 24.7715 62.6906C24.8383 62.7154 24.9 62.7472 24.9864 62.8284C25.08 62.92 25.1139 62.9827 25.1426 63.0588C25.1693 63.1327 25.1848 63.2316 25.1848 63.3694C25.1848 63.4989 25.1693 63.6615 25.1499 63.8487C25.1302 64.0368 25.1077 64.2497 25.1068 64.4885C25.1068 64.7374 25.1335 65.0192 25.2373 65.3112L25.2609 65.3677C24.6035 66.0061 23.9597 66.5994 23.3498 67.1065ZM53.2166 56.8938C53.304 56.8115 53.3656 56.7786 53.4335 56.754C53.5005 56.7304 53.5816 56.7169 53.6958 56.7169C53.8367 56.7169 54.0229 56.7416 54.2451 56.7745C54.4662 56.8074 54.7234 56.8477 55.0185 56.8485C55.1852 56.8485 55.3662 56.8332 55.5533 56.791C55.8783 56.976 56.1992 57.153 56.5108 57.3134C57.601 57.877 58.4516 58.7059 59.0358 59.685C59.6189 60.6631 59.9315 61.7894 59.9315 62.9329C59.9315 63.9079 59.7064 64.8942 59.226 65.825C58.6624 66.9142 57.8355 67.7617 56.8575 68.3438C55.8814 68.9248 54.7553 69.2355 53.6096 69.2355C52.6325 69.2343 51.6442 69.0113 50.7103 68.536C50.2311 68.2943 49.6706 67.9189 49.0709 67.4478C48.1382 66.7145 47.1108 65.7519 46.0638 64.6997C46.2653 64.7296 46.4906 64.7615 46.7488 64.7615C46.9842 64.7615 47.2497 64.7328 47.519 64.638C47.7886 64.5455 48.057 64.3829 48.2884 64.1607C48.5444 63.917 48.7275 63.6259 48.8293 63.3338C48.9331 63.0419 48.96 62.76 48.96 62.5112C48.96 62.2725 48.9364 62.0587 48.9168 61.8715C48.8973 61.6842 48.8819 61.5218 48.8819 61.3911C48.8819 61.2533 48.8984 61.1556 48.9251 61.0805C48.9528 61.0054 48.9868 60.9427 49.0804 60.8511C49.1668 60.77 49.2286 60.7369 49.2964 60.7123C49.3633 60.6887 49.4444 60.6752 49.5586 60.6752C49.6995 60.6752 49.8857 60.6988 50.1068 60.7328C50.329 60.7648 50.586 60.806 50.8823 60.8068C51.1177 60.8068 51.3821 60.7781 51.6525 60.6833C51.922 60.5898 52.1906 60.4284 52.4219 60.2051C52.679 59.9614 52.862 59.6703 52.965 59.3772C53.0679 59.0842 53.0955 58.8012 53.0955 58.5523C53.0945 58.3147 53.0719 58.1029 53.0523 57.9157C53.0328 57.7285 53.0173 57.5661 53.0184 57.4365C53.0184 57.2977 53.0337 57.1999 53.0606 57.1238C53.0885 57.0488 53.1223 56.986 53.2139 56.8955L53.2166 56.8938ZM56.4203 35.1674C56.339 35.3597 56.1683 35.6127 55.9852 35.9336C55.906 36.0755 55.8268 36.2371 55.7589 36.416C55.3424 36.524 54.934 36.6279 54.5382 36.7296C53.4345 37.0145 52.4122 37.287 51.4732 37.6234C50.7708 37.8764 50.1137 38.1653 49.5119 38.5335C48.6119 39.0808 47.8334 39.8325 47.3254 40.8291C46.8143 41.8247 46.5746 43.0176 46.5746 44.4431C46.5755 45.3471 46.6702 46.35 46.8585 47.4823C47.0395 48.5508 47.529 49.5557 48.1832 50.507C49.1684 51.9304 50.5413 53.2509 52.0214 54.4162C52.3855 54.7021 52.7567 54.9789 53.1312 55.2441C53.0634 55.2606 52.9944 55.2812 52.9245 55.3047C52.655 55.3984 52.3867 55.5609 52.1553 55.784C51.8981 56.0277 51.714 56.3188 51.6122 56.6118C51.5084 56.904 51.4815 57.1867 51.4815 57.4367C51.4815 57.6744 51.5053 57.8862 51.5237 58.0733C51.5444 58.2607 51.5589 58.4221 51.5589 58.5526C51.5589 58.6904 51.5434 58.7891 51.5167 58.8642C51.488 58.9404 51.454 59.0041 51.3603 59.0947C51.2738 59.177 51.2121 59.2097 51.1443 59.2345C51.0764 59.2581 50.9953 59.2715 50.8822 59.2715C50.7413 59.2715 50.554 59.2469 50.3329 59.2138C50.1107 59.1809 49.8537 59.1398 49.5583 59.1398C49.3218 59.1398 49.0576 59.1687 48.787 59.2633C48.5176 59.357 48.2493 59.5184 48.0178 59.7416C47.7617 59.9854 47.5788 60.2764 47.477 60.5675C47.373 60.8595 47.3463 61.1423 47.3463 61.3913C47.3463 61.6299 47.3699 61.8427 47.3895 62.03C47.4089 62.2181 47.4244 62.3807 47.4244 62.5112C47.4244 62.649 47.4089 62.7457 47.3822 62.8218C47.3535 62.8958 47.3195 62.9596 47.2259 63.0502C47.1396 63.1325 47.0779 63.1644 47.0111 63.1891C46.9431 63.2128 46.863 63.2261 46.7488 63.2261C46.6079 63.2272 46.4217 63.2025 46.1995 63.1685C45.9773 63.1365 45.7203 63.0955 45.4241 63.0945C45.1886 63.0945 44.9242 63.1233 44.6538 63.218L44.6321 63.2272C43.1922 61.7195 41.7627 60.1604 40.4709 58.8767C39.6676 58.0808 38.9201 57.3906 38.2186 56.8672C37.8669 56.6049 37.5265 56.3837 37.1727 56.213C36.8188 56.0454 36.4465 55.9147 36.0001 55.9107C35.6607 55.9128 35.3624 55.992 35.0838 56.1009C34.5655 56.3077 34.0903 56.6265 33.5803 57.0215C33.3908 57.1697 33.1972 57.3296 33 57.5C32.6978 57.7612 32.3869 58.047 32.0673 58.3528C31.622 58.7789 31.1601 59.2439 30.6831 59.7357C29.414 61.0438 28.043 62.5382 26.6843 63.938C26.7017 63.7673 26.7203 63.5791 26.7203 63.3693C26.7203 63.1204 26.6936 62.8376 26.5896 62.5444C26.4888 62.2534 26.3047 61.9623 26.0477 61.7186L26.0436 61.7146C25.8133 61.4945 25.5479 61.333 25.2804 61.2404C25.01 61.1457 24.7456 61.1169 24.5101 61.1169C24.2139 61.1179 23.9567 61.1591 23.7345 61.1909C23.5123 61.2248 23.3253 61.2495 23.1844 61.2485C23.0712 61.2485 22.9901 61.2361 22.9231 61.2114C22.8562 61.1868 22.7946 61.1549 22.7083 61.0736C22.6147 60.982 22.5807 60.9193 22.5519 60.8431C22.5252 60.7691 22.5097 60.6704 22.5097 60.5326C22.5097 60.402 22.524 60.2404 22.5446 60.0522C22.5631 59.865 22.5868 59.6523 22.5879 59.4146C22.5868 59.1657 22.56 58.8829 22.4571 58.5907C22.3543 58.2986 22.1713 58.0067 21.9141 57.7628C21.6817 57.5397 21.4153 57.3782 21.1448 57.2846C20.8744 57.1901 20.61 57.1601 20.3735 57.1601C20.0783 57.1612 19.8212 57.2023 19.5992 57.2342C19.378 57.2681 19.1919 57.2927 19.051 57.2917C18.9368 57.2917 18.8555 57.2784 18.7878 57.2548C18.7198 57.2302 18.6581 57.1971 18.5706 57.116H18.5718C18.477 57.0234 18.4432 56.9606 18.4154 56.8855C18.3877 56.8094 18.3722 56.7117 18.3722 56.5727C18.3722 56.4422 18.3877 56.2808 18.4071 56.0935C18.4237 55.929 18.4411 55.7418 18.4462 55.5391C19.4695 54.8387 20.4857 54.0509 21.4124 53.2014C22.3297 52.3581 23.1597 51.4571 23.8169 50.5067C24.471 49.5553 24.9605 48.5505 25.1416 47.482C25.3309 46.3497 25.4244 45.3459 25.4254 44.4428C25.4244 43.5964 25.341 42.8365 25.1662 42.1474C25.0141 41.5436 24.7888 40.9954 24.4946 40.5069C23.9815 39.6481 23.2595 38.995 22.4377 38.5034C21.8205 38.1322 21.1459 37.8422 20.4228 37.5871C19.3389 37.2066 18.1427 36.9041 16.8417 36.5709C16.6586 36.5237 16.4683 36.4742 16.2811 36.426C16.3202 36.4043 16.3582 36.3869 16.3973 36.3632C16.5711 36.2552 16.747 36.1143 16.8992 35.9353C17.0513 35.7574 17.1799 35.5424 17.2714 35.3018C17.3703 35.0446 17.4185 34.7804 17.4185 34.5303C17.4185 34.1796 17.3268 33.8691 17.2149 33.614C17.0461 33.2305 16.8405 32.9445 16.7109 32.708C16.6451 32.5907 16.5967 32.4899 16.5679 32.4056C16.539 32.3212 16.5278 32.2554 16.5278 32.1916C16.5278 32.1299 16.5369 32.0652 16.5731 31.9705V31.9694C16.6079 31.8798 16.643 31.8265 16.6811 31.7822C16.7469 31.706 16.8384 31.6423 17.007 31.5723C17.1315 31.521 17.2919 31.4716 17.477 31.416C17.7547 31.3297 18.0931 31.233 18.4438 31.0191C18.6176 30.9111 18.7924 30.7702 18.9458 30.5911C19.098 30.4123 19.2265 30.1972 19.3181 29.9576C19.4168 29.7006 19.4652 29.4351 19.4652 29.1853C19.4652 28.8346 19.3736 28.5241 19.2625 28.269C19.0929 27.8864 18.8872 27.5995 18.7575 27.3639C18.6917 27.2467 18.6445 27.1448 18.6156 27.0615C18.5858 26.9762 18.5744 26.9114 18.5744 26.8476C18.5756 26.7858 18.5847 26.72 18.6208 26.6254L18.5899 26.7045L18.6208 26.6243C18.6557 26.5348 18.6907 26.4814 18.7288 26.4361C18.7935 26.361 18.8862 26.2973 19.0548 26.2263C19.1783 26.1748 19.3397 26.1255 19.5248 26.0699C19.8024 25.9836 20.1407 25.8879 20.4914 25.6729C20.5625 25.6288 20.6323 25.5752 20.7022 25.5208C21.124 25.635 21.5312 25.7366 21.9209 25.8272C23.4544 26.1768 24.74 26.3372 25.8137 26.3382C26.366 26.3382 26.8627 26.296 27.3141 26.2077C27.9868 26.073 28.572 25.8425 29.0441 25.4312C29.2775 25.2266 29.4761 24.9715 29.6108 24.6825C29.7446 24.3934 29.8104 24.0757 29.8094 23.7682C29.8094 23.3516 29.6983 22.9598 29.5276 22.6008C29.36 22.2512 29.1327 21.9251 28.8581 21.6125C28.1125 20.7188 27.232 19.6543 26.5408 18.3563C25.8518 17.0574 25.3488 15.5434 25.3468 13.7015C25.3479 10.6615 26.512 7.9297 28.4209 5.95505C30.3332 3.9832 32.9763 2.7675 36 2.76553C39.0237 2.76764 41.6669 3.98334 43.5788 5.95589C45.4877 7.93055 46.6519 10.6622 46.6529 13.7024C46.6509 15.5443 46.148 17.0582 45.459 18.3572C44.7678 19.6552 43.8875 20.7197 43.1418 21.6134C42.8671 21.9261 42.6399 22.2521 42.4721 22.6017C42.3014 22.9605 42.1903 23.3525 42.1903 23.769C42.1883 24.1784 42.3095 24.6083 42.5441 24.96C42.7179 25.2253 42.9452 25.4475 43.2003 25.6233C43.5839 25.8877 44.0252 26.0594 44.5188 26.1735C45.0135 26.2856 45.5646 26.3391 46.1859 26.3402C47.2595 26.3391 48.5451 26.1776 50.0787 25.828C50.6279 25.7015 51.21 25.5503 51.824 25.3734C51.7562 25.503 51.6892 25.6409 51.6347 25.7992C51.5627 26.009 51.5112 26.2506 51.5112 26.513C51.5102 26.7629 51.5586 27.0271 51.6583 27.2843C51.7508 27.529 51.8815 27.7471 52.0377 27.927C52.3123 28.2459 52.6466 28.432 52.9408 28.5535C53.163 28.6439 53.3707 28.7045 53.5507 28.7601C53.8231 28.8404 54.0319 28.9155 54.1542 28.9935C54.216 29.0326 54.2592 29.0686 54.2971 29.1128C54.3342 29.1569 54.3691 29.2105 54.4032 29.2989C54.4392 29.3946 54.4484 29.4583 54.4484 29.52C54.4484 29.6044 54.4287 29.6948 54.3733 29.8245C54.2921 30.0157 54.1213 30.2688 53.9382 30.5897C53.8478 30.7512 53.7552 30.9331 53.6823 31.1439C53.6092 31.3538 53.5579 31.5965 53.5579 31.8587C53.5579 32.1086 53.6062 32.3719 53.705 32.6291C53.7986 32.8738 53.9291 33.0919 54.0845 33.2719C54.359 33.5908 54.6944 33.7769 54.9886 33.8972C55.2106 33.9888 55.4175 34.0494 55.5985 34.104C55.87 34.1851 56.0787 34.2592 56.2012 34.3372C56.2639 34.3765 56.3061 34.4123 56.3441 34.4566C56.3812 34.5008 56.4161 34.5544 56.45 34.6428C56.486 34.7385 56.4952 34.8031 56.4952 34.8639C56.4954 34.9484 56.4758 35.039 56.4203 35.1674ZM62.2537 33.2318C61.5656 34.2202 60.5824 34.9896 59.3575 35.3886C58.8227 35.5634 58.3024 35.7176 57.7901 35.8647C57.8323 35.7753 57.8725 35.6806 57.9074 35.579C57.9804 35.3682 58.0317 35.1264 58.0317 34.864C58.0317 34.6141 57.9833 34.3499 57.8846 34.0927C57.7921 33.8501 57.6614 33.6309 57.5051 33.4509C57.2306 33.1321 56.8952 32.946 56.6021 32.8257C56.3789 32.7341 56.1722 32.6735 55.9922 32.619C55.7197 32.5377 55.511 32.4636 55.3887 32.3855C55.3269 32.3464 55.2838 32.3104 55.2456 32.2663C55.2087 32.2221 55.1736 32.1697 55.1398 32.0801C55.1038 31.9854 55.0945 31.9206 55.0945 31.859C55.0945 31.7748 55.114 31.6842 55.1696 31.5547C55.2508 31.3623 55.4216 31.1103 55.6045 30.7894C55.6951 30.628 55.7876 30.4459 55.8606 30.2351C55.9336 30.0243 55.985 29.7827 55.985 29.5203C55.985 29.2714 55.9367 29.0071 55.838 28.749C55.7444 28.5062 55.6148 28.2871 55.4585 28.1071C55.1839 27.7883 54.8487 27.6022 54.5556 27.4808C54.3323 27.3893 54.1257 27.3295 53.9447 27.2741C53.6732 27.1939 53.4643 27.1198 53.342 27.0416C53.2803 27.0025 53.2371 26.9655 53.1991 26.9224C53.162 26.8772 53.1271 26.8237 53.0921 26.7352C53.0571 26.6407 53.048 26.5748 53.0468 26.513C53.048 26.4286 53.0675 26.3381 53.123 26.2086C53.2032 26.0162 53.3739 25.7642 53.557 25.4433C53.6474 25.2818 53.7401 25.0999 53.8132 24.8889C53.8318 24.8365 53.8481 24.7829 53.8626 24.7274C54.3624 24.5566 54.8776 24.3706 55.4134 24.168C56.0645 23.9407 56.7236 23.8337 57.3736 23.8337C58.5995 23.8337 59.7906 24.2173 60.7809 24.9083C61.7702 25.5995 62.557 26.5911 62.9869 27.82C63.2163 28.475 63.3243 29.1457 63.3243 29.8059C63.3254 31.0413 62.9418 32.2445 62.2537 33.2318Z" fill="black"/>
<path d="M25.9684 61.6423L26.0435 61.7143C26.0445 61.7163 26.0466 61.7163 26.0485 61.7184L25.9684 61.6423Z" fill="#3D3D3D"/>
<path d="M37.1635 32.9145L37.1642 32.9148L37.1643 32.9149L37.1645 32.9149L37.1646 32.915L37.1646 32.915L37.2149 32.9365L37.268 32.951L38.7472 33.356L40.2264 33.7609L40.2264 33.7609L40.2311 33.7622C40.5673 33.852 40.8969 33.9384 41.1944 33.9436C41.5763 33.9503 41.8631 33.83 42.1247 33.6598L42.1247 33.6599L42.1337 33.6538C42.4766 33.424 42.6239 33.0963 42.6807 32.7792C42.7272 32.5199 42.7229 32.2082 42.7168 31.9072V30.4365V28.9576V28.7243C42.7193 28.6439 42.7207 28.5448 42.7169 28.4414C42.7112 28.29 42.693 28.0777 42.6249 27.8681C42.5602 27.6692 42.404 27.3349 42.0273 27.1587C41.7631 27.0352 41.4831 26.9606 41.1579 26.9584C40.8529 26.9563 40.5441 27.0184 40.2192 27.1137L38.7473 27.5164L37.2681 27.9211L37.2077 27.9376L37.1515 27.9629L37.1512 27.9631L37.1512 27.9631L37.151 27.9632L37.1508 27.9632L37.1506 27.9633L37.147 27.9649L37.1257 27.9742C37.1059 27.9827 37.0754 27.9956 37.0364 28.0114C36.9578 28.0432 36.8468 28.0859 36.7192 28.1291C36.4568 28.2178 36.1891 28.2855 35.9966 28.2968C35.875 28.2889 35.622 28.228 35.3221 28.1307C35.1816 28.085 35.0541 28.0393 34.9615 28.0048C34.9155 27.9877 34.8786 27.9736 34.8539 27.964L34.8263 27.9532L34.82 27.9507L34.8192 27.9504L34.8191 27.9503L34.819 27.9503L34.8189 27.9503L34.8189 27.9502L34.7765 27.9332L34.7322 27.9211L33.2532 27.5164L33.0421 28.2881L33.2532 27.5164L31.8141 27.1226C31.4745 26.9911 31.0942 26.8543 30.744 26.8382C30.5373 26.8286 30.3021 26.8573 30.0709 26.975C29.8477 27.0887 29.6872 27.2553 29.5713 27.4282C29.3931 27.6784 29.3262 27.9466 29.2988 28.1915C29.2728 28.4227 29.2769 28.6907 29.2842 28.9681V30.4365L29.2842 31.9153L29.2842 31.9169C29.2842 31.9301 29.2842 31.9433 29.2843 31.9564C29.2849 32.4013 29.2856 32.8147 29.4932 33.3026L29.5207 33.3672L29.5591 33.4261C29.6715 33.5985 29.8296 33.7719 30.0557 33.8919C30.2837 34.013 30.5182 34.0464 30.7287 34.0388C31.0833 34.0259 31.4669 33.8878 31.8172 33.7492L33.2534 33.356L34.7323 32.951L34.7575 32.9441L34.7822 32.9356L34.7822 32.9356L34.7822 32.9356L34.7823 32.9356L34.7827 32.9354L34.7851 32.9346L34.795 32.9312L34.8343 32.9178C34.8686 32.9062 34.9181 32.8895 34.9782 32.8695C35.099 32.8294 35.2604 32.7768 35.4261 32.7259C35.5941 32.6743 35.7559 32.6277 35.8807 32.5972C35.9137 32.5891 35.9405 32.5831 35.9616 32.5787L36.052 32.5728C36.0518 32.5728 36.0521 32.5728 36.0528 32.5729C36.0606 32.5732 36.1212 32.576 36.2489 32.605C36.3736 32.6335 36.5164 32.6761 36.6581 32.7238C36.798 32.7709 36.9264 32.8194 37.0203 32.8564C37.067 32.8747 37.1043 32.8899 37.1294 32.9003L37.1573 32.9119L37.1635 32.9145Z" fill="#EAA0E3" stroke="black" stroke-width="1.6"/>
<path d="M26.5001 20.0007C26.0015 26.1848 24 15.0007 24 15.0007C24 15.0007 24.9727 9.26117 26.0001 6.50071C27.9805 3.89411 28.3749 3.30715 32.0001 1.99976L38.0001 1.5L42 2C41.8798 2.11987 41.7935 2.23081 41.7364 2.33322C42.107 2.36398 42.4714 2.41916 42.8271 2.50071C47.0099 3.45964 40.8504 3.92317 41.7364 2.33322C37.4684 1.97897 32.3676 4.86295 30 8C27.8527 11.3408 26.9986 13.8166 26.5001 20.0007Z" fill="black" fill-opacity="0.1"/>
<path d="M12.3563 37.1646C16.6887 38.9772 14.3562 36.1647 18.8562 38.6647C19.2732 37.6265 19.6116 37.201 20.3562 36.6647C20.812 36.1896 20.9375 35.3823 20.8562 35.1647C20.775 34.947 20.3562 33.6647 20.3562 33.6647C20.161 33.3331 20.2859 32.7548 20.8562 32.6647C21.5146 32.5351 21.8516 32.4335 22.3562 32.1647C22.9017 31.8076 23 31 23 31C23 31 23.0755 30.2549 23 30C22.9245 29.7451 22.7101 29.2806 22.5 29C22.0912 28.7361 22.1718 27.9489 22.3562 27.6647C22.5407 27.3804 22.9369 27.2973 23.8562 27.1647C25.0139 26.999 25.3388 26.665 25.8563 26.0001C26.3737 25.3353 25.8563 25.6647 25.8563 25.6647L16.3563 23.1646C13.6615 22.5943 10.7812 22.6322 8.00007 28C7.50716 29.7151 7.88353 31.1181 8.34023 32.1646C8.60076 34.168 10.3344 35.2559 12.3563 37.1646Z" fill="black" fill-opacity="0.1"/>
</g>
<defs>
<clipPath id="clip0_345_1051">
<rect width="72" height="72" fill="white"/>
</clipPath>
</defs>
</svg>
