<svg width="72" height="72" viewBox="0 0 72 72" fill="none" xmlns="http://www.w3.org/2000/svg">
<path d="M57.4468 42.5107H52.8511L58.9787 70.8512H63.5744V48.6383C63.5744 45.2542 60.8311 42.5107 57.4468 42.5107Z" fill="#D42F4D"/>
<path d="M52.8511 42.5107H36L29.8724 56.681L36 70.8512H58.9787V48.6383C58.9787 45.2542 56.2354 42.5107 52.8511 42.5107Z" fill="#F2385A"/>
<path d="M14.5531 42.5107C11.1688 42.5107 8.42554 45.2542 8.42554 48.6383V70.8512H36V42.5107H14.5531Z" fill="#F2385A"/>
<path d="M28.3404 40.9788H17.6171V70.8512H28.3404V40.9788Z" fill="#E9F1DF"/>
<path d="M54.3829 40.9788H43.6595V70.8512H54.3829V40.9788Z" fill="#E9F1DF"/>
<path d="M57.4468 41.3617H55.5319V40.9787C55.5319 40.3442 55.0177 39.8298 54.383 39.8298H43.6597C43.025 39.8298 42.5107 40.3442 42.5107 40.9787V41.3617H29.4894V40.9787C29.4894 40.3442 28.9752 39.8298 28.3405 39.8298H17.6172C16.9825 39.8298 16.4683 40.3442 16.4683 40.9787V41.3617H14.5534C10.5412 41.3617 7.27673 44.626 7.27673 48.6383V70.851C7.27673 71.4855 7.791 71.9999 8.42564 71.9999H63.5745C64.2092 71.9999 64.7235 71.4855 64.7235 70.851V48.6382C64.7233 44.626 61.459 41.3617 57.4468 41.3617ZM16.468 69.7021H9.57441V48.6382C9.57441 45.893 11.8078 43.6595 14.5531 43.6595H16.468V69.7021ZM27.1915 69.7021H18.7659V42.1275H27.1915V69.7021ZM34.851 69.7021H29.4893V43.6595H34.851V69.7021ZM53.234 69.7021H37.1489V43.6595H42.5106V66.2552C42.5106 66.8897 43.0249 67.4042 43.6595 67.4042C44.2942 67.4042 44.8084 66.8897 44.8084 66.2552V42.1275H53.234V69.7021ZM62.4255 69.7021H55.5319V43.6595H57.4468C60.1921 43.6595 62.4255 45.893 62.4255 48.6382V69.7021Z" fill="black"/>
<path d="M20.6656 18.2341C18.1273 18.2341 16.0698 20.2918 16.0698 22.8299C16.0698 25.3682 18.1273 27.4257 20.6656 27.4257H36V18.2341H20.6656Z" fill="#FEC8BB"/>
<path d="M51.3345 18.2341H36V27.4257H51.3345C53.8727 27.4257 55.9302 25.3682 55.9302 22.8299C55.9302 20.2918 53.8726 18.2341 51.3345 18.2341Z" fill="#FE9F88"/>
<path d="M36 7V39.1702C43.6145 39.1702 49.7872 32.9975 49.7872 25.383V20.7872C49.7872 13.1727 43.6145 7 36 7Z" fill="#FE9F88"/>
<path d="M44.9787 25.3829V20.7872C44.9787 18.127 44.4757 15.6437 43.6056 13.5371L35.9793 7.00239C35.9153 7.00141 35.8513 7 35.7872 7C35.723 7 35.659 7.00155 35.5951 7.00239L22.1921 18.4868C22.0665 19.2349 22 20.0033 22 20.7872V25.3829C22 32.9975 28.1727 39.1702 35.7873 39.1702C40.8667 39.1654 44.9787 32.9947 44.9787 25.3829Z" fill="#FEC8BB"/>
<path d="M36 30.3583C34.3822 30.3583 32.9315 29.3344 32.3898 27.8104C32.1772 27.2124 32.4896 26.5556 33.0876 26.3429C33.6849 26.1307 34.3424 26.4426 34.5549 27.0407C34.7719 27.6507 35.3525 28.0605 36.0001 28.0605C36.6477 28.0605 37.2283 27.6507 37.4453 27.0407C37.6578 26.4428 38.3151 26.1307 38.9126 26.3429C39.5105 26.5556 39.8229 27.2124 39.6104 27.8104C39.0684 29.3343 37.6177 30.3583 36 30.3583Z" fill="black"/>
<path d="M27.5744 27.4255C28.8435 27.4255 29.8722 26.3967 29.8722 25.1276C29.8722 23.8586 28.8435 22.8298 27.5744 22.8298C26.3054 22.8298 25.2766 23.8586 25.2766 25.1276C25.2766 26.3967 26.3054 27.4255 27.5744 27.4255Z" fill="#FE9F88"/>
<path d="M45.1915 22.9634L43.6016 25.1265L45.0742 27.3312C46.0272 27.0511 46.7234 26.1713 46.7234 25.1277C46.7233 24.1276 46.0833 23.2791 45.1915 22.9634Z" fill="#FD7555"/>
<path d="M45.1915 22.9634C44.9516 22.8784 44.6945 22.8298 44.4255 22.8298C43.1565 22.8298 42.1277 23.8586 42.1277 25.1276C42.1277 26.3966 43.1565 27.4255 44.4255 27.4255C44.6511 27.4255 44.8682 27.3916 45.0741 27.3311C45.1508 26.6135 45.1913 25.8776 45.1913 25.1276V22.9634H45.1915Z" fill="#FE9F88"/>
<path d="M38.2954 2.34033L36 10.4347C38.8138 15.1078 43.9348 18.2342 49.7873 18.2342V15.9364C49.7873 9.10383 44.817 3.43327 38.2954 2.34033Z" fill="#C37817"/>
<path d="M38.2954 2.34032C37.5486 2.21516 36.7821 2.14893 35.9999 2.14893C28.3854 2.14893 22.2126 8.32166 22.2126 15.9362V18.234C31.0324 18.234 38.1927 11.1354 38.2954 2.34032Z" fill="#995C0D"/>
<path d="M29.3362 21.6809H30.8569C31.0145 22.1271 31.4402 22.4469 31.9404 22.4469C32.575 22.4469 33.0893 21.9324 33.0893 21.2979V20.532C33.0893 19.8975 32.575 19.3831 31.9404 19.3831H29.3362C28.7015 19.3831 28.1873 19.8975 28.1873 20.532C28.1873 21.1665 28.7015 21.6809 29.3362 21.6809Z" fill="black"/>
<path d="M40.0596 22.4469C40.5599 22.4469 40.9854 22.1272 41.1431 21.6809H42.6638C43.2984 21.6809 43.8127 21.1665 43.8127 20.532C43.8127 19.8975 43.2984 19.3831 42.6638 19.3831H40.0596C39.4249 19.3831 38.9106 19.8975 38.9106 20.532V21.2979C38.9106 21.9324 39.4249 22.4469 40.0596 22.4469Z" fill="black"/>
<path d="M20.6656 27.5745H21.466C23.0262 34.154 28.9502 39.0638 36 39.0638C43.0498 39.0638 48.9738 34.154 50.534 27.5745H51.3345C54.5022 27.5745 57.0791 24.9975 57.0791 21.8298C57.0791 18.6621 54.5021 16.0851 51.3345 16.0851H50.9362V14.9362C50.9362 6.70022 44.2359 0 36 0C27.7642 0 21.0638 6.70022 21.0638 14.9362V16.0851H20.6656C17.4979 16.0851 14.9209 18.6621 14.9209 21.8298C14.9209 24.9975 17.498 27.5745 20.6656 27.5745ZM39.3705 2.75794C44.7075 4.23703 48.6383 9.13472 48.6383 14.9362V16.0404C44.0351 15.6949 39.9124 13.2825 37.3444 9.41091C38.4625 7.36861 39.1537 5.11312 39.3705 2.75794ZM23.3618 14.9362C23.3618 7.96739 29.0314 2.29795 36 2.29795C36.3704 2.29795 36.7362 2.31722 37.0987 2.34872C36.513 9.63169 30.6362 15.479 23.3618 16.0408V14.9362ZM20.6656 18.3829H21.0638V19.5318C21.0638 20.1663 21.5781 20.6807 22.2127 20.6807C22.8474 20.6807 23.3616 20.1663 23.3616 19.5318V18.3442C27.4983 18.0733 31.3576 16.3432 34.3309 13.402C34.939 12.8005 35.4969 12.1614 36.0024 11.49C37.3988 13.3477 39.163 14.9174 41.1799 16.0824C43.4548 17.3963 46.0122 18.1692 48.6383 18.3442V19.5318C48.6383 20.1663 49.1525 20.6807 49.7872 20.6807C50.4218 20.6807 50.9361 20.1663 50.9361 19.5318V18.3829H51.3343C53.2349 18.3829 54.7812 19.9291 54.7812 21.8298C54.7812 23.7305 53.2349 25.2766 51.3343 25.2766H50.8923C50.9213 24.8974 50.9362 24.5142 50.9362 24.1277C50.9362 23.4932 50.422 22.9788 49.7873 22.9788C49.1527 22.9788 48.6384 23.4932 48.6384 24.1277C48.6384 31.0965 42.9688 36.766 36.0002 36.766C29.0315 36.766 23.3619 31.0965 23.3619 24.1277C23.3619 23.4932 22.8476 22.9788 22.213 22.9788C21.5784 22.9788 21.0641 23.4932 21.0641 24.1277C21.0641 24.5142 21.0789 24.8974 21.108 25.2766H20.6657C18.7652 25.2766 17.2189 23.7305 17.2189 21.8298C17.2187 19.9291 18.765 18.3829 20.6656 18.3829Z" fill="black"/>
</svg>
