<svg width="72" height="72" viewBox="0 0 72 72" fill="none" xmlns="http://www.w3.org/2000/svg">
<g clip-path="url(#clip0_345_513)">
<path d="M41.0553 1.37891L43.5967 6.04667L39.0164 13.0031V1.37891H41.0553Z" fill="#FF6761"/>
<path d="M39.0164 1.37891L41.3662 8.40734L35.689 14.4171L27.72 6.04667L30.2599 1.37891H39.0164Z" fill="#FF7C6E"/>
<path d="M43.5967 6.04685C43.0254 6.10662 42.4647 6.20309 41.9178 6.33485L39.4729 23.6073C42.6225 22.2775 44.9816 19.3026 44.9816 15.3257C44.9816 9.84753 44.9816 5.97485 44.9816 5.97485C44.5129 5.97485 44.0518 5.99946 43.5967 6.04685Z" fill="#BE2A45"/>
<path d="M41.9178 6.33472C41.9178 7.41472 41.9178 10.8294 41.9178 15.3256C41.9178 19.3025 40.8716 22.2774 39.4729 23.6071L35.6584 9.85203L35.6891 9.82137C37.3756 8.13472 39.5173 6.90622 41.9178 6.33472Z" fill="#E43349"/>
<path d="M27.72 6.04637C30.8129 6.36966 33.5842 7.76368 35.6584 9.85168C38.0175 12.2261 39.4728 15.4983 39.4728 19.1121V23.6068C38.2855 24.1108 36.9866 24.3788 35.6584 24.3788C30.8115 24.3788 26.3351 20.8017 26.3351 15.3252C26.3351 9.84704 26.3351 5.97437 26.3351 5.97437C26.8039 5.97437 27.265 5.99883 27.72 6.04637Z" fill="#F2385A"/>
<path d="M49.2252 24.3796H44.6294L50.757 38.1669H55.3528V30.5074C55.3528 27.1372 52.5954 24.3796 49.2252 24.3796Z" fill="#864941"/>
<path d="M50.757 30.5072V38.1668H16.6475V30.5072C16.6475 27.137 19.405 24.3796 22.7751 24.3796H44.6293C47.9997 24.3795 50.757 27.137 50.757 30.5072Z" fill="#B26156"/>
<path d="M64.6975 45.8265V62.9564H60.1017L52.4421 39.0278L64.6975 45.8265Z" fill="#CB2E3E"/>
<path d="M60.1017 45.1556V62.9564H7.30278L7.29968 45.8266C9.1946 45.8266 35.9986 40.4971 35.9986 40.4971C35.9986 40.4971 51.8983 43.7231 60.1017 45.1556Z" fill="#F2385A"/>
<path d="M63.2514 63.5277L57.1727 70.3095H61.7685C63.4536 70.3095 65.3914 69.0488 66.0763 67.5091L67.8962 63.4158L63.2514 63.5277Z" fill="#D4DBCA"/>
<path d="M63.2514 63.5278L61.4805 67.5093C60.7958 69.0489 58.8579 70.3097 57.1728 70.3097H10.2319C8.54675 70.3097 6.60894 69.049 5.92409 67.5093L4.10413 63.416L63.2514 63.5278Z" fill="#E9F1DF"/>
<path d="M68.5533 60.352L3.44686 60.3516C2.17842 60.3516 1.14905 61.3809 1.14905 62.6494C1.14905 63.9194 2.17856 64.9472 3.44686 64.9472H68.5533C69.8217 64.9472 70.8511 63.9192 70.8511 62.6494C70.8512 61.3812 69.8217 60.352 68.5533 60.352Z" fill="#D8D8DA"/>
<path d="M58.5699 35.103H53.9741L60.1017 47.6831C61.2384 46.7317 62.4302 45.8264 64.6975 45.8264V41.2306C64.6975 37.8604 61.9401 35.103 58.5699 35.103Z" fill="#864941"/>
<path d="M60.1017 41.2306V47.6831C58.8395 48.7401 57.6475 49.8537 55.1306 49.8537C50.348 49.8537 50.348 45.8264 45.5638 45.8264C40.7811 45.8264 40.7811 49.8537 35.9985 49.8537C31.2158 49.8537 31.2158 45.8264 26.4332 45.8264C21.649 45.8264 21.649 49.8537 16.8663 49.8537C12.0821 49.8537 12.0821 45.8264 7.29944 45.8264V41.2306C7.29944 37.8604 10.057 35.103 13.427 35.103H53.9737C57.3444 35.103 60.1017 37.8604 60.1017 41.2306Z" fill="#B26156"/>
<path d="M68.5531 59.3587H65.8468V41.3856C65.8468 37.3734 62.5825 34.1089 58.5702 34.1089H56.5021V30.6621C56.5021 26.6499 53.2378 23.3855 49.2255 23.3855H42.3302C44.5729 21.632 46.1303 18.9327 46.1303 15.4802L46.1302 6.30781C46.1301 5.01912 45.0989 4.982 44.9813 4.982C44.7373 4.982 44.4945 4.98959 44.2526 5.00154L42.0638 0.985293C41.8625 0.616012 41.4754 0.38623 41.0548 0.38623H30.26C29.8394 0.38623 29.4522 0.616152 29.251 0.985715L27.0636 5.00197C26.8215 4.98973 26.5788 4.982 26.3351 4.982C25.7006 4.982 25.1862 5.49626 25.1862 6.1309V15.4802C25.1862 18.9327 26.7435 21.6321 28.9863 23.3855H22.7744C18.7622 23.3855 15.4977 26.6498 15.4977 30.6621V34.1089H13.4298C9.41766 34.1089 6.15319 37.3733 6.15319 41.3856V45.9265C6.1522 45.9454 6.15023 45.9639 6.15023 45.9829C6.15023 46.0019 6.1522 46.0205 6.15319 46.0393V59.359H3.44686C1.54617 59.3587 0 60.905 0 62.8056C0 64.7061 1.54617 66.2524 3.44686 66.2524H4.03889L4.87434 68.132C5.74214 70.0846 8.09564 71.6141 10.2324 71.6141H61.7676C63.9042 71.6141 66.2579 70.0846 67.1258 68.132L67.9611 66.2524H68.5531C70.4537 66.2524 72 64.7061 72 62.8056C72 60.905 70.4537 59.3587 68.5531 59.3587ZM30.9426 2.68404H40.3726L41.8154 5.33145C39.547 5.84136 37.4408 6.899 35.6579 8.43842C33.876 6.90307 31.7641 5.84487 29.4996 5.33356L30.9426 2.68404ZM27.484 15.4801V7.33522C33.1924 7.88843 37.8377 12.5172 38.2873 18.3262C38.3363 18.9589 38.8889 19.4337 39.5215 19.3828C40.1542 19.3339 40.6273 18.7812 40.5782 18.1486C40.3467 15.1583 39.1891 12.3489 37.2776 10.077C39.1397 8.51126 41.4091 7.5619 43.8324 7.33353V15.4801C43.8324 20.4285 39.6762 23.3853 35.6581 23.3853C31.6401 23.3853 27.484 20.4285 27.484 15.4801ZM13.4298 36.4068H21.2425C21.877 36.4068 22.3914 35.8925 22.3914 35.2579C22.3914 34.6232 21.877 34.1089 21.2425 34.1089H17.7957V30.6621C17.7957 27.9168 20.0292 25.6834 22.7744 25.6834H49.2255C51.9708 25.6834 54.2042 27.9168 54.2042 30.6621V34.1089H25.8382C25.2037 34.1089 24.6892 34.6232 24.6892 35.2579C24.6892 35.8925 25.2037 36.4068 25.8382 36.4068H58.5703C61.3156 36.4068 63.549 38.6402 63.549 41.3854V44.9104C61.4713 45.1891 60.2595 46.2034 59.1746 47.1166C58.0174 48.0904 57.1035 48.8598 55.1309 48.8598C53.1582 48.8598 52.2443 48.0906 51.0872 47.1166C49.8158 46.0466 48.3749 44.8337 45.5639 44.8337C42.7534 44.8337 41.3125 46.0467 40.0411 47.1168C38.8842 48.0904 37.9704 48.8598 35.9983 48.8598C34.0262 48.8598 33.1124 48.0906 31.9555 47.1166C30.6842 46.0466 29.2434 44.8337 26.4327 44.8337C23.6218 44.8337 22.1808 46.0465 20.9094 47.1166C19.7523 48.0904 18.8384 48.8598 16.8657 48.8598C14.893 48.8598 13.9793 48.0906 12.822 47.1166C11.7375 46.204 10.5266 45.1899 8.45044 44.9108V41.3854C8.45114 38.6402 10.6845 36.4068 13.4298 36.4068ZM8.45114 47.2376C9.68034 47.4792 10.4385 48.1134 11.343 48.8747C12.6143 49.9447 14.0553 51.1576 16.8663 51.1576C19.6772 51.1576 21.1181 49.9449 22.3896 48.8747C23.5467 47.9009 24.4607 47.1315 26.4333 47.1315C28.4054 47.1315 29.3192 47.9007 30.4761 48.8746C31.7474 49.9446 33.1882 51.1576 35.9989 51.1576C38.8095 51.1576 40.2503 49.9446 41.5216 48.8746C42.6786 47.9009 43.5923 47.1315 45.5645 47.1315C47.5372 47.1315 48.4511 47.9007 49.6081 48.8747C50.8795 49.9447 52.3205 51.1576 55.1315 51.1576C57.9424 51.1576 59.3833 49.9449 60.6547 48.8747C61.5599 48.1128 62.3187 47.478 63.5494 47.2371V59.3587H8.45114V47.2376ZM68.5531 63.9545H67.2386C67.2355 63.9545 67.2323 63.9545 67.2293 63.9545H58.0229C57.3882 63.9545 56.874 64.4688 56.874 65.1034C56.874 65.738 57.3882 66.2523 58.0229 66.2523H65.4463L65.0257 67.1987C64.5245 68.3267 63.0017 69.3161 61.7673 69.3161H10.2324C8.99803 69.3161 7.47548 68.3267 6.97416 67.1987L6.55355 66.2523H53.4272C54.0619 66.2523 54.5761 65.738 54.5761 65.1034C54.5761 64.4688 54.0619 63.9545 53.4272 63.9545H4.7662C4.76311 63.9545 3.44672 63.9545 3.44672 63.9545C2.81306 63.9545 2.29781 63.4391 2.29781 62.8056C2.29781 62.1721 2.8132 61.6567 3.44672 61.6567H68.5531C69.1868 61.6567 69.702 62.1721 69.702 62.8056C69.702 63.4391 69.1868 63.9545 68.5531 63.9545Z" fill="black"/>
</g>
<defs>
<clipPath id="clip0_345_513">
<rect width="72" height="72" fill="white"/>
</clipPath>
</defs>
</svg>
