<svg width="72" height="72" viewBox="0 0 72 72" fill="none" xmlns="http://www.w3.org/2000/svg">
<path d="M49.1106 21.5693C49.5719 21.2346 50.0118 20.8612 50.4237 20.4472C53.4792 17.3768 54.3961 12.7956 52.7595 8.77593C52.7041 8.63981 52.6224 8.51817 52.5211 8.41635C52.4197 8.31426 52.2982 8.23213 52.163 8.17673C48.1633 6.53198 43.6045 7.45349 40.549 10.524C38.272 12.8119 37.1837 15.9392 37.4536 19.0476C41.7782 19.1805 45.7749 19.9265 49.1106 21.5693Z" fill="#009175"/>
<path d="M41.6033 19.3877L52.5211 8.4166C52.4197 8.3145 52.2982 8.23238 52.163 8.17697C48.1633 6.53222 43.6045 7.45374 40.549 10.5243C38.272 12.8121 37.1837 15.9395 37.4536 19.0478C38.8764 19.0914 40.2637 19.2013 41.6033 19.3877Z" fill="#78B918"/>
<path d="M22.8892 21.5694C26.2248 19.9266 30.2215 19.1806 34.5462 19.0478C34.816 15.9395 33.7277 12.8124 31.4509 10.5243C28.3954 7.45374 23.8366 6.53222 19.8369 8.17697C19.7016 8.23266 19.5803 8.3145 19.4788 8.4166C19.3771 8.51841 19.2958 8.64033 19.2403 8.77646C17.6038 12.7958 18.5208 17.3769 21.576 20.4475C21.9881 20.8613 22.4278 21.2347 22.8892 21.5694Z" fill="#009175"/>
<path d="M22.8892 21.5694C25.1275 20.4671 27.6634 19.7683 30.3963 19.3876L19.4788 8.4165C19.3771 8.51832 19.2958 8.64024 19.2403 8.77636C17.6038 12.7957 18.5208 17.3768 21.576 20.4474C21.9881 20.8614 22.4278 21.2348 22.8892 21.5694Z" fill="#78B918"/>
<path d="M36 19.0249C37.6469 19.0249 39.2525 19.1077 40.8004 19.286C42.1881 17.4551 42.9826 15.1846 42.9826 12.7742C42.9826 8.43174 40.4073 4.54107 36.422 2.86159C36.287 2.80477 36.1436 2.77637 36.0002 2.77637C35.8566 2.77637 35.7131 2.80477 35.5783 2.86159C31.593 4.54107 29.0177 8.43174 29.0177 12.7742C29.0177 15.1844 29.8122 17.4549 31.1999 19.286C32.7475 19.1076 34.3532 19.0249 36 19.0249Z" fill="#009175"/>
<path d="M36 19.0249V2.77637C35.8565 2.77637 35.713 2.80477 35.5782 2.86159C31.5928 4.54107 29.0176 8.43174 29.0176 12.7742C29.0176 15.1844 29.8121 17.4549 31.1998 19.286C32.7475 19.1076 34.3532 19.0249 36 19.0249Z" fill="#78B918"/>
<path d="M58.7638 39.9544C58.7638 56.1185 45.1058 69.2225 36 69.2225C27.4004 69.2225 13.2362 56.1185 13.2362 39.9544C13.2362 23.7903 23.428 19.0249 36 19.0249C48.5722 19.0249 58.7638 23.7903 58.7638 39.9544Z" fill="#F2385A"/>
<path d="M52.4618 58.2793C51.196 57.4714 49.6957 57.002 48.0854 57.002C45.6765 57.002 43.5116 58.0486 42.0149 59.7138C40.5182 58.0486 38.3532 57.002 35.9445 57.002C33.5358 57.002 31.3707 58.0486 29.874 59.7138C28.3774 58.0486 26.2123 57.002 23.8037 57.002C22.2402 57.002 20.7798 57.4434 19.538 58.2078C24.3964 64.9156 31.0654 69.2023 35.9444 69.2023C41.0923 69.2024 47.6943 64.946 52.4618 58.2793Z" fill="#8C6239"/>
<path d="M17.8733 34.2432C17.2647 34.2432 16.7712 34.7365 16.7712 35.3452V37.007C16.7712 37.6158 17.2647 38.1091 17.8733 38.1091C18.4819 38.1091 18.9754 37.6156 18.9754 37.007V35.3452C18.9754 34.7366 18.4819 34.2432 17.8733 34.2432Z" fill="#B1301B"/>
<path d="M25.1239 34.2432C24.5153 34.2432 24.0219 34.7365 24.0219 35.3452V37.007C24.0219 37.6158 24.5153 38.1091 25.1239 38.1091C25.7326 38.1091 26.226 37.6156 26.226 37.007V35.3452C26.2259 34.7366 25.7327 34.2432 25.1239 34.2432Z" fill="#B1301B"/>
<path d="M32.3747 34.2432C31.766 34.2432 31.2726 34.7365 31.2726 35.3452V37.007C31.2726 37.6158 31.766 38.1091 32.3747 38.1091C32.9833 38.1091 33.4767 37.6156 33.4767 37.007V35.3452C33.4767 34.7366 32.9833 34.2432 32.3747 34.2432Z" fill="#B1301B"/>
<path d="M39.6255 34.2432C39.0169 34.2432 38.5234 34.7365 38.5234 35.3452V37.007C38.5234 37.6158 39.0169 38.1091 39.6255 38.1091C40.2341 38.1091 40.7276 37.6156 40.7276 37.007V35.3452C40.7275 34.7366 40.2341 34.2432 39.6255 34.2432Z" fill="#B1301B"/>
<path d="M46.8761 34.2432C46.2675 34.2432 45.774 34.7365 45.774 35.3452V37.007C45.774 37.6158 46.2675 38.1091 46.8761 38.1091C47.4848 38.1091 47.9782 37.6156 47.9782 37.007V35.3452C47.9782 34.7366 47.4848 34.2432 46.8761 34.2432Z" fill="#B1301B"/>
<path d="M54.1267 34.2432C53.5181 34.2432 53.0247 34.7365 53.0247 35.3452V37.007C53.0247 37.6158 53.5181 38.1091 54.1267 38.1091C54.7354 38.1091 55.2288 37.6156 55.2288 37.007V35.3452C55.2287 34.7366 54.7354 34.2432 54.1267 34.2432Z" fill="#B1301B"/>
<path d="M21.4988 26.0769C20.8902 26.0769 20.3967 26.5702 20.3967 27.179V28.8407C20.3967 29.4495 20.8902 29.9428 21.4988 29.9428C22.1074 29.9428 22.6009 29.4495 22.6009 28.8407V27.179C22.6009 26.5701 22.1074 26.0769 21.4988 26.0769Z" fill="#B1301B"/>
<path d="M28.7493 26.0769C28.1407 26.0769 27.6472 26.5702 27.6472 27.179V28.8407C27.6472 29.4495 28.1407 29.9428 28.7493 29.9428C29.3579 29.9428 29.8514 29.4495 29.8514 28.8407V27.179C29.8514 26.5701 29.3579 26.0769 28.7493 26.0769Z" fill="#B1301B"/>
<path d="M36 26.0769C35.3914 26.0769 34.8979 26.5702 34.8979 27.179V28.8407C34.8979 29.4495 35.3914 29.9428 36 29.9428C36.6087 29.9428 37.1021 29.4495 37.1021 28.8407V27.179C37.1021 26.5701 36.6087 26.0769 36 26.0769Z" fill="#B1301B"/>
<path d="M43.2506 26.0769C42.642 26.0769 42.1486 26.5702 42.1486 27.179V28.8407C42.1486 29.4495 42.642 29.9428 43.2506 29.9428C43.8593 29.9428 44.3527 29.4495 44.3527 28.8407V27.179C44.3527 26.5701 43.8593 26.0769 43.2506 26.0769Z" fill="#B1301B"/>
<path d="M50.5014 26.0769C49.8927 26.0769 49.3993 26.5702 49.3993 27.179V28.8407C49.3993 29.4495 49.8927 29.9428 50.5014 29.9428C51.11 29.9428 51.6034 29.4495 51.6034 28.8407V27.179C51.6034 26.5701 51.1101 26.0769 50.5014 26.0769Z" fill="#B1301B"/>
<path d="M25.1239 49.7671C24.5153 49.7671 24.0219 50.2604 24.0219 50.8692V52.5309C24.0219 53.1397 24.5153 53.633 25.1239 53.633C25.7326 53.633 26.226 53.1397 26.226 52.5309V50.8692C26.2259 50.2604 25.7327 49.7671 25.1239 49.7671Z" fill="#B1301B"/>
<path d="M32.3747 49.7671C31.766 49.7671 31.2726 50.2604 31.2726 50.8692V52.5309C31.2726 53.1397 31.766 53.633 32.3747 53.633C32.9833 53.633 33.4767 53.1397 33.4767 52.5309V50.8692C33.4767 50.2604 32.9833 49.7671 32.3747 49.7671Z" fill="#B1301B"/>
<path d="M39.6255 49.7671C39.0169 49.7671 38.5234 50.2604 38.5234 50.8692V52.5309C38.5234 53.1397 39.0169 53.633 39.6255 53.633C40.2341 53.633 40.7276 53.1397 40.7276 52.5309V50.8692C40.7275 50.2604 40.2341 49.7671 39.6255 49.7671Z" fill="#B1301B"/>
<path d="M46.8761 49.7671C46.2675 49.7671 45.774 50.2604 45.774 50.8692V52.5309C45.774 53.1397 46.2675 53.633 46.8761 53.633C47.4848 53.633 47.9782 53.1397 47.9782 52.5309V50.8692C47.9782 50.2604 47.4848 49.7671 46.8761 49.7671Z" fill="#B1301B"/>
<path d="M21.4988 41.8521C20.8902 41.8521 20.3967 42.3454 20.3967 42.9541V44.6159C20.3967 45.2247 20.8902 45.718 21.4988 45.718C22.1074 45.718 22.6009 45.2247 22.6009 44.6159V42.9541C22.6009 42.3455 22.1074 41.8521 21.4988 41.8521Z" fill="#B1301B"/>
<path d="M28.7493 41.8521C28.1407 41.8521 27.6472 42.3454 27.6472 42.9541V44.6159C27.6472 45.2247 28.1407 45.718 28.7493 45.718C29.3579 45.718 29.8514 45.2247 29.8514 44.6159V42.9541C29.8514 42.3455 29.3579 41.8521 28.7493 41.8521Z" fill="#B1301B"/>
<path d="M36 41.8521C35.3914 41.8521 34.8979 42.3454 34.8979 42.9541V44.6159C34.8979 45.2247 35.3914 45.718 36 45.718C36.6087 45.718 37.1021 45.2247 37.1021 44.6159V42.9541C37.1021 42.3455 36.6087 41.8521 36 41.8521Z" fill="#B1301B"/>
<path d="M43.2506 41.8521C42.642 41.8521 42.1486 42.3454 42.1486 42.9541V44.6159C42.1486 45.2247 42.642 45.718 43.2506 45.718C43.8593 45.718 44.3527 45.2247 44.3527 44.6159V42.9541C44.3527 42.3455 43.8593 41.8521 43.2506 41.8521Z" fill="#B1301B"/>
<path d="M50.5014 41.8521C49.8927 41.8521 49.3993 42.3454 49.3993 42.9541V44.6159C49.3993 45.2247 49.8927 45.718 50.5014 45.718C51.11 45.718 51.6034 45.2247 51.6034 44.6159V42.9541C51.6034 42.3455 51.1101 41.8521 50.5014 41.8521Z" fill="#B1301B"/>
<path opacity="0.1" d="M19.396 39.9543C19.396 25.1333 27.9647 19.8963 39.08 19.128C38.0725 19.0584 37.0448 19.0247 36.0001 19.0247C23.4281 19.0247 13.2363 23.7902 13.2363 39.9543C13.2363 56.1184 27.4004 69.2224 36 69.2224C37.0015 69.2224 38.0583 69.0635 39.1459 68.7599C30.6153 66.3022 19.396 54.3405 19.396 39.9543Z" fill="black"/>
<path d="M52.774 22.5591C52.2313 22.1359 51.6553 21.7424 51.0488 21.377C51.101 21.3265 51.1536 21.2764 51.205 21.2249C54.573 17.8402 55.584 12.7907 53.7803 8.36071C53.67 8.09001 53.5095 7.84757 53.3032 7.64029C53.0955 7.4309 52.8522 7.26847 52.5822 7.15794C51.1496 6.56887 49.6431 6.27032 48.104 6.27032C46.2546 6.27032 44.4704 6.70077 42.8595 7.50951C41.6269 5.00976 39.528 2.97505 36.8495 1.84626C36.3082 1.61858 35.6911 1.61858 35.1503 1.84654C32.4722 2.97519 30.3731 5.00976 29.1408 7.50951C27.53 6.70077 25.7459 6.27032 23.8965 6.27032C22.3574 6.27032 20.8506 6.56887 19.4182 7.15808C19.1466 7.26974 18.9042 7.43202 18.6989 7.63874C18.4923 7.84588 18.3314 8.08888 18.2202 8.36127C16.4167 12.7908 17.4275 17.8402 20.7954 21.2252C20.8469 21.277 20.8995 21.3269 20.9517 21.3772C20.3453 21.7429 19.7693 22.1362 19.2266 22.5593C14.5209 26.2284 12.1348 32.081 12.1348 39.9548C12.1348 47.5311 15.1281 55.1381 20.563 61.3744C25.3745 66.8952 31.2899 70.3249 36.0005 70.3249C39.847 70.3249 44.4304 68.199 48.5755 64.4927C52.9197 60.6081 56.3419 55.4151 58.2117 49.8703C58.406 49.2936 58.0962 48.6683 57.5194 48.4738C56.9431 48.2794 56.3175 48.5892 56.123 49.1659C55.2083 51.8782 53.8965 54.4999 52.2725 56.9043C50.9789 56.2459 49.5485 55.9001 48.0858 55.9001C45.8492 55.9001 43.6923 56.717 42.0155 58.1718C41.1776 57.4443 40.2129 56.8682 39.1777 56.4816C38.6076 56.269 37.9728 56.5582 37.7597 57.1286C37.5468 57.6988 37.8367 58.3335 38.4067 58.5465C39.4676 58.9425 40.4322 59.6011 41.1958 60.4507C41.4047 60.6832 41.7027 60.8161 42.0153 60.8161C42.3281 60.8161 42.6261 60.6832 42.8349 60.4507C44.1753 58.9596 46.089 58.1043 48.0855 58.1043C49.0812 58.1043 50.0575 58.3146 50.957 58.7173C49.7905 60.2144 48.4988 61.604 47.1058 62.8497C43.3594 66.1996 39.3115 68.1208 36.0001 68.1208C31.9699 68.1208 26.5625 64.9042 22.2242 59.9262C21.8881 59.5406 21.5253 59.1044 21.1477 58.6243C21.9868 58.2827 22.8881 58.1043 23.8042 58.1043C25.8007 58.1043 27.7146 58.9594 29.0548 60.4507C29.2637 60.6832 29.5617 60.8161 29.8743 60.8161C30.1871 60.8161 30.4851 60.6832 30.6939 60.4507C31.7188 59.3104 33.1038 58.523 34.5937 58.2336C35.1912 58.1176 35.5815 57.5391 35.4653 56.9417C35.3494 56.3441 34.7709 55.9538 34.1734 56.07C32.5901 56.3775 31.098 57.1119 29.8747 58.1723C28.1979 56.7171 26.041 55.9003 23.8041 55.9003C22.4159 55.9003 21.0528 56.2113 19.8113 56.806C17.1611 52.9411 14.3384 47.139 14.3384 39.9548C14.3384 26.6128 21.424 20.1272 36.0001 20.1272C50.5762 20.1272 57.6618 26.6126 57.6618 39.9545C57.6618 41.5538 57.5208 43.1754 57.2423 44.7741C57.1379 45.3736 57.5393 45.9444 58.139 46.0488C58.7392 46.154 59.3094 45.7516 59.4136 45.1521C59.7137 43.4288 59.8658 41.6801 59.8658 39.9545C59.8657 32.0806 57.4797 26.228 52.774 22.5591ZM23.038 20.2874C22.8036 20.0931 22.5752 19.8891 22.3572 19.6702C19.908 17.2084 18.9911 13.6651 19.8659 10.368L28.1271 18.6699C26.2721 19.0582 24.574 19.5979 23.038 20.2874ZM28.2801 15.6988L21.4194 8.80424C22.2267 8.58641 23.0554 8.47405 23.8961 8.47405C25.4726 8.47405 26.9912 8.85908 28.3502 9.58133C28.0666 10.604 27.9154 11.6757 27.9154 12.7742C27.9156 13.7772 28.0423 14.7576 28.2801 15.6988ZM40.2728 18.1251C39.254 18.0243 38.1969 17.9616 37.102 17.9363V13.664C37.102 13.0552 36.6086 12.5619 36 12.5619C35.3913 12.5619 34.8979 13.0552 34.8979 13.664V17.9361C33.803 17.9615 32.7459 18.0243 31.7271 18.125C30.6995 16.5752 30.1196 14.7257 30.1196 12.7741C30.1196 9.29235 31.9643 6.13518 34.8979 4.42658V9.69707C34.8979 10.3058 35.3913 10.7991 36 10.7991C36.6086 10.7991 37.102 10.3058 37.102 9.69707V4.43179C40.0394 6.14165 41.8805 9.29586 41.8805 12.7742C41.8805 14.7258 41.3004 16.5752 40.2728 18.1251ZM43.6497 9.58147C45.0087 8.85894 46.5274 8.47405 48.104 8.47405C48.9455 8.47405 49.775 8.58669 50.5814 8.80354L43.7197 15.6987C43.9576 14.7573 44.0842 13.7772 44.0842 12.7742C44.0845 11.6758 43.9332 10.6042 43.6497 9.58147ZM48.9618 20.2874C47.4259 19.5981 45.7278 19.0583 43.8727 18.6699L52.132 10.3702C53.008 13.669 52.0908 17.2101 49.6427 19.6703C49.4247 19.8891 49.1962 20.0928 48.9618 20.2874Z" fill="black"/>
</svg>
