<svg width="72" height="72" viewBox="0 0 72 72" fill="none" xmlns="http://www.w3.org/2000/svg">
<path d="M54.3829 22.611V19.532C54.3829 9.3956 46.1364 1.14893 36 1.14893L45.2069 49.3736C47.0696 49.3736 48.6634 49.3736 49.8026 49.3736C57.4086 49.3736 63.5746 43.2076 63.5746 35.6016C63.5745 29.6017 59.7371 24.4989 54.3829 22.611Z" fill="#701534"/>
<path d="M58.9787 36.6018C58.9787 30.6017 55.1413 25.4989 49.7871 23.611V20.532C49.7873 10.3956 43.6023 2.14893 36 2.14893C25.8636 2.14893 17.6171 10.3956 17.6171 20.5318V23.6108C12.2631 25.4986 8.42554 30.6016 8.42554 36.6016C8.42554 44.2076 14.5915 50.3736 22.1975 50.3736C26.6317 50.3736 37.9559 50.3736 45.2068 50.3736C52.8127 50.3736 58.9787 44.2076 58.9787 36.6018Z" fill="#971D1D"/>
<path d="M20.6656 17.2341C18.1273 17.2341 16.0698 19.2918 16.0698 21.8299C16.0698 24.3682 18.1273 26.4257 20.6656 26.4257H36V17.2341H20.6656Z" fill="#FEC8BB"/>
<path d="M51.3345 17.2341H36V26.4257H51.3345C53.8727 26.4257 55.9302 24.3682 55.9302 21.8299C55.9302 19.2918 53.8726 17.2341 51.3345 17.2341Z" fill="#FE9F88"/>
<path d="M22.4053 17.2295C22.4155 17.1685 22.4258 17.1105 22.4361 17.05C22.4252 17.1097 22.4154 17.1696 22.4053 17.2295Z" fill="#F59249"/>
<path d="M49.595 17.2316L43.8183 12.2817L36.0057 37.915C43.6175 37.9118 49.7871 31.7403 49.7871 24.1277V19.5319C49.7873 18.748 49.7208 17.9797 49.595 17.2316Z" fill="#FE9F88"/>
<path d="M45.1916 24.1276V19.5318C45.1916 16.8716 44.6886 14.3883 43.8185 12.2817L36.1921 5.74702C36.1282 5.74603 36.0642 5.74463 36 5.74463C35.9359 5.74463 35.8719 5.74618 35.808 5.74702L22.405 17.2314C22.2794 17.9796 22.2129 18.7479 22.2129 19.5318V24.1276C22.2129 31.7421 28.3856 37.9148 36.0002 37.9148C41.0796 37.9101 45.1916 31.7393 45.1916 24.1276Z" fill="#FEC8BB"/>
<path d="M38.9125 25.343C38.315 25.1306 37.6577 25.4427 37.4452 26.0408C37.2283 26.6508 36.6476 27.0606 36 27.0606C35.3525 27.0606 34.7718 26.6508 34.555 26.0408C34.3425 25.4428 33.6854 25.1306 33.0876 25.343C32.4896 25.5556 32.1773 26.2125 32.3898 26.8104C32.9316 28.3345 34.3824 29.3584 36 29.3584C37.6178 29.3584 39.0685 28.3345 39.6102 26.8104C39.8228 26.2126 39.5105 25.5556 38.9125 25.343Z" fill="#BE2428"/>
<path d="M27.5744 26.4255C28.8435 26.4255 29.8722 25.3967 29.8722 24.1276C29.8722 22.8586 28.8435 21.8298 27.5744 21.8298C26.3054 21.8298 25.2766 22.8586 25.2766 24.1276C25.2766 25.3967 26.3054 26.4255 27.5744 26.4255Z" fill="#FE9F88"/>
<path d="M45.1915 21.9634L43.6016 24.1265L45.0742 26.3312C46.0272 26.0511 46.7234 25.1713 46.7234 24.1277C46.7233 23.1276 46.0833 22.2791 45.1915 21.9634Z" fill="#FD7555"/>
<path d="M45.1915 21.9634C44.9516 21.8784 44.6945 21.8298 44.4255 21.8298C43.1565 21.8298 42.1277 22.8586 42.1277 24.1276C42.1277 25.3966 43.1565 26.4255 44.4255 26.4255C44.6511 26.4255 44.8682 26.3916 45.0741 26.3311C45.1508 25.6135 45.1913 24.8776 45.1913 24.1276V21.9634H45.1915Z" fill="#FE9F88"/>
<path d="M9.95752 57.8297V70.851H19.1489L22.2127 54.7659L9.95752 57.8297Z" fill="#FEC8BB"/>
<path d="M31.4985 53.9059L23.7447 42.5107H16.0851C12.7008 42.5107 9.95752 45.2542 9.95752 48.6383V57.8299H19.1491V66.2554L31.4985 53.9059Z" fill="#E9F1DF"/>
<path d="M23.7446 42.5107C23.7446 49.2683 29.2424 54.7661 36 54.7661C36.0015 54.7661 36.1028 54.7661 36.1028 54.7661L36.1165 54.7655C42.8204 54.7028 48.2553 49.2285 48.2553 42.5107H23.7446Z" fill="#FEC8BB"/>
<path d="M55.9149 42.5107H51.3191L57.4467 70.8512H62.0425V48.6383C62.0425 45.2542 59.2991 42.5107 55.9149 42.5107Z" fill="#D42F4D"/>
<path d="M51.3191 42.5107H42.8936L19.1489 66.2554V70.8512H57.4467V48.6383C57.4469 45.2542 54.7034 42.5107 51.3191 42.5107Z" fill="#F2385A"/>
<path d="M49.595 17.2317C48.5101 10.7737 42.9364 5.83956 36.192 5.74731C37.2768 12.2052 42.8506 17.1395 49.595 17.2317Z" fill="#971D2E"/>
<path d="M35.8079 5.74707C29.0635 5.83932 23.4895 10.7736 22.4049 17.2315C29.1493 17.1394 34.7231 12.2051 35.8079 5.74707Z" fill="#971D2E"/>
<path d="M64.7234 35.6017C64.7234 30.1901 61.7318 25.1647 57.032 22.5523C57.0618 22.3155 57.079 22.0746 57.079 21.8299C57.079 20.2784 56.4598 18.8696 55.4569 17.8349C54.5893 7.79766 46.1293 0 36 0C25.8708 0 17.4106 7.79766 16.543 17.8349C15.54 18.8696 14.9209 20.2783 14.9209 21.8298C14.9209 22.0746 14.938 22.3154 14.9678 22.5522C10.268 25.1647 7.27649 30.1899 7.27649 35.6016C7.27649 38.7762 8.29771 41.8697 10.1637 44.4168C9.31176 45.6083 8.80832 47.0651 8.80832 48.6381V70.8511C8.80832 71.4856 9.32272 72 9.95722 72H62.0423C62.677 72 63.1912 71.4856 63.1912 70.8511V48.6383C63.1912 47.0651 62.6878 45.6085 61.8359 44.417C63.7023 41.87 64.7234 38.7762 64.7234 35.6017ZM49.7873 22.9787C49.1526 22.9787 48.6384 23.4931 48.6384 24.1276C48.6384 31.0964 42.9688 36.7658 36.0001 36.7658C29.0313 36.7658 23.3619 31.0964 23.3619 24.1276C23.3619 23.4931 22.8475 22.9787 22.213 22.9787C21.5785 22.9787 21.0641 23.4931 21.0641 24.1276C21.0641 24.514 21.0788 24.8972 21.1079 25.2765H20.6658C18.7651 25.2765 17.219 23.7303 17.219 21.8296C17.219 19.929 18.7651 18.3828 20.6675 18.3828L21.1098 18.3822C21.0807 18.7646 21.0641 19.1485 21.0641 19.5318C21.0641 20.1663 21.5785 20.6807 22.213 20.6807C22.8475 20.6807 23.3619 20.1663 23.3619 19.5318C23.3619 19.131 23.3828 18.7301 23.4204 18.3317C29.0549 17.8803 33.8794 14.2996 36.0001 9.20714C38.1196 14.2957 42.9405 17.8751 48.5799 18.3308C48.6174 18.7296 48.6384 19.1308 48.6384 19.5315C48.6384 20.166 49.1526 20.6805 49.7873 20.6805C50.4219 20.6805 50.9362 20.166 50.9362 19.5315C50.9362 19.1482 50.9197 18.7643 50.8906 18.3819L51.3344 18.3826C53.235 18.3826 54.7813 19.9288 54.7813 21.8295C54.7813 23.7302 53.235 25.2764 51.3344 25.2764H50.8925C50.9214 24.8971 50.9363 24.5139 50.9363 24.1275C50.9362 23.4931 50.4219 22.9787 49.7873 22.9787ZM36 2.29781C44.3496 2.29781 51.4133 8.30194 52.9308 16.3122C52.424 16.1653 51.8895 16.085 51.336 16.085L49.6108 16.0826C43.5025 15.999 38.3355 11.5723 37.3251 5.55666C37.2323 5.0033 36.7532 4.59802 36.1921 4.59802H35.8079C35.2468 4.59802 34.7677 5.0033 34.6749 5.55652C33.6645 11.5722 28.4974 15.9992 22.4034 16.0824L20.6655 16.0851C20.1115 16.0851 19.5763 16.1655 19.069 16.3126C20.5865 8.30222 27.6504 2.29781 36 2.29781ZM15.73 24.765C16.7334 26.4458 18.5697 27.5745 20.6655 27.5745H21.466C23.0262 34.154 28.9502 39.0638 36 39.0638C43.0498 39.0638 48.9738 34.154 50.534 27.5745H51.3344C53.4303 27.5745 55.2666 26.4459 56.27 24.765C60.0431 27.0263 62.4255 31.1603 62.4255 35.6016C62.4255 38.1642 61.6403 40.6651 60.1973 42.7604C58.9948 41.8819 57.5148 41.3616 55.9149 41.3616H16.0851C14.4852 41.3616 13.0051 41.8818 11.8026 42.7604C10.3597 40.665 9.57444 38.1641 9.57444 35.6016C9.57444 31.1603 11.9569 27.0263 15.73 24.765ZM20.2978 53.234C20.2978 52.5995 19.7834 52.0851 19.1489 52.0851C18.5144 52.0851 18 52.5995 18 53.234V56.6809H11.1064V48.6384C11.1064 45.8932 13.34 43.6597 16.0851 43.6597H22.6462C22.844 45.9809 23.6383 48.197 24.9764 50.1268C26.1692 51.8469 27.726 53.2478 29.5345 54.245L20.2978 63.4815V53.234ZM31.2398 52.5396C27.7082 50.8657 25.3476 47.5161 24.9536 43.6596H40.1197L31.2398 52.5396ZM11.1064 58.9787H18V69.702H11.1064V58.9787ZM60.8936 69.7022H54V53.234C54 52.5995 53.4857 52.0851 52.8511 52.0851C52.2164 52.0851 51.7022 52.5995 51.7022 53.234V69.7022H20.2978V66.7312L43.3694 43.6597H55.9147C58.66 43.6597 60.8934 45.8932 60.8934 48.6384L60.8936 69.7022Z" fill="black"/>
<path d="M33.0893 20.2977V19.5317C33.0893 18.8972 32.5749 18.3828 31.9404 18.3828H29.3362C28.7017 18.3828 28.1873 18.8972 28.1873 19.5317C28.1873 20.1662 28.7017 20.6806 29.3362 20.6806H30.8569C31.0145 21.1268 31.4402 21.4466 31.9404 21.4466C32.5749 21.4467 33.0893 20.9323 33.0893 20.2977Z" fill="black"/>
<path d="M42.6638 18.3828H40.0596C39.4249 18.3828 38.9106 18.8972 38.9106 19.5317V20.2977C38.9106 20.9322 39.4249 21.4466 40.0596 21.4466C40.5599 21.4466 40.9854 21.127 41.1431 20.6806H42.6638C43.2984 20.6806 43.8127 20.1662 43.8127 19.5317C43.8127 18.8972 43.2984 18.3828 42.6638 18.3828Z" fill="black"/>
</svg>
