<svg width="72" height="72" viewBox="0 0 72 72" fill="none" xmlns="http://www.w3.org/2000/svg">
<g clipPath="url(#clip0_551_2)">
<path d="M50.5877 22.2804L66.8622 24.5434C70.5237 25.0525 72.0121 29.5393 69.3807 32.1359L57.6851 43.6768C56.6402 44.7079 56.1696 46.1873 56.4265 47.6325L59.3032 63.8098C59.9505 67.4495 56.1433 70.2514 52.8607 68.5511L38.2704 60.9945C36.967 60.3194 35.4146 60.3288 34.1196 61.0199L19.623 68.755C16.3615 70.4952 12.5204 67.7403 13.1228 64.093L15.801 47.8817C16.0403 46.4332 15.5515 44.96 14.494 43.9418L2.65792 32.545C-0.00509343 29.9808 1.42815 25.4762 5.08313 24.9223L21.3287 22.4599C22.7802 22.2399 24.0302 21.3199 24.6719 19.9996L31.8534 5.22104C33.4692 1.89597 38.196 1.86714 39.8526 5.17196L47.2146 19.8615C47.8724 21.1737 49.1337 22.0781 50.5877 22.2804Z" fill="#F7CF6D"/>
<path d="M17.0176 30.4645C17.0176 27.9265 17.2705 25.4532 17.6417 23.0188L5.0831 24.922C1.42798 25.4761 -0.00498105 29.9806 2.65789 32.5449L14.4946 43.9418C15.5518 44.9601 16.0406 46.4332 15.801 47.8817L13.1228 64.093C12.5199 67.7403 16.3618 70.4952 19.623 68.755L29.749 63.3519C21.863 54.6468 17.0176 43.1357 17.0176 30.4645Z" fill="#FFE571"/>
<path d="M69.3812 32.1362C72.0123 29.5397 70.5238 25.053 66.8626 24.5438L50.588 22.2805C49.1339 22.0783 47.8722 21.1737 47.2151 19.8612L39.8531 5.17172C38.196 1.8669 33.469 1.89572 31.8538 5.2208L28.7903 11.5237C39.2383 18.497 46.1259 30.3855 46.1259 43.8891C46.1259 50.6668 44.385 57.0344 41.3379 62.583L52.8607 68.5511C56.1432 70.2513 59.9506 67.4495 59.3036 63.8098L56.4263 47.6327C56.1696 46.1873 56.6402 44.7081 57.6849 43.677L69.3812 32.1362Z" fill="#DD8E40"/>
<path d="M70.2849 33.0542C71.8536 31.5062 72.3971 29.2452 71.7033 27.1535C71.0093 25.0617 69.2224 23.5739 67.0397 23.2705C66.3372 23.1739 65.6851 23.6639 65.5872 24.3683C65.4893 25.0726 65.9808 25.723 66.6851 25.8208C67.9082 25.9907 68.8705 26.7923 69.2595 27.9642C69.6485 29.1365 69.3558 30.3543 68.4766 31.2217L56.781 42.7626C55.434 44.0916 54.8276 45.9974 55.1592 47.8601L58.0359 64.0374C58.2522 65.2533 57.7876 66.416 56.7928 67.148C55.7979 67.8803 54.5497 67.9779 53.453 67.41L38.8628 59.8533C37.1824 58.9832 35.1827 58.9952 33.5138 59.8861L19.0172 67.6211C17.9274 68.2025 16.6779 68.1199 15.6743 67.4001C14.6707 66.6803 14.1917 65.523 14.3929 64.3049L17.0714 48.0935C17.3801 46.2269 16.7504 44.3287 15.3873 43.0164L3.55118 31.6195C2.66145 30.763 2.3539 29.5489 2.72853 28.3721C3.10287 27.1952 4.05532 26.3819 5.27651 26.1969L21.5222 23.7345C23.3926 23.451 25.0032 22.2656 25.8305 20.564L33.0121 5.78505C33.5518 4.67426 34.6111 4.00671 35.8462 3.99926C35.8532 3.99926 35.8603 3.99926 35.8674 3.99926C37.0934 3.99926 38.1522 4.65274 38.7023 5.75046L46.0644 20.44C46.912 22.1314 48.5369 23.2969 50.411 23.5575L54.3675 24.1076C55.0707 24.2059 55.7221 23.7141 55.82 23.0098C55.9179 22.3055 55.4264 21.6551 54.7221 21.5572L50.7657 21.0071C49.7311 20.8633 48.834 20.2199 48.3662 19.2863L41.0038 4.59677C40.0218 2.63745 38.0557 1.42456 35.8665 1.42456C35.8545 1.42456 35.8421 1.42456 35.83 1.42456C33.6262 1.43806 31.659 2.67795 30.6958 4.66005L23.5145 19.4389C23.0579 20.3782 22.1688 21.0327 21.1363 21.1892L4.89035 23.6511C2.71137 23.9813 0.942877 25.4912 0.274628 27.5912C-0.393621 29.6913 0.177597 31.9455 1.76511 33.4738L13.6012 44.8707C14.3537 45.5952 14.7012 46.643 14.5309 47.6734L11.8527 63.885C11.4934 66.0593 12.383 68.2081 14.1736 69.4923C15.1756 70.211 16.3434 70.5755 17.5183 70.5755C18.4432 70.5755 19.3726 70.3497 20.2289 69.8926L34.7256 62.1576C35.6467 61.6657 36.7507 61.6588 37.6783 62.1396L52.2685 69.6963C54.225 70.7094 56.5434 70.5281 58.3187 69.2216C60.0936 67.9153 60.9564 65.7559 60.5704 63.5863L57.6937 47.409C57.5109 46.3806 57.8454 45.3287 58.589 44.5951L70.2849 33.0542Z" fill="#1C2042"/>
<path d="M18.6868 62.9147C17.9887 62.7796 17.5324 62.1042 17.6675 61.4061L19.2642 53.1592C19.3993 52.4611 20.0747 52.0048 20.7728 52.1399C21.4708 52.2751 21.9272 52.9505 21.792 53.6485L20.1954 61.8955C20.0604 62.5935 19.385 63.0497 18.6868 62.9147Z" fill="white"/>
</g>
<defs>
<clipPath id="clip0_551_2">
<rect width="72" height="72" fill="white"/>
</clipPath>
</defs>
</svg>
