<svg width="76" height="76" viewBox="0 0 76 76" fill="none" xmlns="http://www.w3.org/2000/svg">
<path d="M65.9835 45.2572H74.2857L62.7176 74.5869H55.3371L63.4494 45.2572H65.9835Z" fill="#F7B239"/>
<path d="M63.4495 45.2572L55.3372 74.5869H45.4774L48.9767 45.2572H63.4495Z" fill="#F7B239"/>
<path d="M48.9767 45.2572L45.4774 74.5869H30.522L27.025 45.2572H48.9767Z" fill="#F7B239"/>
<path d="M27.0251 45.2572L30.5221 74.5869H20.6647L12.5523 45.2572H27.0251Z" fill="#E09B2D"/>
<path d="M10.3749 45.2572H12.5523L20.6646 74.5869H13.2819L1.71597 45.2572H10.3749Z" fill="#E09B2D"/>
<path d="M47.712 9.26338C47.712 11.8854 46.1499 14.206 43.7553 15.6319H32.6034C30.2088 14.206 28.6467 11.8854 28.6467 9.26338C28.6467 4.9292 32.9144 1.41251 38.1793 1.41251C43.4465 1.41251 47.712 4.9292 47.712 9.26338Z" fill="#F95428"/>
<path d="M36.8798 9.26338C36.8798 6.14281 39.0923 3.44642 42.2963 2.18064C41.0501 1.68864 39.654 1.41269 38.1793 1.41269C32.9144 1.41269 28.6467 4.92939 28.6467 9.26357C28.6467 11.8855 30.2088 14.2062 32.6034 15.632H40.8365C38.4419 14.206 36.8798 11.8854 36.8798 9.26338Z" fill="#E54728"/>
<path d="M66.6835 33.6335C68.4079 35.0556 69.476 37.0164 69.476 39.1845C69.476 41.6332 68.1129 43.8181 65.9836 45.2572H63.4495H48.9767H27.0251H12.5523H10.3749C10.1325 45.0933 9.89923 44.9201 9.67738 44.7373C7.9529 43.3152 6.88483 41.3544 6.88483 39.1845C6.88483 34.8503 11.1549 31.3336 16.4175 31.3336H23.2674H53.0935H59.9434C62.5735 31.3336 64.9567 32.2132 66.6835 33.6335Z" fill="#B27214"/>
<path d="M43.7552 15.6319H53.0935C58.1137 15.6319 62.1847 18.9847 62.1847 23.1192V23.8482C62.1847 27.9827 58.1137 31.3336 53.0935 31.3336H23.2674C18.2472 31.3336 14.1761 27.9827 14.1761 23.8482V23.1192C14.1761 18.9847 18.2472 15.6319 23.2674 15.6319H32.6033H43.7552Z" fill="#B27214"/>
<path d="M22.3708 44.7373C22.5927 44.9201 22.8259 45.0933 23.0684 45.2572H10.3749C10.1325 45.0933 9.89923 44.9201 9.67738 44.7373C7.9529 43.3152 6.88483 41.3544 6.88483 39.1845C6.88483 34.8503 11.1549 31.3336 16.4175 31.3336H29.1109C23.8483 31.3336 19.5783 34.8503 19.5783 39.1845C19.5783 41.3544 20.6463 43.3152 22.3708 44.7373Z" fill="#995C0D"/>
<path d="M35.9607 31.3336H23.2673C18.2471 31.3336 14.1761 27.9827 14.1761 23.8482V23.1192C14.1761 18.9847 18.2471 15.6319 23.2673 15.6319H35.9607C30.9405 15.6319 26.8695 18.9847 26.8695 23.1192V23.8482C26.8695 27.9827 30.9405 31.3336 35.9607 31.3336Z" fill="#995C0D"/>
<path d="M62.6474 43.3209C62.1515 43.3209 61.6596 43.1446 61.3204 42.8042C60.7193 42.2011 60.8259 41.3109 61.5585 40.8159C62.1568 40.4115 62.5001 39.8168 62.5001 39.1845C62.5001 38.623 62.2327 38.0933 61.7474 37.693C61.2662 37.2973 60.6249 37.0786 59.9431 37.0786C58.9956 37.0786 58.2278 36.4461 58.2278 35.6659C58.2278 34.8857 58.9956 34.2532 59.9431 34.2532C61.5402 34.2532 63.0426 34.7654 64.1731 35.6951C65.3071 36.6301 65.9307 37.869 65.9307 39.1845C65.9307 40.6663 65.1303 42.057 63.7342 43.0003C63.4156 43.2158 63.0302 43.3209 62.6474 43.3209Z" fill="white"/>
<path d="M54.6862 28.1292C54.036 28.1292 53.4142 27.8231 53.1257 27.3045C52.731 26.5952 53.1095 25.7568 53.9706 25.4319C54.7228 25.148 55.2091 24.5262 55.2091 23.8481V23.1192C55.2091 22.1583 54.2602 21.3768 53.0935 21.3768C52.146 21.3768 51.3782 20.7443 51.3782 19.9641C51.3782 19.1839 52.146 18.5514 53.0935 18.5514C56.1516 18.5514 58.6397 20.6004 58.6397 23.1192V23.8481C58.6397 25.6278 57.3679 27.2576 55.3996 28.0004C55.1681 28.0879 54.9252 28.1292 54.6862 28.1292Z" fill="white"/>
<path d="M40.6746 13.5339C40.1428 13.5339 39.6186 13.3309 39.2831 12.9489C38.728 12.3165 38.9004 11.4335 39.6682 10.9763C40.3571 10.5663 40.7363 9.95788 40.7363 9.26339C40.7363 8.52408 40.2759 7.85125 39.5047 7.46342C38.6962 7.05694 38.441 6.18746 38.9345 5.52142C39.4281 4.85556 40.4834 4.64516 41.2925 5.05184C43.0925 5.95691 44.167 7.53123 44.167 9.26321C44.167 10.865 43.2599 12.3241 41.6784 13.2657C41.3746 13.4469 41.0231 13.5339 40.6746 13.5339Z" fill="white"/>
<path d="M75.6724 44.4277C75.3497 44.0619 74.8337 43.8455 74.2848 43.8455H69.6631C70.6522 42.4488 71.1915 40.849 71.1915 39.1849C71.1915 36.7122 70.0221 34.386 67.897 32.6331C65.9506 31.0322 63.4186 30.0923 60.7015 29.9443C62.6782 28.2741 63.8996 25.9945 63.8996 23.4835C63.8996 18.3755 58.8538 14.2201 52.6518 14.2201H47.6719C48.7994 12.7537 49.4277 11.0379 49.4277 9.26374C49.4274 4.15577 44.3814 -3.05176e-05 38.1792 -3.05176e-05C31.9768 -3.05176e-05 26.9308 4.15577 26.9308 9.26374C26.9308 11.0379 27.5593 12.7537 28.6868 14.2201H23.7085C17.5066 14.2201 12.4608 18.3757 12.4608 23.4835C12.4608 25.9947 13.6821 28.2742 15.659 29.9444C9.80954 30.2671 5.16947 34.2869 5.16947 39.1849C5.16947 40.8485 5.70099 42.4448 6.69428 43.8455H1.71525C1.16635 43.8455 0.650377 44.0619 0.327667 44.4277C0.00495656 44.7935 -0.0858412 45.2644 0.0840907 45.6946L11.6504 75.0237C11.8798 75.6057 12.5385 76 13.2818 76H62.7185C63.4618 76 64.1205 75.6057 64.3499 75.0237L75.916 45.6946C76.0857 45.2646 75.9951 44.7935 75.6724 44.4277ZM30.3615 9.26374C30.3615 5.71352 33.8685 2.82538 38.1792 2.82538C42.49 2.82538 45.9968 5.71352 45.9968 9.26374C45.9968 11.1801 44.9468 13.0014 43.166 14.2201H33.1924C31.4115 13.0014 30.3615 11.1801 30.3615 9.26374ZM23.7083 17.0455H52.6514C56.9619 17.0455 60.4684 19.9336 60.4684 23.4835C60.4684 27.0273 56.9738 29.9113 52.6733 29.9211H23.6863C19.3861 29.9113 15.8912 27.0275 15.8912 23.4835C15.8914 19.9336 19.398 17.0455 23.7083 17.0455ZM10.8902 43.7387C9.41342 42.5209 8.60012 40.9036 8.60012 39.1849C8.60012 35.6346 12.1072 32.7465 16.4179 32.7465H59.9433C62.0303 32.7465 63.994 33.4163 65.471 34.631C66.9476 35.849 67.7609 37.4663 67.7609 39.1849C67.7609 40.9605 66.881 42.6326 65.3315 43.8455H11.0265C10.981 43.8099 10.9332 43.7743 10.8902 43.7387ZM4.076 46.6709H11.183L18.5138 73.1746H14.5281L4.076 46.6709ZM14.7014 46.6709H25.4693L28.631 73.1746H22.0323L14.7014 46.6709ZM32.0779 73.1744L28.9165 46.6707H47.0839L43.9222 73.1744H32.0779ZM47.3693 73.1744L50.531 46.6707H61.2987L53.968 73.1744H47.3693ZM61.472 73.1744H57.4865L64.8171 46.6707H71.9241L61.472 73.1744Z" fill="#333333"/>
</svg>
