<svg width="102" height="102" viewBox="0 0 102 102" fill="none" xmlns="http://www.w3.org/2000/svg">
<path d="M86.5495 99H15.4454C14.9386 99.0005 14.4465 98.8256 14.0488 98.5036C13.651 98.1816 13.3708 97.7313 13.2536 97.2257L3.06153 53.3289C2.98254 52.9894 2.97956 52.636 3.05285 52.2952C3.12615 51.9543 3.27377 51.6349 3.48468 51.361C3.69559 51.0871 3.96427 50.8656 4.27057 50.7134C4.57687 50.5612 4.91283 50.4822 5.25321 50.4822H96.7468C97.0872 50.4822 97.4231 50.5612 97.7294 50.7134C98.0357 50.8656 98.3044 51.0871 98.5153 51.361C98.7262 51.6349 98.8739 51.9543 98.9472 52.2952C99.0205 52.636 99.0175 52.9894 98.9385 53.3289L88.7464 97.2257C88.6286 97.732 88.3475 98.1826 87.9488 98.5046C87.5501 98.8266 87.0571 99.0012 86.5495 99Z" stroke="#FBF3F3" stroke-width="6" stroke-linecap="round" stroke-linejoin="round"/>
<path d="M25.8555 50.4822L29.9672 99" stroke="#FBF3F3" stroke-width="6" stroke-linecap="round" stroke-linejoin="round"/>
<path d="M74.422 50.4822L70.3102 99" stroke="#FBF3F3" stroke-width="6" stroke-linecap="round" stroke-linejoin="round"/>
<path d="M50.8464 52.3353V97.0207" stroke="#FBF3F3" stroke-width="6" stroke-linecap="round" stroke-linejoin="round"/>
<path d="M5.24817 50.8396C5.24817 22.9612 25.7298 3 50.9949 3C76.2599 3 96.7417 22.977 96.7417 50.8396" stroke="#FBF3F3" stroke-width="6" stroke-linecap="round" stroke-linejoin="round"/>
<path d="M18.2908 37.6574C19.8241 37.6574 21.067 36.3829 21.067 34.8107C21.067 33.2385 19.8241 31.964 18.2908 31.964C16.7576 31.964 15.5146 33.2385 15.5146 34.8107C15.5146 36.3829 16.7576 37.6574 18.2908 37.6574Z" fill="#333333" stroke="#FBF3F3" stroke-width="6"/>
<path d="M40.3773 24.4779C41.9105 24.4779 43.1534 23.2033 43.1534 21.6311C43.1534 20.0589 41.9105 18.7844 40.3773 18.7844C38.844 18.7844 37.6011 20.0589 37.6011 21.6311C37.6011 23.2033 38.844 24.4779 40.3773 24.4779Z" fill="#333333" stroke="#FBF3F3" stroke-width="6"/>
<path d="M31.1642 34.5899C32.6975 34.5899 33.9404 33.3154 33.9404 31.7432C33.9404 30.171 32.6975 28.8965 31.1642 28.8965C29.631 28.8965 28.3881 30.171 28.3881 31.7432C28.3881 33.3154 29.631 34.5899 31.1642 34.5899Z" fill="#333333" stroke="#FBF3F3" stroke-width="6"/>
<path d="M28.6008 45.1041C30.134 45.1041 31.377 43.8296 31.377 42.2574C31.377 40.6852 30.134 39.4106 28.6008 39.4106C27.0675 39.4106 25.8246 40.6852 25.8246 42.2574C25.8246 43.8296 27.0675 45.1041 28.6008 45.1041Z" fill="#333333" stroke="#FBF3F3" stroke-width="6"/>
<path d="M26.8372 24.4779C28.3705 24.4779 29.6134 23.2033 29.6134 21.6311C29.6134 20.0589 28.3705 18.7844 26.8372 18.7844C25.304 18.7844 24.061 20.0589 24.061 21.6311C24.061 23.2033 25.304 24.4779 26.8372 24.4779Z" fill="#333333" stroke="#FBF3F3" stroke-width="6"/>
<path d="M41.6436 39.6262C43.1768 39.6262 44.4197 38.3517 44.4197 36.7795C44.4197 35.2073 43.1768 33.9327 41.6436 33.9327C40.1103 33.9327 38.8674 35.2073 38.8674 36.7795C38.8674 38.3517 40.1103 39.6262 41.6436 39.6262Z" fill="#333333" stroke="#FBF3F3" stroke-width="6"/>
</svg>
