<svg width="121" height="121" viewBox="0 0 121 121" fill="none" xmlns="http://www.w3.org/2000/svg">
<path d="M16.7879 87.5003L109.392 62.687L104.531 44.5437L11.9264 69.357L16.7879 87.5003Z" stroke="#FBF3F3" stroke-width="6" stroke-linecap="round" stroke-linejoin="round"/>
<path d="M19.7669 98.6174L112.371 73.8042L109.392 62.687L16.788 87.5003L19.7669 98.6174Z" stroke="#FBF3F3" stroke-width="6" stroke-linecap="round" stroke-linejoin="round"/>
<path d="M24.8466 117.576L117.451 92.7623L112.371 73.8039L19.7667 98.6171L24.8466 117.576Z" stroke="#FBF3F3" stroke-width="6" stroke-linecap="round" stroke-linejoin="round"/>
<path d="M49.3199 36.7502L104.655 44.5101L12.059 69.3212L28.1358 41.6815" stroke="#FBF3F3" stroke-width="6" stroke-linecap="round" stroke-linejoin="round"/>
<path d="M47.0784 43.9133C49.8282 38.6504 47.9936 31.8037 42.9808 28.6208C37.9681 25.4378 31.6754 27.124 28.9256 32.3869C26.1759 37.6497 28.0105 44.4964 33.0232 47.6793C38.036 50.8623 44.3287 49.1761 47.0784 43.9133Z" stroke="#FBF3F3" stroke-width="6" stroke-linecap="round" stroke-linejoin="round"/>
<path d="M35.525 32.2276C31.8387 28.0395 29.2809 22.868 28.1445 17.3053" stroke="#FBF3F3" stroke-width="6" stroke-linecap="round" stroke-linejoin="round"/>
</svg>
