<svg width="32" height="32" viewBox="0 0 32 32" fill="none" xmlns="http://www.w3.org/2000/svg">
<path d="M31.3626 5.49121H0.637438C0.285438 5.49121 0 5.77659 0 6.12865V25.8711C0 26.2232 0.285438 26.5086 0.637438 26.5086H31.3626C31.7146 26.5086 32 26.2232 32 25.8711V6.12865C32 5.77659 31.7146 5.49121 31.3626 5.49121ZM29.7235 6.76609L16 19.3424L2.2765 6.76609H29.7235ZM1.27488 7.57734L11.6551 17.0899L1.27488 24.4879V7.57734ZM30.7251 24.4879L24.4371 20.0063C24.1503 19.802 23.7523 19.8688 23.548 20.1555C23.3437 20.4423 23.4104 20.8403 23.6972 21.0446L29.5749 25.2336H2.42519L12.6161 17.9705L15.5694 20.677C15.6912 20.7886 15.8456 20.8444 16.0001 20.8444C16.1546 20.8444 16.3089 20.7886 16.4307 20.677L30.7252 7.57734V24.4879H30.7251Z" fill="#343A40"/>
<path d="M22.1708 18.3915L21.7245 18.0735C21.4377 17.8691 21.0398 17.936 20.8354 18.2227C20.6311 18.5094 20.6979 18.9074 20.9846 19.1118L21.4309 19.4299C21.5431 19.5098 21.6723 19.5482 21.8003 19.5482C21.9994 19.5482 22.1956 19.4552 22.3199 19.2806C22.5243 18.9939 22.4575 18.5959 22.1708 18.3915Z" fill="#343A40"/>
</svg>
