<svg width="32" height="32" viewBox="0 0 32 32" fill="none" xmlns="http://www.w3.org/2000/svg">
<g clip-path="url(#clip0_98_2054)">
<path d="M16 0C7.1625 0 0 7.1625 0 16C0 24.8375 7.1625 32 16 32C24.8375 32 32 24.8375 32 16C32 7.1625 24.8375 0 16 0ZM25.9875 25.9813C24.6875 27.2812 23.1812 28.3 21.5 29.0062C19.7625 29.7437 17.9125 30.1125 16 30.1125C14.0938 30.1125 12.2437 29.7375 10.5 29.0062C8.81875 28.2937 7.30625 27.275 6.0125 25.9813C4.7125 24.6813 3.69375 23.175 2.9875 21.4937C2.25 19.7563 1.875 17.9062 1.875 16C1.875 14.0938 2.25 12.2437 2.98125 10.5C3.69375 8.81875 4.7125 7.30625 6.00625 6.0125C7.3125 4.7125 8.81875 3.69375 10.5 2.98125C12.2437 2.25 14.0938 1.875 16 1.875C17.9062 1.875 19.7563 2.25 21.5 2.98125C23.1812 3.69375 24.6937 4.7125 25.9875 6.00625C27.2875 7.30625 28.3063 8.8125 29.0125 10.4937C29.75 12.2312 30.1187 14.0812 30.1187 15.9937C30.1187 17.9 29.7438 19.75 29.0125 21.4937C28.3 23.175 27.2812 24.6875 25.9875 25.9813Z" fill="#343A40"/>
<path d="M20.9125 8H11.1C9.39376 8 8.00626 9.3875 8.00626 11.0938V14.3625V20.9125C8.00626 22.6188 9.39376 24.0062 11.1 24.0062H20.9125C22.6188 24.0062 24.0063 22.6188 24.0063 20.9125V14.3563V11.0875C24 9.3875 22.6125 8 20.9125 8ZM21.8 9.84375H22.1563V10.1938V12.5562L19.45 12.5625L19.4438 9.85L21.8 9.84375ZM13.7188 14.3563C14.2313 13.65 15.0625 13.1812 16 13.1812C16.9375 13.1812 17.7688 13.6438 18.2813 14.3563C18.6188 14.8188 18.8125 15.3875 18.8125 16C18.8125 17.55 17.55 18.8188 15.9938 18.8188C14.4375 18.8188 13.1875 17.55 13.1875 16C13.1875 15.3875 13.3875 14.8188 13.7188 14.3563ZM22.4438 20.9062C22.4438 21.75 21.7563 22.4375 20.9125 22.4375H11.1C10.2563 22.4375 9.56876 21.75 9.56876 20.9062V14.3563H11.9563C11.75 14.8625 11.6313 15.4187 11.6313 16C11.6313 18.4125 13.5938 20.375 16.0063 20.375C18.4188 20.375 20.3813 18.4125 20.3813 16C20.3813 15.4187 20.2625 14.8625 20.0563 14.3563H22.4438V20.9062Z" fill="#343A40"/>
</g>
<defs>
<clipPath id="clip0_98_2054">
<rect width="32" height="32" fill="white"/>
</clipPath>
</defs>
</svg>
