<svg width="36" height="36" viewBox="0 0 36 36" fill="none" xmlns="http://www.w3.org/2000/svg">
<path d="M34.0025 33.8809L30.1804 12.5572C30.0266 11.6987 29.2797 11.0738 28.4074 11.0738H22.051C23.2428 9.89991 23.9834 8.2691 23.9834 6.46801C23.9834 2.9015 21.0819 0 17.5154 0C13.9489 0 11.0473 2.9015 11.0473 6.46801C11.0473 8.2691 11.7879 9.89991 12.9797 11.0738H6.62328C5.75101 11.0738 5.00423 11.6987 4.85029 12.5572L1.02825 33.8809C0.934224 34.4059 1.07748 34.9456 1.41983 35.3546C1.76206 35.7636 2.26796 35.9999 2.80124 35.9999H32.2295C32.7627 35.9999 33.2686 35.7636 33.6109 35.3546C33.9531 34.9456 34.0965 34.4059 34.0025 33.8809ZM17.5154 3.60241C19.0956 3.60241 20.381 4.88787 20.381 6.46801C20.381 8.04815 19.0956 9.33373 17.5154 9.33373C15.9353 9.33373 14.6497 8.04815 14.6497 6.46801C14.6497 4.88787 15.9353 3.60241 17.5154 3.60241ZM17.0447 27.8738C16.9509 28.0467 16.7698 28.1544 16.5731 28.1544H15.7235C15.533 28.1544 15.3567 28.0534 15.2604 27.889L13.1576 24.2992L11.8128 25.672V27.3251C11.8128 27.7831 11.4415 28.1544 10.9835 28.1544C10.5255 28.1544 10.1542 27.7831 10.1542 27.3251V20.7691C10.1542 20.3111 10.5255 19.9398 10.9835 19.9398C11.4415 19.9398 11.8128 20.3111 11.8128 20.7691V23.5875L15.0044 20.1134C15.106 20.0028 15.2494 19.9398 15.3995 19.9398H16.1287C16.3441 19.9398 16.5386 20.0686 16.6227 20.2668C16.7068 20.4651 16.6642 20.6944 16.5145 20.8492L14.3007 23.1391L17.023 27.3253C17.1302 27.4904 17.1386 27.7008 17.0447 27.8738ZM25.2153 26.7799C25.2153 26.9429 25.1409 27.0978 25.0135 27.1995C24.6825 27.4636 24.2465 27.7006 23.7054 27.9105C23.046 28.1664 22.3782 28.2943 21.7021 28.2943C20.8428 28.2943 20.0941 28.1142 19.4551 27.7536C18.8165 27.3932 18.3363 26.8777 18.0151 26.2071C17.6937 25.5366 17.5332 24.8073 17.5332 24.019C17.5332 23.1636 17.7125 22.4033 18.0711 21.7385C18.4297 21.0735 18.9546 20.5638 19.6458 20.2087C20.1722 19.9361 20.828 19.7996 21.6124 19.7996C22.6323 19.7996 23.4288 20.0136 24.0023 20.4413C24.2507 20.6266 24.4607 20.8426 24.6323 21.0893C24.7964 21.325 24.8296 21.6277 24.7208 21.8933C24.612 22.159 24.3761 22.3518 24.0938 22.4046L24.0919 22.405C23.7612 22.4668 23.4259 22.3203 23.2469 22.0355C23.1323 21.8532 22.9862 21.6972 22.8088 21.5674C22.4893 21.334 22.0905 21.2173 21.6124 21.2173C20.8876 21.2173 20.3114 21.4471 19.8839 21.9064C19.4562 22.3661 19.2423 23.0478 19.2423 23.9517C19.2423 24.9268 19.4588 25.658 19.8923 26.1455C20.3255 26.6329 20.8933 26.8766 21.5957 26.8766C21.943 26.8766 22.2914 26.8086 22.6407 26.6722C22.9898 26.5357 23.2896 26.3704 23.54 26.1763V25.1339H22.3326C21.9503 25.1339 21.6407 24.8241 21.6407 24.442C21.6407 24.0598 21.9505 23.7501 22.3326 23.7501H24.6788C24.9752 23.7501 25.2153 23.9904 25.2153 24.2866V26.7799Z" fill="#FF8E8E"/>
</svg>
