<svg width="32" height="32" viewBox="0 0 32 32" fill="none" xmlns="http://www.w3.org/2000/svg">
<path d="M16.32 2.56152C15.0545 2.56126 13.8013 2.81032 12.6321 3.29449C11.4629 3.77865 10.4005 4.48842 9.50569 5.38326C8.61086 6.27809 7.90108 7.34046 7.41692 8.50968C6.93276 9.67889 6.6837 10.932 6.68396 12.1975C6.68396 19.2275 16.32 26.6235 16.32 26.6235C16.32 26.6235 18.978 24.5735 21.504 21.6155C21.6034 21.5181 21.6715 21.3932 21.6997 21.2568C21.7278 21.1205 21.7146 20.9788 21.6617 20.85C21.6089 20.7211 21.5189 20.611 21.4031 20.5336C21.2874 20.4562 21.1512 20.4151 21.012 20.4155C20.9084 20.4166 20.8063 20.4411 20.7135 20.4872C20.6207 20.5333 20.5395 20.5997 20.476 20.6815L20.474 20.6795L22.802 17.2615L22.912 17.3295C22.8343 17.4391 22.7911 17.5693 22.788 17.7035C22.7877 17.7956 22.8056 17.8869 22.8407 17.972C22.8757 18.0572 22.9272 18.1346 22.9923 18.1998C23.0573 18.265 23.1346 18.3167 23.2196 18.352C23.3047 18.3874 23.3959 18.4055 23.488 18.4055C23.6338 18.4043 23.7756 18.3574 23.8933 18.2712C24.011 18.1851 24.0987 18.0642 24.144 17.9255C25.204 16.0955 25.954 14.1375 25.954 12.1995C25.9547 10.934 25.7061 9.68064 25.2223 8.51121C24.7385 7.34178 24.0289 6.27916 23.1342 5.38408C22.2395 4.48901 21.1772 3.77903 20.008 3.29472C18.8387 2.8104 17.5855 2.56126 16.32 2.56152Z" fill="#343A40"/>
<path d="M21.702 19.3885C21.702 19.5741 21.7758 19.7522 21.9071 19.8835C22.0383 20.0147 22.2164 20.0885 22.402 20.0885C22.5877 20.0885 22.7657 20.0147 22.897 19.8835C23.0283 19.7522 23.102 19.5741 23.102 19.3885C23.102 19.2028 23.0283 19.0248 22.897 18.8935C22.7657 18.7622 22.5877 18.6885 22.402 18.6885C22.2164 18.6885 22.0383 18.7622 21.9071 18.8935C21.7758 19.0248 21.702 19.2028 21.702 19.3885Z" fill="#343A40"/>
<path d="M12.3459 12.1039C12.3459 13.1579 12.7646 14.1687 13.5099 14.9139C14.2552 15.6592 15.266 16.0779 16.3199 16.0779C17.3739 16.0779 18.3847 15.6592 19.13 14.9139C19.8753 14.1687 20.2939 13.1579 20.2939 12.1039C20.2939 11.0499 19.8753 10.0391 19.13 9.29384C18.3847 8.54857 17.3739 8.12988 16.3199 8.12988C15.266 8.12988 14.2552 8.54857 13.5099 9.29384C12.7646 10.0391 12.3459 11.0499 12.3459 12.1039Z" fill="white"/>
<path d="M5.12195 29.2615C5.12195 29.4472 5.1957 29.6252 5.32697 29.7565C5.45825 29.8878 5.6363 29.9615 5.82195 29.9615C6.0076 29.9615 6.18565 29.8878 6.31692 29.7565C6.4482 29.6252 6.52195 29.4472 6.52195 29.2615C6.52195 29.0759 6.4482 28.8978 6.31692 28.7665C6.18565 28.6353 6.0076 28.5615 5.82195 28.5615C5.6363 28.5615 5.45825 28.6353 5.32697 28.7665C5.1957 28.8978 5.12195 29.0759 5.12195 29.2615Z" fill="#343A40"/>
<path d="M8.22002 28.5615C8.03453 28.5621 7.85679 28.636 7.72563 28.7671C7.59447 28.8983 7.52055 29.076 7.52002 29.2615V29.2635C7.52002 29.6475 7.83602 29.9635 8.22002 29.9635H26.82C27.204 29.9635 27.52 29.6495 27.52 29.2635V29.2615C27.5195 29.076 27.4456 28.8983 27.3144 28.7671C27.1833 28.636 27.0055 28.5621 26.82 28.5615H8.22002Z" fill="#343A40"/>
<path d="M9.14995 11.2299C9.07685 11.2299 9.00465 11.2139 8.93843 11.1829C8.87221 11.152 8.81359 11.1069 8.76668 11.0508C8.71977 10.9947 8.68573 10.9291 8.66694 10.8584C8.64815 10.7878 8.64509 10.7139 8.65795 10.6419C9.45795 6.14194 13.448 4.90394 13.616 4.85394C13.742 4.81916 13.8767 4.83517 13.9911 4.89854C14.1056 4.9619 14.1906 5.06758 14.228 5.19291C14.2654 5.31823 14.2522 5.45323 14.1913 5.56895C14.1303 5.68467 14.0265 5.7719 13.902 5.81194C13.756 5.85594 10.332 6.93594 9.63995 10.8179C9.61937 10.9331 9.55906 11.0374 9.46953 11.1126C9.38001 11.1879 9.26692 11.2294 9.14995 11.2299Z" fill="white"/>
</svg>
