<svg width="36" height="36" viewBox="0 0 36 36" fill="none" xmlns="http://www.w3.org/2000/svg">
<path d="M16.4883 22.4609C17.9961 21.4571 19.1408 19.9948 19.7532 18.2901C20.3656 16.5854 20.4131 14.7288 19.8888 12.995C19.3644 11.2612 18.296 9.74219 16.8416 8.66256C15.3871 7.58292 13.6239 7 11.8125 7C10.0012 7 8.23788 7.58292 6.78344 8.66256C5.329 9.74219 4.26061 11.2612 3.73626 12.995C3.21191 14.7288 3.25945 16.5854 3.87183 18.2901C4.48422 19.9948 5.62894 21.4571 7.13673 22.4609C4.40929 23.4662 2.08 25.3263 0.496415 27.7639C0.413187 27.8876 0.355377 28.0266 0.326345 28.1728C0.297313 28.3191 0.297638 28.4696 0.327301 28.6157C0.356964 28.7618 0.415374 28.9006 0.499136 29.0239C0.582897 29.1473 0.690338 29.2527 0.815215 29.3342C0.940092 29.4156 1.07991 29.4715 1.22655 29.4984C1.37319 29.5253 1.52372 29.5229 1.66939 29.4911C1.81506 29.4593 1.95297 29.399 2.0751 29.3134C2.19722 29.2279 2.30114 29.119 2.38079 28.993C3.40228 27.4219 4.80004 26.1308 6.44715 25.2371C8.09427 24.3434 9.93855 23.8753 11.8125 23.8753C13.6865 23.8753 15.5308 24.3434 17.1779 25.2371C18.825 26.1308 20.2227 27.4219 21.2442 28.993C21.4092 29.2382 21.6641 29.4086 21.9538 29.4675C22.2435 29.5263 22.5446 29.4687 22.7922 29.3072C23.0398 29.1457 23.2139 28.8933 23.2768 28.6045C23.3398 28.3157 23.2865 28.0138 23.1286 27.7639C21.545 25.3263 19.2157 23.4662 16.4883 22.4609ZM5.62501 15.4409C5.62501 14.2172 5.9879 13.0209 6.66779 12.0033C7.34768 10.9858 8.31404 10.1927 9.44465 9.72442C10.5753 9.2561 11.8194 9.13357 13.0196 9.37232C14.2199 9.61106 15.3224 10.2004 16.1877 11.0657C17.0531 11.931 17.6424 13.0335 17.8811 14.2338C18.1199 15.4341 17.9973 16.6782 17.529 17.8088C17.0607 18.9394 16.2676 19.9057 15.2501 20.5856C14.2326 21.2655 13.0363 21.6284 11.8125 21.6284C10.1721 21.6266 8.59932 20.9741 7.43934 19.8141C6.27936 18.6541 5.62687 17.0814 5.62501 15.4409ZM35.1759 29.3206C34.9261 29.4836 34.6217 29.5406 34.3297 29.4791C34.0378 29.4177 33.7822 29.2428 33.6192 28.993C32.599 27.4209 31.2014 26.1293 29.5539 25.236C27.9065 24.3426 26.0616 23.8759 24.1875 23.8784C23.8891 23.8784 23.603 23.7599 23.392 23.5489C23.181 23.3379 23.0625 23.0518 23.0625 22.7534C23.0625 22.4551 23.181 22.1689 23.392 21.9579C23.603 21.7469 23.8891 21.6284 24.1875 21.6284C25.0987 21.6276 25.9985 21.4255 26.8225 21.0366C27.6466 20.6476 28.3746 20.0815 28.9544 19.3787C29.5343 18.6758 29.9518 17.8535 30.1771 16.9706C30.4024 16.0877 30.4299 15.1659 30.2576 14.2711C30.0853 13.3764 29.7176 12.5307 29.1806 11.7945C28.6436 11.0583 27.9506 10.4499 27.1512 10.0126C26.3518 9.57526 25.4656 9.31991 24.5561 9.26477C23.6466 9.20962 22.7361 9.35605 21.8897 9.69358C21.7517 9.75324 21.6031 9.78463 21.4528 9.7859C21.3025 9.78717 21.1534 9.75829 21.0144 9.70098C20.8754 9.64366 20.7493 9.55907 20.6436 9.4522C20.5378 9.34532 20.4546 9.21834 20.3988 9.07875C20.3429 8.93916 20.3156 8.7898 20.3185 8.63948C20.3214 8.48917 20.3543 8.34095 20.4155 8.20359C20.4766 8.06623 20.5646 7.94252 20.6743 7.83976C20.7841 7.73699 20.9133 7.65727 21.0544 7.6053C22.9914 6.83278 25.146 6.80498 27.1023 7.52726C29.0586 8.24955 30.6782 9.67074 31.6485 11.5167C32.6188 13.3626 32.8712 15.5025 32.3568 17.5235C31.8425 19.5445 30.598 21.3034 28.8633 22.4609C31.5907 23.4662 33.92 25.3263 35.5036 27.7639C35.6666 28.0138 35.7236 28.3182 35.6621 28.6101C35.6007 28.902 35.4258 29.1576 35.1759 29.3206Z" fill="#FF8E8E"/>
</svg>
